Merriweather-Italic (Autosaved).glyphspackage
{
glyphname = exclam;
lastChange = "2024-07-11 15:15:05 +0000";
layers = (
{
layerId = "0C3FD5EE-D923-4A4A-8FDE-164881635915";
shapes = (
{
closed = 1;
nodes = (
(149,478,l),
(259,478,l),
(492,1736,l),
(303,1736,l)
);
},
{
closed = 1;
nodes = (
(39,20,o),
(74,-18,o),
(129,-18,cs),
(191,-18,o),
(250,29,o),
(259,106,cs),
(267,168,o),
(240,214,o),
(168,214,cs),
(110,214,o),
(54,162,o),
(46,89,cs)
);
}
);
width = 440;
},
{
layerId = "27298932-82AF-4578-9425-6304FDB19058";
shapes = (
{
closed = 1;
nodes = (
(207,515,l),
(402,515,l),
(653,1736,l),
(330,1736,l)
);
},
{
closed = 1;
nodes = (
(84,48,o),
(149,-20,o),
(223,-20,cs),
(334,-20,o),
(412,60,o),
(412,172,cs),
(412,261,o),
(355,330,o),
(269,330,cs),
(170,330,o),
(86,248,o),
(85,137,cs)
);
}
);
width = 631;
},
{
layerId = "9079322E-D2EB-4437-A6B9-48C6726F1892";
shapes = (
{
closed = 1;
nodes = (
(237,515,l),
(432,515,l),
(683,1736,l),
(360,1736,l)
);
},
{
closed = 1;
nodes = (
(115,47,o),
(179,-20,o),
(253,-20,cs),
(354,-20,o),
(442,42,o),
(442,174,cs),
(442,253,o),
(395,330,o),
(299,330,cs),
(200,330,o),
(116,257,o),
(115,136,cs)
);
}
);
width = 691;
},
{
layerId = "AB43ED1F-BEAA-4517-9B18-06741265F15E";
shapes = (
{
closed = 1;
nodes = (
(152,478,l),
(262,478,l),
(486,1736,l),
(297,1736,l)
);
},
{
closed = 1;
nodes = (
(42,26,o),
(81,-18,o),
(136,-18,cs),
(198,-18,o),
(253,18,o),
(262,95,cs),
(270,157,o),
(243,214,o),
(171,214,cs),
(113,214,o),
(57,168,o),
(49,95,cs)
);
}
);
width = 437;
},
{
layerId = "0E81F995-ADCA-4265-BF48-502C19DBCB17";
shapes = (
{
closed = 1;
nodes = (
(170,455,l),
(234,455,l),
(568,1780,l),
(215,1780,l)
);
},
{
closed = 1;
nodes = (
(11,33,o),
(73,-22,o),
(138,-22,cs),
(235,-22,o),
(311,47,o),
(311,174,cs),
(311,248,o),
(260,313,o),
(172,313,cs),
(82,313,o),
(11,233,o),
(11,118,cs)
);
}
);
width = 433;
},
{
layerId = "10D406F4-E64B-40B9-806E-EB589F33F511";
shapes = (
{
closed = 1;
nodes = (
(154,359,l),
(198,359,l),
(469,1798,l),
(303,1798,l)
);
},
{
closed = 1;
nodes = (
(39,10,o),
(74,-22,o),
(120,-22,cs),
(176,-22,o),
(233,27,o),
(233,96,cs),
(233,138,o),
(210,176,o),
(154,176,cs),
(97,176,o),
(39,125,o),
(39,59,cs)
);
}
);
width = 391;
},
{
layerId = "2795BD5C-FE1E-44B5-B1D3-799347E852FC";
shapes = (
{
closed = 1;
nodes = (
(195,455,l),
(259,455,l),
(593,1780,l),
(240,1780,l)
);
},
{
closed = 1;
nodes = (
(31,33,o),
(95,-22,o),
(163,-22,cs),
(254,-22,o),
(346,47,o),
(346,174,cs),
(346,261,o),
(284,313,o),
(202,313,cs),
(119,313,o),
(31,237,o),
(31,122,cs)
);
}
);
width = 483;
},
{
layerId = "95CCB04D-97EC-4126-A206-216E0B8EC505";
shapes = (
{
closed = 1;
nodes = (
(154,359,l),
(198,359,l),
(473,1798,l),
(299,1798,l)
);
},
{
closed = 1;
nodes = (
(50,10,o),
(76,-22,o),
(121,-22,cs),
(178,-22,o),
(229,27,o),
(229,96,cs),
(229,138,o),
(210,176,o),
(155,176,cs),
(97,176,o),
(50,125,o),
(50,59,cs)
);
}
);
width = 405;
},
{
layerId = "8587C386-9485-4E77-8679-63F1A494C2C0";
shapes = (
{
closed = 1;
nodes = (
(129,478,l),
(239,478,l),
(469,1736,l),
(280,1736,l)
);
},
{
closed = 1;
nodes = (
(19,26,o),
(58,-18,o),
(113,-18,cs),
(175,-18,o),
(230,18,o),
(239,95,cs),
(247,157,o),
(220,214,o),
(148,214,cs),
(90,214,o),
(34,168,o),
(26,95,cs)
);
}
);
width = 396;
},
{
layerId = "F8806197-5953-4DD8-B2B5-EF301301BB43";
shapes = (
{
closed = 1;
nodes = (
(181,515,l),
(376,515,l),
(627,1736,l),
(304,1736,l)
);
},
{
closed = 1;
nodes = (
(69,37,o),
(133,-20,o),
(207,-20,cs),
(298,-20,o),
(385,42,o),
(385,174,cs),
(385,263,o),
(334,330,o),
(238,330,cs),
(159,330,o),
(71,257,o),
(70,136,cs)
);
}
);
width = 590;
},
{
layerId = "F318CEA5-7792-49D8-B68D-92025E304353";
shapes = (
{
closed = 1;
nodes = (
(154,359,l),
(198,359,l),
(461,1798,l),
(311,1798,l)
);
},
{
closed = 1;
nodes = (
(39,10,o),
(74,-22,o),
(120,-22,cs),
(179,-22,o),
(233,27,o),
(233,96,cs),
(233,138,o),
(210,176,o),
(154,176,cs),
(96,176,o),
(39,125,o),
(39,59,cs)
);
}
);
width = 389;
},
{
layerId = "7A2136B0-3E1D-476B-B826-4714342A6FC2";
shapes = (
{
closed = 1;
nodes = (
(170,455,l),
(234,455,l),
(568,1780,l),
(215,1780,l)
);
},
{
closed = 1;
nodes = (
(17,33,o),
(74,-22,o),
(136,-22,cs),
(229,-22,o),
(305,47,o),
(305,174,cs),
(305,248,o),
(259,313,o),
(175,313,cs),
(88,313,o),
(17,233,o),
(17,118,cs)
);
}
);
width = 433;
}
);
metricRight = "=|";
unicode = 33;
userData = {
KernOnName = exclam;
KernOnSpecialSpacing = {
L = "spaced-off";
};
};
}
{
glyphname = numbersign;
layers = (
{
layerId = "0C3FD5EE-D923-4A4A-8FDE-164881635915";
shapes = (
{
closed = 1;
nodes = (
(267,0,l),
(385,0,l),
(450,413,l),
(805,413,l),
(742,0,l),
(860,0,l),
(923,413,l),
(1171,413,l),
(1189,546,l),
(945,546,l),
(1016,977,l),
(1249,977,l),
(1267,1108,l),
(1034,1108,l),
(1104,1539,l),
(985,1539,l),
(915,1108,l),
(561,1108,l),
(629,1539,l),
(511,1539,l),
(443,1108,l),
(204,1108,l),
(186,977,l),
(422,977,l),
(352,546,l),
(127,546,l),
(109,413,l),
(331,413,l)
);
},
{
closed = 1;
nodes = (
(469,546,l),
(541,977,l),
(897,977,l),
(827,546,l)
);
}
);
width = 1319;
},
{
layerId = "27298932-82AF-4578-9425-6304FDB19058";
shapes = (
{
closed = 1;
nodes = (
(287,0,l),
(405,0,l),
(470,413,l),
(815,413,l),
(752,0,l),
(870,0,l),
(933,413,l),
(1201,413,l),
(1229,616,l),
(965,616,l),
(1015,907,l),
(1269,907,l),
(1297,1108,l),
(1044,1108,l),
(1114,1539,l),
(995,1539,l),
(925,1108,l),
(581,1108,l),
(649,1539,l),
(531,1539,l),
(463,1108,l),
(204,1108,l),
(176,907,l),
(432,907,l),
(385,616,l),
(137,616,l),
(109,413,l),
(351,413,l)
);
},
{
closed = 1;
nodes = (
(502,616,l),
(551,907,l),
(896,907,l),
(847,616,l)
);
}
);
width = 1349;
},
{
layerId = "9079322E-D2EB-4437-A6B9-48C6726F1892";
shapes = (
{
closed = 1;
nodes = (
(287,0,l),
(405,0,l),
(470,413,l),
(855,413,l),
(792,0,l),
(910,0,l),
(973,413,l),
(1241,413,l),
(1269,616,l),
(1005,616,l),
(1055,907,l),
(1309,907,l),
(1337,1108,l),
(1084,1108,l),
(1154,1539,l),
(1035,1539,l),
(965,1108,l),
(581,1108,l),
(649,1539,l),
(531,1539,l),
(463,1108,l),
(204,1108,l),
(176,907,l),
(432,907,l),
(385,616,l),
(137,616,l),
(109,413,l),
(351,413,l)
);
},
{
closed = 1;
nodes = (
(502,616,l),
(551,907,l),
(936,907,l),
(887,616,l)
);
}
);
width = 1389;
},
{
layerId = "AB43ED1F-BEAA-4517-9B18-06741265F15E";
shapes = (
{
closed = 1;
nodes = (
(267,0,l),
(385,0,l),
(450,413,l),
(845,413,l),
(782,0,l),
(900,0,l),
(963,413,l),
(1211,413,l),
(1229,546,l),
(985,546,l),
(1056,977,l),
(1289,977,l),
(1307,1108,l),
(1074,1108,l),
(1144,1539,l),
(1025,1539,l),
(955,1108,l),
(561,1108,l),
(629,1539,l),
(511,1539,l),
(443,1108,l),
(204,1108,l),
(186,977,l),
(422,977,l),
(352,546,l),
(127,546,l),
(109,413,l),
(331,413,l)
);
},
{
closed = 1;
nodes = (
(469,546,l),
(541,977,l),
(937,977,l),
(867,546,l)
);
}
);
width = 1359;
},
{
layerId = "0E81F995-ADCA-4265-BF48-502C19DBCB17";
shapes = (
{
closed = 1;
nodes = (
(287,0,l),
(355,0,l),
(420,413,l),
(765,413,l),
(702,0,l),
(770,0,l),
(833,413,l),
(1101,413,l),
(1129,616,l),
(865,616,l),
(915,907,l),
(1169,907,l),
(1197,1108,l),
(944,1108,l),
(1014,1539,l),
(945,1539,l),
(875,1108,l),
(531,1108,l),
(599,1539,l),
(531,1539,l),
(463,1108,l),
(204,1108,l),
(176,907,l),
(432,907,l),
(385,616,l),
(137,616,l),
(109,413,l),
(351,413,l)
);
},
{
closed = 1;
nodes = (
(452,616,l),
(501,907,l),
(846,907,l),
(797,616,l)
);
}
);
width = 1235;
},
{
layerId = "10D406F4-E64B-40B9-806E-EB589F33F511";
shapes = (
{
closed = 1;
nodes = (
(259,3,l),
(327,3,l),
(392,416,l),
(747,416,l),
(684,3,l),
(752,3,l),
(815,416,l),
(1063,416,l),
(1081,549,l),
(837,549,l),
(908,980,l),
(1141,980,l),
(1159,1111,l),
(926,1111,l),
(996,1542,l),
(927,1542,l),
(857,1111,l),
(503,1111,l),
(571,1542,l),
(503,1542,l),
(435,1111,l),
(196,1111,l),
(178,980,l),
(414,980,l),
(344,549,l),
(119,549,l),
(101,416,l),
(323,416,l)
);
},
{
closed = 1;
nodes = (
(411,549,l),
(483,980,l),
(839,980,l),
(769,549,l)
);
}
);
width = 1189;
},
{
layerId = "2795BD5C-FE1E-44B5-B1D3-799347E852FC";
shapes = (
{
closed = 1;
nodes = (
(287,0,l),
(355,0,l),
(420,413,l),
(815,413,l),
(752,0,l),
(820,0,l),
(883,413,l),
(1151,413,l),
(1179,616,l),
(915,616,l),
(965,907,l),
(1219,907,l),
(1247,1108,l),
(994,1108,l),
(1064,1539,l),
(995,1539,l),
(925,1108,l),
(531,1108,l),
(599,1539,l),
(531,1539,l),
(463,1108,l),
(204,1108,l),
(176,907,l),
(432,907,l),
(385,616,l),
(137,616,l),
(109,413,l),
(351,413,l)
);
},
{
closed = 1;
nodes = (
(452,616,l),
(501,907,l),
(896,907,l),
(847,616,l)
);
}
);
width = 1285;
},
{
layerId = "95CCB04D-97EC-4126-A206-216E0B8EC505";
shapes = (
{
closed = 1;
nodes = (
(267,0,l),
(335,0,l),
(400,413,l),
(795,413,l),
(732,0,l),
(800,0,l),
(863,413,l),
(1111,413,l),
(1129,546,l),
(885,546,l),
(956,977,l),
(1189,977,l),
(1207,1108,l),
(974,1108,l),
(1044,1539,l),
(975,1539,l),
(905,1108,l),
(511,1108,l),
(579,1539,l),
(511,1539,l),
(443,1108,l),
(204,1108,l),
(186,977,l),
(422,977,l),
(352,546,l),
(127,546,l),
(109,413,l),
(331,413,l)
);
},
{
closed = 1;
nodes = (
(419,546,l),
(491,977,l),
(887,977,l),
(817,546,l)
);
}
);
width = 1245;
},
{
layerId = "8587C386-9485-4E77-8679-63F1A494C2C0";
shapes = (
{
closed = 1;
nodes = (
(267,0,l),
(385,0,l),
(450,413,l),
(775,413,l),
(712,0,l),
(830,0,l),
(893,413,l),
(1141,413,l),
(1159,546,l),
(915,546,l),
(986,977,l),
(1219,977,l),
(1237,1108,l),
(1004,1108,l),
(1074,1539,l),
(955,1539,l),
(885,1108,l),
(561,1108,l),
(629,1539,l),
(511,1539,l),
(443,1108,l),
(204,1108,l),
(186,977,l),
(422,977,l),
(352,546,l),
(127,546,l),
(109,413,l),
(331,413,l)
);
},
{
closed = 1;
nodes = (
(469,546,l),
(541,977,l),
(867,977,l),
(797,546,l)
);
}
);
width = 1289;
},
{
layerId = "F8806197-5953-4DD8-B2B5-EF301301BB43";
shapes = (
{
closed = 1;
nodes = (
(287,0,l),
(405,0,l),
(470,413,l),
(795,413,l),
(732,0,l),
(850,0,l),
(913,413,l),
(1181,413,l),
(1209,616,l),
(945,616,l),
(995,907,l),
(1249,907,l),
(1277,1108,l),
(1024,1108,l),
(1094,1539,l),
(975,1539,l),
(905,1108,l),
(581,1108,l),
(649,1539,l),
(531,1539,l),
(463,1108,l),
(204,1108,l),
(176,907,l),
(432,907,l),
(385,616,l),
(137,616,l),
(109,413,l),
(351,413,l)
);
},
{
closed = 1;
nodes = (
(502,616,l),
(551,907,l),
(876,907,l),
(827,616,l)
);
}
);
width = 1329;
},
{
layerId = "F318CEA5-7792-49D8-B68D-92025E304353";
shapes = (
{
closed = 1;
nodes = (
(267,0,l),
(335,0,l),
(400,413,l),
(725,413,l),
(662,0,l),
(730,0,l),
(793,413,l),
(1041,413,l),
(1059,546,l),
(815,546,l),
(886,977,l),
(1119,977,l),
(1137,1108,l),
(904,1108,l),
(974,1539,l),
(905,1539,l),
(835,1108,l),
(511,1108,l),
(579,1539,l),
(511,1539,l),
(443,1108,l),
(204,1108,l),
(186,977,l),
(422,977,l),
(352,546,l),
(127,546,l),
(109,413,l),
(331,413,l)
);
},
{
closed = 1;
nodes = (
(419,546,l),
(491,977,l),
(817,977,l),
(747,546,l)
);
}
);
width = 1175;
},
{
layerId = "7A2136B0-3E1D-476B-B826-4714342A6FC2";
shapes = (
{
closed = 1;
nodes = (
(287,0,l),
(355,0,l),
(420,413,l),
(725,413,l),
(662,0,l),
(730,0,l),
(793,413,l),
(1061,413,l),
(1089,616,l),
(825,616,l),
(875,907,l),
(1129,907,l),
(1157,1108,l),
(904,1108,l),
(974,1539,l),
(905,1539,l),
(835,1108,l),
(531,1108,l),
(599,1539,l),
(531,1539,l),
(463,1108,l),
(204,1108,l),
(176,907,l),
(432,907,l),
(385,616,l),
(137,616,l),
(109,413,l),
(351,413,l)
);
},
{
closed = 1;
nodes = (
(452,616,l),
(501,907,l),
(806,907,l),
(757,616,l)
);
}
);
width = 1195;
}
);
metricRight = "=|";
unicode = 35;
}
{
glyphname = percent;
layers = (
{
layerId = "0C3FD5EE-D923-4A4A-8FDE-164881635915";
shapes = (
{
closed = 1;
nodes = (
(710,729,o),
(867,946,o),
(867,1158,cs),
(867,1324,o),
(790,1443,o),
(597,1443,cs),
(366,1443,o),
(196,1236,o),
(196,1030,cs),
(196,860,o),
(288,729,o),
(467,729,cs)
);
},
{
closed = 1;
nodes = (
(376,807,o),
(324,901,o),
(324,1032,cs),
(324,1171,o),
(410,1367,o),
(576,1367,cs),
(686,1367,o),
(735,1281,o),
(735,1152,cs),
(735,1011,o),
(656,807,o),
(488,807,cs)
);
},
{
closed = 1;
nodes = (
(433,-102,l),
(548,-102,l),
(1449,1630,l),
(1334,1630,l)
);
},
{
closed = 1;
nodes = (
(1531,62,o),
(1688,278,o),
(1688,492,cs),
(1688,660,o),
(1609,781,o),
(1416,781,cs),
(1181,781,o),
(1011,572,o),
(1011,366,cs),
(1011,194,o),
(1104,62,o),
(1285,62,cs)
);
},
{
closed = 1;
nodes = (
(1195,145,o),
(1143,237,o),
(1143,368,cs),
(1143,505,o),
(1231,699,o),
(1394,699,cs),
(1501,699,o),
(1548,616,o),
(1548,486,cs),
(1548,349,o),
(1472,145,o),
(1305,145,cs)
);
}
);
width = 1828;
},
{
layerId = "27298932-82AF-4578-9425-6304FDB19058";
shapes = (
{
closed = 1;
nodes = (
(714,718,o),
(887,944,o),
(887,1158,cs),
(887,1326,o),
(786,1456,o),
(581,1456,cs),
(335,1456,o),
(157,1238,o),
(157,1030,cs),
(157,858,o),
(265,718,o),
(458,718,cs)
);
},
{
closed = 1;
nodes = (
(407,827,o),
(380,912,o),
(380,1032,cs),
(380,1156,o),
(437,1347,o),
(553,1347,cs),
(626,1347,o),
(657,1270,o),
(657,1150,cs),
(657,1029,o),
(600,827,o),
(486,827,cs)
);
},
{
closed = 1;
nodes = (
(457,-102,l),
(589,-102,l),
(1476,1630,l),
(1344,1630,l)
);
},
{
closed = 1;
nodes = (
(1611,56,o),
(1785,282,o),
(1785,496,cs),
(1785,664,o),
(1684,792,o),
(1476,792,cs),
(1230,792,o),
(1055,576,o),
(1055,368,cs),
(1055,196,o),
(1162,56,o),
(1354,56,cs)
);
},
{
closed = 1;
nodes = (
(1304,165,o),
(1276,250,o),
(1276,370,cs),
(1276,494,o),
(1333,684,o),
(1448,684,cs),
(1521,684,o),
(1554,608,o),
(1554,488,cs),
(1554,367,o),
(1495,165,o),
(1381,165,cs)
);
}
);
width = 1885;
},
{
layerId = "9079322E-D2EB-4437-A6B9-48C6726F1892";
shapes = (
{
closed = 1;
nodes = (
(747,716,o),
(931,939,o),
(931,1152,cs),
(931,1323,o),
(820,1454,o),
(600,1454,cs),
(336,1454,o),
(146,1238,o),
(146,1031,cs),
(146,856,o),
(267,716,o),
(474,716,cs)
);
},
{
closed = 1;
nodes = (
(443,825,o),
(403,903,o),
(403,1033,cs),
(403,1160,o),
(466,1345,o),
(572,1345,cs),
(627,1345,o),
(667,1273,o),
(667,1145,cs),
(667,1022,o),
(606,825,o),
(502,825,cs)
);
},
{
closed = 1;
nodes = (
(506,-104,l),
(638,-104,l),
(1485,1628,l),
(1353,1628,l)
);
},
{
closed = 1;
nodes = (
(1672,56,o),
(1857,279,o),
(1857,492,cs),
(1857,664,o),
(1745,794,o),
(1522,794,cs),
(1258,794,o),
(1070,579,o),
(1070,371,cs),
(1070,197,o),
(1190,56,o),
(1397,56,cs)
);
},
{
closed = 1;
nodes = (
(1365,166,o),
(1328,248,o),
(1328,374,cs),
(1328,502,o),
(1389,685,o),
(1494,685,cs),
(1549,685,o),
(1592,614,o),
(1592,487,cs),
(1592,364,o),
(1528,166,o),
(1424,166,cs)
);
}
);
width = 1945;
},
{
layerId = "AB43ED1F-BEAA-4517-9B18-06741265F15E";
shapes = (
{
closed = 1;
nodes = (
(734,729,o),
(894,945,o),
(894,1156,cs),
(894,1324,o),
(814,1443,o),
(616,1443,cs),
(380,1443,o),
(206,1237,o),
(206,1032,cs),
(206,861,o),
(301,729,o),
(485,729,cs)
);
},
{
closed = 1;
nodes = (
(389,807,o),
(334,902,o),
(334,1033,cs),
(334,1172,o),
(423,1367,o),
(595,1367,cs),
(710,1367,o),
(762,1280,o),
(762,1150,cs),
(762,1009,o),
(680,807,o),
(506,807,cs)
);
},
{
closed = 1;
nodes = (
(486,-102,l),
(601,-102,l),
(1442,1630,l),
(1327,1630,l)
);
},
{
closed = 1;
nodes = (
(1580,62,o),
(1740,277,o),
(1740,490,cs),
(1740,660,o),
(1658,781,o),
(1460,781,cs),
(1220,781,o),
(1046,573,o),
(1046,368,cs),
(1046,195,o),
(1142,62,o),
(1328,62,cs)
);
},
{
closed = 1;
nodes = (
(1234,145,o),
(1178,237,o),
(1178,369,cs),
(1178,505,o),
(1269,699,o),
(1438,699,cs),
(1549,699,o),
(1600,616,o),
(1600,484,cs),
(1600,349,o),
(1522,145,o),
(1348,145,cs)
);
}
);
width = 1890;
},
{
layerId = "0E81F995-ADCA-4265-BF48-502C19DBCB17";
shapes = (
{
closed = 1;
nodes = (
(689,696,o),
(864,897,o),
(864,1158,cs),
(864,1332,o),
(786,1454,o),
(589,1454,cs),
(339,1454,o),
(162,1259,o),
(162,1004,cs),
(162,819,o),
(255,696,o),
(445,696,cs)
);
},
{
closed = 1;
nodes = (
(408,747,o),
(382,804,o),
(382,946,cs),
(382,1198,o),
(464,1406,o),
(565,1406,cs),
(619,1406,o),
(643,1348,o),
(643,1210,cs),
(643,960,o),
(565,747,o),
(462,747,cs)
);
},
{
closed = 1;
nodes = (
(447,0,l),
(534,0,l),
(1421,1502,l),
(1334,1502,l)
);
},
{
closed = 1;
nodes = (
(1529,51,o),
(1704,252,o),
(1704,513,cs),
(1704,687,o),
(1626,809,o),
(1429,809,cs),
(1179,809,o),
(1002,614,o),
(1002,359,cs),
(1002,174,o),
(1095,51,o),
(1285,51,cs)
);
},
{
closed = 1;
nodes = (
(1248,102,o),
(1222,159,o),
(1222,301,cs),
(1222,553,o),
(1304,761,o),
(1405,761,cs),
(1459,761,o),
(1483,703,o),
(1483,565,cs),
(1483,315,o),
(1405,102,o),
(1302,102,cs)
);
}
);
width = 1796;
},
{
layerId = "10D406F4-E64B-40B9-806E-EB589F33F511";
shapes = (
{
closed = 1;
nodes = (
(644,729,o),
(860,886,o),
(860,1158,cs),
(860,1326,o),
(778,1443,o),
(604,1443,cs),
(397,1443,o),
(204,1278,o),
(204,1030,cs),
(204,825,o),
(335,729,o),
(471,729,cs)
);
},
{
closed = 1;
nodes = (
(411,767,o),
(334,850,o),
(334,1036,cs),
(334,1274,o),
(459,1405,o),
(570,1405,cs),
(655,1405,o),
(731,1327,o),
(731,1143,cs),
(731,908,o),
(606,767,o),
(496,767,cs)
);
},
{
closed = 1;
nodes = (
(407,0,l),
(516,0,l),
(1442,1495,l),
(1332,1494,l)
);
},
{
closed = 1;
nodes = (
(1458,62,o),
(1674,219,o),
(1674,491,cs),
(1674,659,o),
(1592,776,o),
(1418,776,cs),
(1211,776,o),
(1018,611,o),
(1018,363,cs),
(1018,158,o),
(1149,62,o),
(1285,62,cs)
);
},
{
closed = 1;
nodes = (
(1225,100,o),
(1148,183,o),
(1148,369,cs),
(1148,607,o),
(1273,738,o),
(1384,738,cs),
(1469,738,o),
(1545,660,o),
(1545,476,cs),
(1545,241,o),
(1420,100,o),
(1310,100,cs)
);
}
);
width = 1845;
},
{
layerId = "2795BD5C-FE1E-44B5-B1D3-799347E852FC";
shapes = (
{
closed = 1;
nodes = (
(749,696,o),
(934,893,o),
(934,1154,cs),
(934,1333,o),
(847,1454,o),
(637,1454,cs),
(379,1454,o),
(182,1270,o),
(182,1009,cs),
(182,820,o),
(285,696,o),
(490,696,cs)
);
},
{
closed = 1;
nodes = (
(447,747,o),
(422,811,o),
(422,951,cs),
(422,1206,o),
(505,1406,o),
(610,1406,cs),
(669,1406,o),
(693,1344,o),
(693,1204,cs),
(693,952,o),
(615,747,o),
(507,747,cs)
);
},
{
closed = 1;
nodes = (
(510,0,l),
(597,0,l),
(1527,1502,l),
(1440,1502,l)
);
},
{
closed = 1;
nodes = (
(1667,52,o),
(1852,249,o),
(1852,510,cs),
(1852,689,o),
(1765,810,o),
(1555,810,cs),
(1297,810,o),
(1100,626,o),
(1100,365,cs),
(1100,176,o),
(1203,52,o),
(1408,52,cs)
);
},
{
closed = 1;
nodes = (
(1365,103,o),
(1340,167,o),
(1340,307,cs),
(1340,562,o),
(1423,762,o),
(1528,762,cs),
(1587,762,o),
(1611,700,o),
(1611,560,cs),
(1611,308,o),
(1533,103,o),
(1425,103,cs)
);
}
);
width = 2005;
},
{
layerId = "95CCB04D-97EC-4126-A206-216E0B8EC505";
shapes = (
{
closed = 1;
nodes = (
(688,729,o),
(910,886,o),
(910,1157,cs),
(910,1326,o),
(824,1443,o),
(650,1443,cs),
(436,1443,o),
(244,1279,o),
(244,1030,cs),
(244,825,o),
(375,729,o),
(514,729,cs)
);
},
{
closed = 1;
nodes = (
(450,767,o),
(374,851,o),
(374,1037,cs),
(374,1274,o),
(498,1405,o),
(615,1405,cs),
(701,1405,o),
(781,1327,o),
(781,1142,cs),
(781,908,o),
(649,767,o),
(539,767,cs)
);
},
{
closed = 1;
nodes = (
(423,0,l),
(532,0,l),
(1478,1495,l),
(1368,1494,l)
);
},
{
closed = 1;
nodes = (
(1466,62,o),
(1681,219,o),
(1681,490,cs),
(1681,659,o),
(1599,776,o),
(1426,776,cs),
(1213,776,o),
(1015,611,o),
(1015,364,cs),
(1015,158,o),
(1151,62,o),
(1292,62,cs)
);
},
{
closed = 1;
nodes = (
(1227,100,o),
(1145,183,o),
(1145,371,cs),
(1145,607,o),
(1275,738,o),
(1392,738,cs),
(1478,738,o),
(1552,659,o),
(1552,476,cs),
(1552,241,o),
(1426,100,o),
(1317,100,cs)
);
}
);
width = 1872;
},
{
layerId = "8587C386-9485-4E77-8679-63F1A494C2C0";
shapes = (
{
closed = 1;
nodes = (
(607,729,o),
(765,932,o),
(765,1170,cs),
(765,1328,o),
(694,1443,o),
(537,1443,cs),
(328,1443,o),
(174,1238,o),
(174,1015,cs),
(174,856,o),
(253,729,o),
(409,729,cs)
);
},
{
closed = 1;
nodes = (
(338,807,o),
(297,898,o),
(297,1014,cs),
(297,1175,o),
(377,1367,o),
(511,1367,cs),
(599,1367,o),
(638,1284,o),
(638,1168,cs),
(638,1010,o),
(565,807,o),
(429,807,cs)
);
},
{
closed = 1;
nodes = (
(334,-102,l),
(449,-102,l),
(1350,1630,l),
(1235,1630,l)
);
},
{
closed = 1;
nodes = (
(1370,62,o),
(1527,266,o),
(1527,504,cs),
(1527,665,o),
(1455,781,o),
(1297,781,cs),
(1087,781,o),
(932,576,o),
(932,351,cs),
(932,190,o),
(1011,62,o),
(1170,62,cs)
);
},
{
closed = 1;
nodes = (
(1098,145,o),
(1057,235,o),
(1057,349,cs),
(1057,510,o),
(1138,699,o),
(1270,699,cs),
(1356,699,o),
(1394,618,o),
(1394,504,cs),
(1394,347,o),
(1323,145,o),
(1188,145,cs)
);
}
);
width = 1645;
},
{
layerId = "F8806197-5953-4DD8-B2B5-EF301301BB43";
shapes = (
{
closed = 1;
nodes = (
(661,718,o),
(825,947,o),
(825,1164,cs),
(825,1329,o),
(731,1456,o),
(558,1456,cs),
(330,1456,o),
(167,1237,o),
(167,1021,cs),
(167,855,o),
(263,718,o),
(437,718,cs)
);
},
{
closed = 1;
nodes = (
(405,827,o),
(385,903,o),
(385,1005,cs),
(385,1188,o),
(444,1347,o),
(524,1347,cs),
(578,1347,o),
(600,1273,o),
(600,1174,cs),
(600,1025,o),
(550,827,o),
(460,827,cs)
);
},
{
closed = 1;
nodes = (
(367,-102,l),
(499,-102,l),
(1386,1630,l),
(1254,1630,l)
);
},
{
closed = 1;
nodes = (
(1449,56,o),
(1615,284,o),
(1615,503,cs),
(1615,668,o),
(1520,792,o),
(1347,792,cs),
(1117,792,o),
(959,574,o),
(959,359,cs),
(959,193,o),
(1053,56,o),
(1226,56,cs)
);
},
{
closed = 1;
nodes = (
(1190,165,o),
(1171,248,o),
(1171,343,cs),
(1171,498,o),
(1221,684,o),
(1311,684,cs),
(1367,684,o),
(1393,611,o),
(1393,509,cs),
(1393,363,o),
(1339,165,o),
(1249,165,cs)
);
}
);
width = 1725;
},
{
layerId = "F318CEA5-7792-49D8-B68D-92025E304353";
shapes = (
{
closed = 1;
nodes = (
(588,729,o),
(788,886,o),
(788,1160,cs),
(788,1325,o),
(716,1443,o),
(553,1443,cs),
(362,1443,o),
(183,1279,o),
(183,1028,cs),
(183,826,o),
(299,729,o),
(427,729,cs)
);
},
{
closed = 1;
nodes = (
(366,767,o),
(312,849,o),
(312,1029,cs),
(312,1275,o),
(413,1405,o),
(522,1405,cs),
(608,1405,o),
(661,1327,o),
(661,1150,cs),
(661,907,o),
(562,767,o),
(450,767,cs)
);
},
{
closed = 1;
nodes = (
(369,0,l),
(476,0,l),
(1307,1495,l),
(1199,1494,l)
);
},
{
closed = 1;
nodes = (
(1311,62,o),
(1517,220,o),
(1517,492,cs),
(1517,658,o),
(1441,776,o),
(1276,776,cs),
(1076,776,o),
(912,602,o),
(912,359,cs),
(912,159,o),
(1023,62,o),
(1150,62,cs)
);
},
{
closed = 1;
nodes = (
(1089,100,o),
(1041,183,o),
(1041,360,cs),
(1041,608,o),
(1135,738,o),
(1245,738,cs),
(1330,738,o),
(1389,661,o),
(1389,481,cs),
(1389,239,o),
(1283,100,o),
(1173,100,cs)
);
}
);
width = 1662;
},
{
layerId = "7A2136B0-3E1D-476B-B826-4714342A6FC2";
shapes = (
{
closed = 1;
nodes = (
(613,696,o),
(778,898,o),
(778,1168,cs),
(778,1336,o),
(705,1454,o),
(532,1454,cs),
(308,1454,o),
(142,1257,o),
(142,994,cs),
(142,815,o),
(226,696,o),
(394,696,cs)
);
},
{
closed = 1;
nodes = (
(373,747,o),
(356,799,o),
(356,922,cs),
(356,1186,o),
(429,1406,o),
(508,1406,cs),
(545,1406,o),
(562,1355,o),
(562,1234,cs),
(562,971,o),
(492,747,o),
(410,747,cs)
);
},
{
closed = 1;
nodes = (
(363,0,l),
(451,0,l),
(1322,1502,l),
(1233,1502,l)
);
},
{
closed = 1;
nodes = (
(1337,51,o),
(1506,252,o),
(1506,541,cs),
(1506,700,o),
(1439,809,o),
(1275,809,cs),
(1056,809,o),
(883,613,o),
(883,335,cs),
(883,165,o),
(962,51,o),
(1122,51,cs)
);
},
{
closed = 1;
nodes = (
(1107,102,o),
(1074,185,o),
(1074,314,cs),
(1074,560,o),
(1146,761,o),
(1233,761,cs),
(1282,761,o),
(1313,679,o),
(1313,549,cs),
(1313,308,o),
(1247,102,o),
(1158,102,cs)
);
}
);
width = 1613;
}
);
unicode = 37;
userData = {
KernOnSpecialSpacing = {
L = "spaced-off";
};
};
}
{
glyphname = quotesingle;
lastChange = "2024-07-11 15:15:05 +0000";
layers = (
{
background = {
shapes = (
{
closed = 1;
nodes = (
(394,1054,o),
(559,1148,o),
(559,1376,cs),
(559,1514,o),
(467,1644,o),
(383,1644,cs),
(328,1644,o),
(286,1608,o),
(286,1552,cs),
(286,1440,o),
(421,1450,o),
(421,1308,cs),
(421,1176,o),
(337,1120,o),
(270,1078,c),
(270,1062,l),
(316,1016,l)
);
}
);
};
layerId = "0C3FD5EE-D923-4A4A-8FDE-164881635915";
shapes = (
{
closed = 1;
nodes = (
(351,1644,l),
(288,1035,l),
(359,1035,l),
(560,1644,l)
);
}
);
width = 615;
},
{
background = {
shapes = (
{
closed = 1;
nodes = (
(273,1671,l),
(302,882,l),
(447,882,l),
(568,1671,l)
);
}
);
};
layerId = "27298932-82AF-4578-9425-6304FDB19058";
shapes = (
{
closed = 1;
nodes = (
(353,1671,l),
(269,902,l),
(411,902,l),
(637,1671,l)
);
}
);
width = 684;
},
{
layerId = "0E81F995-ADCA-4265-BF48-502C19DBCB17";
shapes = (
{
closed = 1;
nodes = (
(356,1644,l),
(289,1010,l),
(349,1010,l),
(604,1644,l)
);
}
);
width = 648;
},
{
background = {
shapes = (
{
closed = 1;
nodes = (
(263,1671,l),
(292,882,l),
(427,882,l),
(548,1671,l)
);
}
);
};
layerId = "F8806197-5953-4DD8-B2B5-EF301301BB43";
shapes = (
{
closed = 1;
nodes = (
(353,1671,l),
(269,902,l),
(401,902,l),
(627,1671,l)
);
}
);
width = 674;
},
{
background = {
shapes = (
{
closed = 1;
nodes = (
(309,1644,l),
(324,1016,l),
(395,1016,l),
(502,1644,l)
);
}
);
};
layerId = "8587C386-9485-4E77-8679-63F1A494C2C0";
shapes = (
{
closed = 1;
nodes = (
(351,1644,l),
(288,1035,l),
(359,1035,l),
(554,1644,l)
);
}
);
width = 609;
},
{
background = {
shapes = (
{
closed = 1;
nodes = (
(287,1644,l),
(338,1010,l),
(385,1010,l),
(530,1644,l)
);
}
);
};
layerId = "7A2136B0-3E1D-476B-B826-4714342A6FC2";
shapes = (
{
closed = 1;
nodes = (
(356,1644,l),
(289,1010,l),
(349,1010,l),
(597,1644,l)
);
}
);
width = 641;
},
{
background = {
shapes = (
{
closed = 1;
nodes = (
(322,1644,l),
(352,1119,l),
(396,1119,l),
(468,1644,l)
);
}
);
};
layerId = "F318CEA5-7792-49D8-B68D-92025E304353";
shapes = (
{
closed = 1;
nodes = (
(356,1644,l),
(284,1100,l),
(324,1100,l),
(521,1644,l)
);
}
);
width = 565;
},
{
background = {
shapes = (
{
closed = 1;
nodes = (
(238,1644,l),
(268,1119,l),
(312,1119,l),
(384,1644,l)
);
}
);
};
layerId = "10D406F4-E64B-40B9-806E-EB589F33F511";
shapes = (
{
closed = 1;
nodes = (
(356,1644,l),
(284,1100,l),
(324,1100,l),
(521,1644,l)
);
}
);
width = 565;
},
{
layerId = "2795BD5C-FE1E-44B5-B1D3-799347E852FC";
shapes = (
{
closed = 1;
nodes = (
(356,1644,l),
(283,1010,l),
(350,1010,l),
(620,1644,l)
);
}
);
width = 664;
},
{
background = {
shapes = (
{
closed = 1;
nodes = (
(282,1644,l),
(312,1119,l),
(366,1119,l),
(448,1644,l)
);
}
);
};
layerId = "95CCB04D-97EC-4126-A206-216E0B8EC505";
shapes = (
{
closed = 1;
nodes = (
(356,1644,l),
(284,1100,l),
(324,1100,l),
(521,1644,l)
);
}
);
width = 565;
},
{
background = {
shapes = (
{
closed = 1;
nodes = (
(319,1644,l),
(334,1016,l),
(405,1016,l),
(512,1644,l)
);
}
);
};
layerId = "AB43ED1F-BEAA-4517-9B18-06741265F15E";
shapes = (
{
closed = 1;
nodes = (
(351,1644,l),
(288,1035,l),
(363,1035,l),
(564,1644,l)
);
}
);
userData = {
com.schriftgestaltung.Glyphs.lastChange = "2019-04-25 21:50:43 +0000";
};
width = 619;
},
{
background = {
shapes = (
{
closed = 1;
nodes = (
(273,1671,l),
(302,882,l),
(447,882,l),
(568,1671,l)
);
}
);
};
layerId = "9079322E-D2EB-4437-A6B9-48C6726F1892";
shapes = (
{
closed = 1;
nodes = (
(353,1671,l),
(269,902,l),
(419,902,l),
(645,1671,l)
);
}
);
width = 692;
}
);
unicode = 39;
userData = {
KernOnName = quotesingle;
KernOnSpecialSpacing = {
L = quotes;
R = quotes;
};
};
}
{
glyphname = comma;
layers = (
{
layerId = "0C3FD5EE-D923-4A4A-8FDE-164881635915";
shapes = (
{
closed = 1;
nodes = (
(164,-416,o),
(285,-212,o),
(285,-33,cs),
(285,88,o),
(257,166,o),
(204,214,c),
(66,126,l),
(63,107,l),
(97,77,o),
(122,18,o),
(122,-72,cs),
(122,-166,o),
(88,-311,o),
(-41,-426,c),
(-47,-444,l),
(-3,-496,l)
);
}
);
width = 391;
},
{
background = {
shapes = (
{
closed = 1;
nodes = (
(164,-416,o),
(285,-212,o),
(285,-33,cs),
(285,88,o),
(257,166,o),
(204,214,c),
(66,126,l),
(63,107,l),
(97,77,o),
(122,18,o),
(122,-72,cs),
(122,-166,o),
(88,-311,o),
(-41,-426,c),
(-47,-444,l),
(-3,-496,l)
);
}
);
};
layerId = "27298932-82AF-4578-9425-6304FDB19058";
shapes = (
{
closed = 1;
nodes = (
(220,-410,o),
(358,-221,o),
(358,-34,cs),
(358,117,o),
(317,211,o),
(244,266,c),
(48,139,l),
(41,112,l),
(85,72,o),
(122,18,o),
(122,-90,cs),
(122,-208,o),
(38,-359,o),
(-60,-407,c),
(-60,-426,l),
(10,-509,l)
);
}
);
width = 493;
},
{
background = {
shapes = (
{
closed = 0;
nodes = (
(47,147,l),
(42,86,l)
);
}
);
};
layerId = "9079322E-D2EB-4437-A6B9-48C6726F1892";
shapes = (
{
closed = 1;
nodes = (
(220,-410,o),
(361,-221,o),
(361,-34,cs),
(361,117,o),
(320,211,o),
(247,266,c),
(48,139,l),
(41,112,l),
(85,72,o),
(122,18,o),
(122,-90,cs),
(122,-208,o),
(38,-359,o),
(-60,-407,c),
(-60,-426,l),
(10,-509,l)
);
}
);
width = 514;
},
{
background = {
shapes = (
{
closed = 1;
nodes = (
(164,-416,o),
(283,-182,o),
(283,15,cs),
(283,98,o),
(257,166,o),
(204,214,c),
(66,126,l),
(63,107,l),
(97,77,o),
(120,28,o),
(120,-38,cs),
(120,-134,o),
(88,-311,o),
(-41,-426,c),
(-47,-444,l),
(-3,-496,l)
);
}
);
};
layerId = "AB43ED1F-BEAA-4517-9B18-06741265F15E";
shapes = (
{
closed = 1;
nodes = (
(164,-416,o),
(288,-212,o),
(288,-33,cs),
(288,88,o),
(260,166,o),
(207,214,c),
(66,126,l),
(63,107,l),
(97,77,o),
(122,18,o),
(122,-72,cs),
(122,-166,o),
(88,-311,o),
(-41,-426,c),
(-47,-444,l),
(-3,-496,l)
);
}
);
width = 400;
},
{
background = {
shapes = (
{
closed = 1;
nodes = (
(220,-410,o),
(358,-221,o),
(358,-34,cs),
(358,117,o),
(317,211,o),
(244,266,c),
(48,139,l),
(41,112,l),
(85,72,o),
(122,18,o),
(122,-90,cs),
(122,-208,o),
(38,-359,o),
(-60,-407,c),
(-60,-426,l),
(10,-509,l)
);
},
{
closed = 1;
nodes = (
(186,-359,o),
(271,-186,o),
(271,-53,cs),
(271,30,o),
(256,123,o),
(184,189,c),
(90,126,l),
(87,107,l),
(124,81,o),
(151,-17,o),
(151,-72,cs),
(151,-193,o),
(103,-323,o),
(13,-403,c),
(10,-416,l),
(32,-443,l)
);
}
);
};
layerId = "0E81F995-ADCA-4265-BF48-502C19DBCB17";
shapes = (
{
closed = 1;
nodes = (
(220,-410,o),
(376,-244,o),
(376,-25,cs),
(376,109,o),
(327,206,o),
(254,261,c),
(75,144,l),
(68,117,l),
(112,77,o),
(169,10,o),
(169,-133,cs),
(169,-239,o),
(149,-342,o),
(13,-444,c),
(13,-460,l),
(38,-490,l)
);
}
);
width = 479;
},
{
background = {
shapes = (
{
closed = 1;
nodes = (
(164,-416,o),
(285,-212,o),
(285,-33,cs),
(285,88,o),
(257,166,o),
(204,214,c),
(66,126,l),
(63,107,l),
(97,77,o),
(122,18,o),
(122,-72,cs),
(122,-166,o),
(88,-311,o),
(-41,-426,c),
(-47,-444,l),
(-3,-496,l)
);
}
);
};
layerId = "10D406F4-E64B-40B9-806E-EB589F33F511";
shapes = (
{
closed = 1;
nodes = (
(186,-359,o),
(271,-186,o),
(271,-53,cs),
(271,30,o),
(256,123,o),
(184,189,c),
(90,126,l),
(87,107,l),
(124,81,o),
(151,-17,o),
(151,-72,cs),
(151,-193,o),
(103,-323,o),
(13,-403,c),
(10,-416,l),
(32,-443,l)
);
}
);
width = 376;
},
{
background = {
shapes = (
{
closed = 1;
nodes = (
(199,-385,o),
(370,-216,o),
(370,3,cs),
(370,116,o),
(323,216,o),
(214,272,c),
(56,110,l),
(57,79,l),
(110,71,o),
(143,-26,o),
(143,-105,cs),
(143,-188,o),
(117,-334,o),
(9,-404,c),
(9,-420,l),
(37,-455,l)
);
}
);
};
layerId = "2795BD5C-FE1E-44B5-B1D3-799347E852FC";
shapes = (
{
closed = 1;
nodes = (
(223,-408,o),
(378,-244,o),
(378,-25,cs),
(378,109,o),
(329,206,o),
(256,261,c),
(75,144,l),
(68,117,l),
(112,77,o),
(169,10,o),
(169,-133,cs),
(169,-239,o),
(149,-342,o),
(13,-444,c),
(13,-460,l),
(38,-490,l)
);
}
);
width = 462;
},
{
background = {
shapes = (
{
closed = 1;
nodes = (
(160,-385,o),
(251,-191,o),
(251,-58,cs),
(251,45,o),
(225,120,o),
(157,186,c),
(55,104,l),
(52,70,l),
(97,44,o),
(130,-27,o),
(130,-113,cs),
(130,-204,o),
(94,-344,o),
(-5,-403,c),
(-8,-420,l),
(11,-438,l)
);
}
);
};
layerId = "95CCB04D-97EC-4126-A206-216E0B8EC505";
shapes = (
{
closed = 1;
nodes = (
(186,-359,o),
(272,-186,o),
(272,-53,cs),
(272,30,o),
(259,123,o),
(187,189,c),
(90,126,l),
(87,107,l),
(124,81,o),
(151,-17,o),
(151,-72,cs),
(151,-193,o),
(103,-323,o),
(13,-403,c),
(10,-416,l),
(32,-443,l)
);
}
);
width = 381;
},
{
background = {
shapes = (
{
closed = 1;
nodes = (
(164,-416,o),
(279,-182,o),
(279,15,cs),
(279,98,o),
(255,166,o),
(202,214,c),
(66,126,l),
(63,107,l),
(97,77,o),
(118,28,o),
(118,-38,cs),
(118,-134,o),
(88,-311,o),
(-41,-426,c),
(-47,-444,l),
(-3,-496,l)
);
}
);
};
layerId = "8587C386-9485-4E77-8679-63F1A494C2C0";
shapes = (
{
closed = 1;
nodes = (
(164,-416,o),
(283,-212,o),
(283,-33,cs),
(283,88,o),
(255,166,o),
(202,214,c),
(66,126,l),
(63,107,l),
(97,77,o),
(122,18,o),
(122,-72,cs),
(122,-166,o),
(88,-311,o),
(-41,-426,c),
(-47,-444,l),
(-3,-496,l)
);
}
);
width = 381;
},
{
background = {
shapes = (
{
closed = 1;
nodes = (
(230,-408,o),
(358,-221,o),
(358,-3,cs),
(358,117,o),
(309,251,o),
(188,287,c),
(42,139,l),
(37,78,l),
(93,79,o),
(131,1,o),
(131,-85,cs),
(131,-209,o),
(60,-354,o),
(-38,-402,c),
(-40,-422,l),
(20,-507,l)
);
}
);
};
layerId = "F8806197-5953-4DD8-B2B5-EF301301BB43";
shapes = (
{
closed = 1;
nodes = (
(220,-410,o),
(356,-221,o),
(356,-34,cs),
(356,117,o),
(315,211,o),
(242,266,c),
(48,139,l),
(41,112,l),
(85,72,o),
(122,18,o),
(122,-90,cs),
(122,-208,o),
(38,-359,o),
(-60,-407,c),
(-60,-426,l),
(10,-509,l)
);
}
);
width = 485;
},
{
background = {
shapes = (
{
closed = 1;
nodes = (
(160,-385,o),
(251,-191,o),
(251,-58,cs),
(251,45,o),
(225,120,o),
(157,186,c),
(55,104,l),
(52,70,l),
(97,44,o),
(130,-27,o),
(130,-113,cs),
(130,-204,o),
(94,-344,o),
(-5,-403,c),
(-8,-420,l),
(11,-438,l)
);
}
);
};
layerId = "F318CEA5-7792-49D8-B68D-92025E304353";
shapes = (
{
closed = 1;
nodes = (
(186,-359,o),
(268,-186,o),
(268,-53,cs),
(268,30,o),
(253,123,o),
(181,189,c),
(90,126,l),
(87,107,l),
(124,81,o),
(151,-17,o),
(151,-72,cs),
(151,-193,o),
(103,-323,o),
(13,-403,c),
(10,-416,l),
(32,-443,l)
);
}
);
width = 374;
},
{
background = {
shapes = (
{
closed = 1;
nodes = (
(202,-385,o),
(369,-218,o),
(369,1,cs),
(369,114,o),
(308,246,o),
(202,272,c),
(56,110,l),
(57,79,l),
(107,71,o),
(147,-26,o),
(147,-105,cs),
(147,-178,o),
(122,-334,o),
(19,-404,c),
(19,-420,l),
(44,-455,l)
);
}
);
};
layerId = "7A2136B0-3E1D-476B-B826-4714342A6FC2";
shapes = (
{
closed = 1;
nodes = (
(220,-410,o),
(373,-244,o),
(373,-25,cs),
(373,109,o),
(324,206,o),
(251,261,c),
(75,144,l),
(68,117,l),
(112,77,o),
(169,10,o),
(169,-133,cs),
(169,-239,o),
(149,-342,o),
(13,-444,c),
(13,-460,l),
(38,-490,l)
);
}
);
width = 472;
}
);
unicode = 44;
userData = {
KernOnName = comma;
KernOnSpecialSpacing = {
L = period;
R = period;
};
};
}
{
glyphname = hyphen;
lastChange = "2024-07-11 15:15:05 +0000";
layers = (
{
layerId = "0C3FD5EE-D923-4A4A-8FDE-164881635915";
shapes = (
{
closed = 1;
nodes = (
(188,703,l),
(172,583,l),
(928,583,l),
(944,703,l)
);
}
);
width = 1092;
},
{
layerId = "27298932-82AF-4578-9425-6304FDB19058";
shapes = (
{
closed = 1;
nodes = (
(194,744,l),
(166,542,l),
(933,542,l),
(961,744,l)
);
}
);
width = 1103;
},
{
layerId = "9079322E-D2EB-4437-A6B9-48C6726F1892";
shapes = (
{
closed = 1;
nodes = (
(190,744,l),
(162,542,l),
(959,542,l),
(987,744,l)
);
}
);
width = 1125;
},
{
layerId = "AB43ED1F-BEAA-4517-9B18-06741265F15E";
shapes = (
{
closed = 1;
nodes = (
(184,703,l),
(168,583,l),
(954,583,l),
(970,703,l)
);
}
);
width = 1114;
},
{
layerId = "0E81F995-ADCA-4265-BF48-502C19DBCB17";
shapes = (
{
closed = 1;
nodes = (
(160,604,l),
(148,524,l),
(800,524,l),
(812,604,l)
);
}
);
width = 943;
},
{
layerId = "10D406F4-E64B-40B9-806E-EB589F33F511";
shapes = (
{
closed = 1;
nodes = (
(160,604,l),
(148,524,l),
(800,524,l),
(812,604,l)
);
}
);
width = 943;
},
{
layerId = "2795BD5C-FE1E-44B5-B1D3-799347E852FC";
shapes = (
{
closed = 1;
nodes = (
(155,604,l),
(143,524,l),
(835,524,l),
(847,604,l)
);
}
);
width = 973;
},
{
layerId = "95CCB04D-97EC-4126-A206-216E0B8EC505";
shapes = (
{
closed = 1;
nodes = (
(155,604,l),
(143,524,l),
(835,524,l),
(847,604,l)
);
}
);
width = 973;
},
{
layerId = "8587C386-9485-4E77-8679-63F1A494C2C0";
shapes = (
{
closed = 1;
nodes = (
(190,703,l),
(174,583,l),
(880,583,l),
(896,703,l)
);
}
);
width = 1046;
},
{
layerId = "F8806197-5953-4DD8-B2B5-EF301301BB43";
shapes = (
{
closed = 1;
nodes = (
(196,744,l),
(168,542,l),
(885,542,l),
(913,744,l)
);
}
);
width = 1057;
},
{
layerId = "F318CEA5-7792-49D8-B68D-92025E304353";
shapes = (
{
closed = 1;
nodes = (
(163,604,l),
(151,524,l),
(753,524,l),
(765,604,l)
);
}
);
width = 899;
},
{
layerId = "7A2136B0-3E1D-476B-B826-4714342A6FC2";
shapes = (
{
closed = 1;
nodes = (
(163,604,l),
(151,524,l),
(753,524,l),
(765,604,l)
);
}
);
width = 899;
}
);
metricRight = "=|";
unicode = 45;
userData = {
KernOnName = hyphen;
KernOnSpecialSpacing = {
L = hyphen;
R = hyphen;
};
};
}
{
glyphname = two;
layers = (
{
layerId = "0C3FD5EE-D923-4A4A-8FDE-164881635915";
shapes = (
{
closed = 1;
nodes = (
(933,0,l),
(1009,276,l),
(929,304,l),
(839,134,l),
(185,94,l),
(479,270,o),
(1029,734,o),
(1029,1108,cs),
(1029,1314,o),
(909,1494,o),
(631,1494,cs),
(419,1494,o),
(271,1382,o),
(193,1302,c),
(235,1228,l),
(307,1288,o),
(415,1384,o),
(571,1384,cs),
(749,1384,o),
(857,1272,o),
(857,1074,cs),
(857,776,o),
(357,256,o),
(-13,70,c),
(3,0,l)
);
}
);
width = 1134;
},
{
layerId = "27298932-82AF-4578-9425-6304FDB19058";
shapes = (
{
closed = 1;
nodes = (
(987,0,l),
(1082,386,l),
(946,420,l),
(836,238,l),
(261,166,l),
(510,350,o),
(1062,718,o),
(1062,1145,cs),
(1062,1337,o),
(940,1502,o),
(665,1502,cs),
(385,1502,o),
(236,1369,o),
(150,1286,c),
(217,1176,l),
(264,1218,o),
(370,1310,o),
(526,1310,cs),
(631,1310,o),
(741,1250,o),
(741,1086,cs),
(741,763,o),
(290,344,o),
(-2,142,c),
(43,0,l)
);
}
);
width = 1149;
},
{
layerId = "9079322E-D2EB-4437-A6B9-48C6726F1892";
shapes = (
{
closed = 1;
nodes = (
(1028,0,l),
(1128,406,l),
(984,440,l),
(867,238,l),
(215,166,l),
(511,350,o),
(1113,668,o),
(1113,1107,cs),
(1113,1337,o),
(951,1502,o),
(653,1502,cs),
(397,1502,o),
(179,1352,o),
(129,1296,c),
(203,1177,l),
(253,1229,o),
(394,1310,o),
(539,1310,cs),
(661,1310,o),
(788,1250,o),
(788,1036,cs),
(788,713,o),
(297,344,o),
(-44,142,c),
(4,0,l)
);
}
);
width = 1176;
},
{
layerId = "AB43ED1F-BEAA-4517-9B18-06741265F15E";
shapes = (
{
closed = 1;
nodes = (
(950,0,l),
(1030,276,l),
(946,304,l),
(851,134,l),
(175,94,l),
(484,270,o),
(1054,714,o),
(1054,1118,cs),
(1054,1324,o),
(928,1494,o),
(636,1494,cs),
(417,1494,o),
(247,1379,o),
(176,1302,c),
(218,1231,l),
(296,1296,o),
(416,1384,o),
(573,1384,cs),
(760,1384,o),
(873,1282,o),
(873,1084,cs),
(873,756,o),
(355,256,o),
(-33,70,c),
(-16,0,l)
);
}
);
width = 1145;
},
{
layerId = "0E81F995-ADCA-4265-BF48-502C19DBCB17";
shapes = (
{
closed = 1;
nodes = (
(937,0,l),
(1046,426,l),
(979,450,l),
(875,289,l),
(151,194,l),
(603,474,o),
(1058,787,o),
(1055,1159,cs),
(1053,1384,o),
(866,1502,o),
(651,1502,cs),
(460,1502,o),
(271,1431,o),
(128,1262,c),
(155,1216,l),
(264,1313,o),
(354,1344,o),
(451,1344,cs),
(576,1344,o),
(679,1257,o),
(681,1096,cs),
(685,782,o),
(340,370,o),
(-15,147,c),
(48,0,l)
);
}
);
width = 1092;
},
{
layerId = "10D406F4-E64B-40B9-806E-EB589F33F511";
shapes = (
{
closed = 1;
nodes = (
(888,0,l),
(975,303,l),
(913,325,l),
(799,140,l),
(130,76,l),
(403,269,o),
(987,725,o),
(987,1140,cs),
(987,1380,o),
(827,1497,o),
(608,1497,cs),
(416,1497,o),
(248,1391,o),
(151,1283,c),
(176,1239,l),
(279,1333,o),
(409,1397,o),
(556,1397,cs),
(753,1397,o),
(816,1269,o),
(816,1098,cs),
(816,724,o),
(323,265,o),
(-1,35,c),
(7,0,l)
);
}
);
width = 1046;
},
{
layerId = "2795BD5C-FE1E-44B5-B1D3-799347E852FC";
shapes = (
{
closed = 1;
nodes = (
(995,0,l),
(1102,436,l),
(1030,460,l),
(929,289,l),
(148,194,l),
(631,474,o),
(1122,787,o),
(1119,1159,cs),
(1117,1384,o),
(907,1502,o),
(707,1502,cs),
(478,1502,o),
(279,1418,o),
(127,1262,c),
(156,1216,l),
(250,1294,o),
(370,1344,o),
(478,1344,cs),
(617,1344,o),
(713,1257,o),
(715,1096,cs),
(719,782,o),
(350,370,o),
(-30,147,c),
(37,0,l)
);
}
);
width = 1145;
},
{
layerId = "95CCB04D-97EC-4126-A206-216E0B8EC505";
shapes = (
{
closed = 1;
nodes = (
(919,0,l),
(1012,303,l),
(946,325,l),
(831,140,l),
(136,76,l),
(417,269,o),
(1020,725,o),
(1020,1140,cs),
(1020,1380,o),
(834,1497,o),
(621,1497,cs),
(422,1497,o),
(227,1383,o),
(137,1283,c),
(163,1239,l),
(260,1315,o),
(429,1397,o),
(570,1397,cs),
(751,1397,o),
(859,1281,o),
(859,1110,cs),
(859,736,o),
(341,265,o),
(-6,35,c),
(3,0,l)
);
}
);
width = 1075;
},
{
layerId = "8587C386-9485-4E77-8679-63F1A494C2C0";
shapes = (
{
closed = 1;
nodes = (
(838,0,l),
(911,276,l),
(834,304,l),
(748,134,l),
(157,94,l),
(412,281,o),
(964,753,o),
(964,1126,cs),
(964,1331,o),
(835,1494,o),
(594,1494,cs),
(404,1494,o),
(221,1373,o),
(174,1302,c),
(216,1228,l),
(250,1291,o),
(408,1384,o),
(541,1384,cs),
(725,1384,o),
(799,1281,o),
(799,1125,cs),
(799,760,o),
(272,249,o),
(-23,70,c),
(-8,0,l)
);
}
);
width = 1003;
},
{
layerId = "F8806197-5953-4DD8-B2B5-EF301301BB43";
shapes = (
{
closed = 1;
nodes = (
(929,0,l),
(1027,387,l),
(879,421,l),
(781,239,l),
(222,167,l),
(491,351,o),
(1045,760,o),
(1045,1136,cs),
(1045,1311,o),
(931,1502,o),
(629,1502,cs),
(359,1502,o),
(180,1352,o),
(140,1296,c),
(211,1177,l),
(250,1229,o),
(359,1315,o),
(506,1315,cs),
(679,1315,o),
(736,1211,o),
(733,1104,cs),
(724,778,o),
(276,347,o),
(-27,143,c),
(18,0,l)
);
}
);
width = 1076;
},
{
layerId = "F318CEA5-7792-49D8-B68D-92025E304353";
shapes = (
{
closed = 1;
nodes = (
(843,0,l),
(925,303,l),
(866,325,l),
(758,140,l),
(135,76,l),
(394,269,o),
(941,735,o),
(941,1140,cs),
(941,1380,o),
(785,1497,o),
(577,1497,cs),
(381,1497,o),
(230,1382,o),
(142,1283,c),
(166,1239,l),
(259,1314,o),
(375,1397,o),
(527,1397,cs),
(714,1397,o),
(776,1269,o),
(776,1098,cs),
(776,734,o),
(306,265,o),
(-2,35,c),
(6,0,l)
);
}
);
width = 987;
},
{
layerId = "7A2136B0-3E1D-476B-B826-4714342A6FC2";
shapes = (
{
closed = 1;
nodes = (
(882,0,l),
(990,450,l),
(933,474,l),
(838,314,l),
(113,199,l),
(568,485,o),
(1005,770,o),
(1005,1147,cs),
(1005,1390,o),
(805,1502,o),
(603,1502,cs),
(425,1502,o),
(217,1400,o),
(129,1261,c),
(150,1219,l),
(249,1313,o),
(346,1345,o),
(428,1345,cs),
(554,1345,o),
(649,1261,o),
(649,1102,cs),
(649,794,o),
(290,380,o),
(-33,151,c),
(33,0,l)
);
}
);
width = 1044;
}
);
unicode = 50;
}
{
glyphname = three;
layers = (
{
layerId = "0C3FD5EE-D923-4A4A-8FDE-164881635915";
shapes = (
{
closed = 1;
nodes = (
(547,-6,o),
(906,200,o),
(905,503,cs),
(904,676,o),
(818,808,o),
(558,800,c),
(740,866,o),
(918,1044,o),
(917,1205,cs),
(916,1396,o),
(758,1498,o),
(590,1498,cs),
(376,1498,o),
(214,1404,o),
(148,1340,c),
(182,1259,l),
(270,1322,o),
(380,1388,o),
(528,1388,cs),
(657,1388,o),
(748,1320,o),
(748,1188,cs),
(748,1010,o),
(524,844,o),
(274,788,c),
(264,690,l),
(288,698,o),
(406,728,o),
(432,738,c),
(646,736,o),
(728,638,o),
(729,476,cs),
(730,238,o),
(467,92,o),
(187,92,cs),
(149,92,o),
(95,96,o),
(47,102,c),
(34,8,l),
(95,0,o),
(149,-6,o),
(207,-6,cs)
);
}
);
width = 996;
},
{
layerId = "27298932-82AF-4578-9425-6304FDB19058";
shapes = (
{
closed = 1;
nodes = (
(710,-21,o),
(1010,198,o),
(1010,496,cs),
(1010,670,o),
(866,798,o),
(619,772,c),
(809,860,o),
(1023,1046,o),
(1023,1222,cs),
(1023,1404,o),
(877,1496,o),
(651,1496,cs),
(387,1496,o),
(217,1394,o),
(131,1312,c),
(189,1196,l),
(274,1264,o),
(386,1303,o),
(524,1303,cs),
(648,1303,o),
(688,1230,o),
(688,1158,cs),
(688,1004,o),
(519,855,o),
(295,803,c),
(273,648,l),
(307,658,o),
(345,670,o),
(381,680,c),
(602,704,o),
(672,599,o),
(672,495,cs),
(672,319,o),
(534,147,o),
(274,147,cs),
(160,147,o),
(104,163,o),
(66,173,c),
(24,15,l),
(70,5,o),
(148,-21,o),
(272,-21,cs)
);
}
);
width = 1078;
},
{
layerId = "9079322E-D2EB-4437-A6B9-48C6726F1892";
shapes = (
{
closed = 1;
nodes = (
(777,-21,o),
(1072,199,o),
(1072,514,cs),
(1072,695,o),
(915,812,o),
(667,781,c),
(883,859,o),
(1084,1043,o),
(1084,1219,cs),
(1084,1404,o),
(894,1496,o),
(682,1496,cs),
(426,1496,o),
(215,1383,o),
(140,1315,c),
(196,1193,l),
(293,1262,o),
(415,1303,o),
(551,1303,cs),
(698,1303,o),
(742,1223,o),
(742,1153,cs),
(742,1004,o),
(583,875,o),
(307,808,c),
(287,648,l),
(322,659,o),
(374,673,o),
(412,683,c),
(645,730,o),
(721,605,o),
(721,504,cs),
(721,335,o),
(624,162,o),
(285,162,cs),
(155,162,o),
(86,184,o),
(42,198,c),
(1,34,l),
(57,20,o),
(170,-21,o),
(337,-21,cs)
);
}
);
width = 1138;
},
{
layerId = "AB43ED1F-BEAA-4517-9B18-06741265F15E";
shapes = (
{
closed = 1;
nodes = (
(652,-6,o),
(959,221,o),
(954,503,cs),
(951,678,o),
(845,798,o),
(577,799,c),
(838,868,o),
(983,1045,o),
(980,1205,cs),
(976,1396,o),
(811,1498,o),
(623,1498,cs),
(415,1498,o),
(231,1405,o),
(157,1339,c),
(194,1257,l),
(284,1317,o),
(409,1386,o),
(565,1386,cs),
(708,1386,o),
(791,1311,o),
(791,1186,cs),
(791,1015,o),
(614,847,o),
(276,789,c),
(268,689,l),
(292,697,o),
(424,726,o),
(450,736,c),
(684,736,o),
(752,634,o),
(756,479,cs),
(761,258,o),
(528,93,o),
(228,93,cs),
(148,93,o),
(90,98,o),
(41,104,c),
(29,11,l),
(94,3,o),
(155,-6,o),
(252,-6,cs)
);
}
);
width = 1056;
},
{
guides = (
{
pos = (336,1349);
},
{
pos = (109,51);
}
);
layerId = "0E81F995-ADCA-4265-BF48-502C19DBCB17";
shapes = (
{
closed = 1;
nodes = (
(607,-14,o),
(965,183,o),
(965,453,cs),
(965,704,o),
(738,788,o),
(458,739,c),
(779,833,o),
(986,990,o),
(986,1218,cs),
(986,1366,o),
(858,1496,o),
(612,1496,cs),
(391,1496,o),
(200,1385,o),
(101,1274,c),
(125,1227,l),
(221,1295,o),
(313,1343,o),
(435,1343,cs),
(527,1343,o),
(640,1285,o),
(640,1161,cs),
(640,981,o),
(499,816,o),
(259,741,c),
(250,685,l),
(285,695,o),
(323,704,o),
(390,714,c),
(545,701,o),
(580,607,o),
(580,480,cs),
(580,256,o),
(392,71,o),
(162,71,cs),
(77,71,o),
(25,83,o),
(-31,105,c),
(-45,54,l),
(44,10,o),
(133,-14,o),
(292,-14,cs)
);
}
);
width = 1008;
},
{
layerId = "10D406F4-E64B-40B9-806E-EB589F33F511";
shapes = (
{
closed = 1;
nodes = (
(572,-16,o),
(917,147,o),
(917,480,cs),
(917,633,o),
(774,812,o),
(458,779,c),
(772,855,o),
(930,1061,o),
(930,1232,cs),
(930,1419,o),
(766,1497,o),
(588,1497,cs),
(433,1497,o),
(272,1417,o),
(161,1318,c),
(182,1272,l),
(270,1344,o),
(413,1400,o),
(541,1400,cs),
(674,1400,o),
(766,1339,o),
(766,1197,cs),
(766,1014,o),
(579,849,o),
(267,779,c),
(261,715,l),
(285,723,o),
(349,738,o),
(375,748,c),
(618,750,o),
(756,644,o),
(756,451,cs),
(756,203,o),
(464,47,o),
(215,47,cs),
(164,47,o),
(78,51,o),
(26,65,c),
(20,15,l),
(80,-6,o),
(170,-16,o),
(241,-16,cs)
);
}
);
width = 985;
},
{
layerId = "2795BD5C-FE1E-44B5-B1D3-799347E852FC";
shapes = (
{
closed = 1;
nodes = (
(678,-14,o),
(1032,178,o),
(1032,448,cs),
(1032,699,o),
(842,814,o),
(532,774,c),
(851,846,o),
(1052,1008,o),
(1052,1230,cs),
(1052,1371,o),
(927,1496,o),
(664,1496,cs),
(426,1496,o),
(211,1375,o),
(116,1274,c),
(142,1227,l),
(245,1295,o),
(354,1339,o),
(471,1339,cs),
(562,1339,o),
(672,1297,o),
(672,1150,cs),
(672,990,o),
(548,821,o),
(270,746,c),
(261,690,l),
(298,700,o),
(345,706,o),
(368,714,c),
(576,711,o),
(612,582,o),
(612,455,cs),
(612,231,o),
(408,71,o),
(191,71,cs),
(101,71,o),
(35,83,o),
(-25,105,c),
(-40,54,l),
(55,10,o),
(150,-14,o),
(321,-14,cs)
);
}
);
width = 1072;
},
{
layerId = "95CCB04D-97EC-4126-A206-216E0B8EC505";
shapes = (
{
closed = 1;
nodes = (
(568,-16,o),
(934,147,o),
(934,480,cs),
(934,633,o),
(822,822,o),
(447,779,c),
(780,855,o),
(948,1061,o),
(948,1232,cs),
(948,1419,o),
(774,1497,o),
(585,1497,cs),
(421,1497,o),
(250,1417,o),
(132,1318,c),
(155,1272,l),
(248,1344,o),
(410,1400,o),
(545,1400,cs),
(686,1400,o),
(784,1339,o),
(784,1197,cs),
(784,1014,o),
(576,849,o),
(245,779,c),
(238,715,l),
(264,723,o),
(332,738,o),
(359,748,c),
(657,760,o),
(768,644,o),
(768,481,cs),
(768,203,o),
(454,44,o),
(190,44,cs),
(136,44,o),
(44,51,o),
(-11,65,c),
(-17,15,l),
(47,-6,o),
(142,-16,o),
(217,-16,cs)
);
}
);
width = 998;
},
{
layerId = "8587C386-9485-4E77-8679-63F1A494C2C0";
shapes = (
{
closed = 1;
nodes = (
(507,-6,o),
(835,201,o),
(835,507,cs),
(835,677,o),
(756,808,o),
(524,800,c),
(690,866,o),
(853,1046,o),
(853,1208,cs),
(853,1397,o),
(714,1498,o),
(560,1498,cs),
(365,1498,o),
(213,1404,o),
(153,1340,c),
(185,1257,l),
(265,1320,o),
(364,1386,o),
(496,1386,cs),
(610,1386,o),
(686,1319,o),
(686,1192,cs),
(686,1012,o),
(485,844,o),
(262,788,c),
(250,690,l),
(273,698,o),
(374,726,o),
(398,736,c),
(590,736,o),
(663,637,o),
(663,480,cs),
(663,240,o),
(434,94,o),
(182,94,cs),
(136,94,o),
(87,98,o),
(49,104,c),
(33,8,l),
(86,0,o),
(139,-6,o),
(197,-6,cs)
);
}
);
width = 932;
},
{
layerId = "F8806197-5953-4DD8-B2B5-EF301301BB43";
shapes = (
{
closed = 1;
nodes = (
(646,-21,o),
(949,209,o),
(949,526,cs),
(949,695,o),
(823,808,o),
(615,782,c),
(779,859,o),
(967,1038,o),
(967,1218,cs),
(967,1396,o),
(814,1496,o),
(632,1496,cs),
(372,1496,o),
(203,1385,o),
(136,1317,c),
(185,1197,l),
(268,1264,o),
(379,1311,o),
(486,1303,cs),
(622,1293,o),
(656,1218,o),
(656,1150,cs),
(656,993,o),
(488,855,o),
(275,803,c),
(251,648,l),
(283,658,o),
(304,669,o),
(338,679,c),
(550,700,o),
(633,607,o),
(633,509,cs),
(633,334,o),
(515,159,o),
(256,159,cs),
(136,159,o),
(81,173,o),
(47,183,c),
(1,24,l),
(40,14,o),
(126,-21,o),
(255,-21,cs)
);
}
);
width = 1007;
},
{
layerId = "F318CEA5-7792-49D8-B68D-92025E304353";
shapes = (
{
closed = 1;
nodes = (
(494,-16,o),
(825,167,o),
(825,480,cs),
(825,633,o),
(692,812,o),
(398,779,c),
(690,855,o),
(837,1061,o),
(837,1232,cs),
(837,1419,o),
(685,1497,o),
(519,1497,cs),
(375,1497,o),
(225,1417,o),
(122,1318,c),
(142,1272,l),
(223,1344,o),
(356,1400,o),
(476,1400,cs),
(599,1400,o),
(685,1339,o),
(685,1197,cs),
(685,1014,o),
(511,849,o),
(221,779,c),
(215,715,l),
(237,723,o),
(297,738,o),
(321,748,c),
(547,750,o),
(675,644,o),
(675,481,cs),
(675,223,o),
(394,44,o),
(172,44,cs),
(125,44,o),
(45,51,o),
(-3,65,c),
(-9,15,l),
(47,-6,o),
(130,-16,o),
(197,-16,cs)
);
}
);
width = 873;
},
{
layerId = "7A2136B0-3E1D-476B-B826-4714342A6FC2";
shapes = (
{
closed = 1;
nodes = (
(586,-14,o),
(898,191,o),
(898,461,cs),
(898,712,o),
(679,788,o),
(393,739,c),
(747,833,o),
(928,1030,o),
(928,1218,cs),
(928,1366,o),
(809,1496,o),
(573,1496,cs),
(381,1496,o),
(218,1405,o),
(103,1294,c),
(124,1250,l),
(215,1314,o),
(313,1344,o),
(400,1344,cs),
(507,1344,o),
(578,1285,o),
(578,1161,cs),
(578,1001,o),
(452,810,o),
(205,735,c),
(196,679,l),
(230,689,o),
(273,704,o),
(308,714,c),
(484,721,o),
(514,582,o),
(514,455,cs),
(514,211,o),
(349,71,o),
(160,71,cs),
(79,71,o),
(30,80,o),
(-24,102,c),
(-37,51,l),
(48,7,o),
(130,-14,o),
(267,-14,cs)
);
}
);
width = 937;
}
);
unicode = 51;
}
{
glyphname = six;
layers = (
{
layerId = "0C3FD5EE-D923-4A4A-8FDE-164881635915";
shapes = (
{
closed = 1;
nodes = (
(842,-20,o),
(1060,278,o),
(1060,578,cs),
(1060,780,o),
(950,954,o),
(694,954,cs),
(502,954,o),
(392,864,o),
(326,796,c),
(422,1076,o),
(678,1354,o),
(984,1462,c),
(958,1534,l),
(478,1400,o),
(106,939,o),
(106,467,cs),
(106,207,o),
(266,-20,o),
(516,-20,cs)
);
},
{
closed = 1;
nodes = (
(378,68,o),
(280,240,o),
(280,440,cs),
(280,522,o),
(292,602,o),
(310,676,c),
(352,728,o),
(442,854,o),
(654,854,cs),
(806,854,o),
(879,736,o),
(879,542,cs),
(879,336,o),
(786,68,o),
(546,68,cs)
);
}
);
width = 1153;
},
{
layerId = "27298932-82AF-4578-9425-6304FDB19058";
shapes = (
{
closed = 1;
nodes = (
(873,-28,o),
(1128,262,o),
(1128,590,cs),
(1128,805,o),
(971,964,o),
(740,964,cs),
(599,964,o),
(496,907,o),
(445,843,c),
(505,1055,o),
(752,1321,o),
(1011,1398,c),
(959,1526,l),
(455,1408,o),
(60,975,o),
(60,499,cs),
(60,208,o),
(231,-28,o),
(563,-28,cs)
);
},
{
closed = 1;
nodes = (
(423,105,o),
(386,260,o),
(386,404,cs),
(386,490,o),
(394,557,o),
(413,659,c),
(446,711,o),
(527,786,o),
(632,786,cs),
(715,786,o),
(802,724,o),
(802,530,cs),
(802,344,o),
(727,105,o),
(561,105,cs)
);
}
);
width = 1179;
},
{
layerId = "9079322E-D2EB-4437-A6B9-48C6726F1892";
shapes = (
{
closed = 1;
nodes = (
(913,-28,o),
(1169,262,o),
(1169,570,cs),
(1169,805,o),
(1020,964,o),
(763,964,cs),
(609,964,o),
(493,907,o),
(438,843,c),
(502,1055,o),
(723,1321,o),
(1061,1398,c),
(1005,1526,l),
(376,1398,o),
(49,955,o),
(49,519,cs),
(49,248,o),
(226,-28,o),
(571,-28,cs)
);
},
{
closed = 1;
nodes = (
(406,105,o),
(377,280,o),
(377,404,cs),
(377,510,o),
(377,560,o),
(403,659,c),
(439,711,o),
(531,786,o),
(645,786,cs),
(736,786,o),
(833,724,o),
(833,530,cs),
(833,344,o),
(760,105,o),
(578,105,cs)
);
}
);
width = 1215;
},
{
layerId = "AB43ED1F-BEAA-4517-9B18-06741265F15E";
shapes = (
{
closed = 1;
nodes = (
(873,-20,o),
(1105,268,o),
(1105,568,cs),
(1105,770,o),
(993,954,o),
(724,954,cs),
(526,954,o),
(400,854,o),
(330,786,c),
(431,1066,o),
(681,1354,o),
(1022,1462,c),
(995,1534,l),
(471,1400,o),
(107,942,o),
(107,470,cs),
(107,200,o),
(257,-20,o),
(540,-20,cs)
);
},
{
closed = 1;
nodes = (
(375,68,o),
(282,220,o),
(282,440,cs),
(282,522,o),
(295,602,o),
(314,676,c),
(358,728,o),
(453,854,o),
(675,854,cs),
(835,854,o),
(925,736,o),
(925,542,cs),
(925,336,o),
(814,68,o),
(572,68,cs)
);
}
);
width = 1189;
},
{
layerId = "0E81F995-ADCA-4265-BF48-502C19DBCB17";
shapes = (
{
closed = 1;
nodes = (
(924,-29,o),
(1162,220,o),
(1162,585,cs),
(1162,825,o),
(1012,963,o),
(826,963,cs),
(683,963,o),
(512,877,o),
(449,757,c),
(502,1086,o),
(700,1403,o),
(1022,1477,c),
(1001,1523,l),
(482,1484,o),
(66,1068,o),
(66,557,cs),
(66,243,o),
(238,-29,o),
(576,-29,cs)
);
},
{
closed = 1;
nodes = (
(476,30,o),
(419,152,o),
(419,405,cs),
(419,504,o),
(427,602,o),
(441,695,c),
(493,771,o),
(568,810,o),
(647,810,cs),
(735,810,o),
(805,712,o),
(805,514,cs),
(805,208,o),
(718,30,o),
(590,30,cs)
);
}
);
width = 1198;
},
{
guides = (
{
pos = (762,950);
}
);
layerId = "10D406F4-E64B-40B9-806E-EB589F33F511";
shapes = (
{
closed = 1;
nodes = (
(838,-20,o),
(1038,287,o),
(1038,559,cs),
(1038,815,o),
(878,954,o),
(665,954,cs),
(530,954,o),
(387,895,o),
(291,760,c),
(377,1080,o),
(594,1382,o),
(956,1486,c),
(938,1534,l),
(458,1445,o),
(90,985,o),
(90,509,cs),
(90,257,o),
(203,-20,o),
(512,-20,cs)
);
},
{
closed = 1;
nodes = (
(331,31,o),
(245,236,o),
(245,511,cs),
(245,569,o),
(259,629,o),
(271,669,c),
(362,816,o),
(506,885,o),
(614,885,cs),
(753,885,o),
(878,764,o),
(878,522,cs),
(878,290,o),
(739,26,o),
(514,26,cs)
);
}
);
width = 1091;
},
{
layerId = "2795BD5C-FE1E-44B5-B1D3-799347E852FC";
shapes = (
{
closed = 1;
nodes = (
(994,-29,o),
(1262,220,o),
(1262,585,cs),
(1262,825,o),
(1101,963,o),
(901,963,cs),
(724,963,o),
(559,877,o),
(491,757,c),
(548,1086,o),
(762,1403,o),
(1111,1477,c),
(1088,1523,l),
(526,1484,o),
(76,1068,o),
(76,557,cs),
(76,243,o),
(262,-29,o),
(625,-29,cs)
);
},
{
closed = 1;
nodes = (
(520,30,o),
(458,152,o),
(458,405,cs),
(458,504,o),
(467,602,o),
(482,695,c),
(538,771,o),
(619,810,o),
(705,810,cs),
(800,810,o),
(876,712,o),
(876,514,cs),
(876,208,o),
(782,30,o),
(640,30,cs)
);
}
);
width = 1310;
},
{
layerId = "95CCB04D-97EC-4126-A206-216E0B8EC505";
shapes = (
{
closed = 1;
nodes = (
(869,-20,o),
(1091,287,o),
(1091,559,cs),
(1091,815,o),
(944,954,o),
(709,954,cs),
(546,954,o),
(398,884,o),
(296,760,c),
(387,1080,o),
(620,1382,o),
(1004,1486,c),
(985,1534,l),
(476,1445,o),
(86,985,o),
(86,509,cs),
(86,267,o),
(206,-20,o),
(533,-20,cs)
);
},
{
closed = 1;
nodes = (
(342,26,o),
(247,245,o),
(247,497,cs),
(247,569,o),
(262,629,o),
(275,669,c),
(371,816,o),
(527,885,o),
(651,885,cs),
(806,885,o),
(927,764,o),
(927,522,cs),
(927,286,o),
(770,26,o),
(538,26,cs)
);
}
);
width = 1143;
},
{
layerId = "8587C386-9485-4E77-8679-63F1A494C2C0";
shapes = (
{
closed = 1;
nodes = (
(781,-20,o),
(998,281,o),
(998,585,cs),
(998,784,o),
(889,954,o),
(656,954,cs),
(482,954,o),
(366,865,o),
(304,798,c),
(394,1074,o),
(631,1352,o),
(903,1460,c),
(878,1534,l),
(439,1399,o),
(90,922,o),
(90,450,cs),
(90,185,o),
(228,-20,o),
(480,-20,cs)
);
},
{
closed = 1;
nodes = (
(339,68,o),
(257,215,o),
(257,428,cs),
(257,507,o),
(268,594,o),
(287,676,c),
(328,730,o),
(421,852,o),
(614,852,cs),
(748,852,o),
(832,738,o),
(832,550,cs),
(832,339,o),
(725,68,o),
(507,68,cs)
);
}
);
width = 1077;
},
{
layerId = "F8806197-5953-4DD8-B2B5-EF301301BB43";
shapes = (
{
closed = 1;
nodes = (
(827,-28,o),
(1064,262,o),
(1064,590,cs),
(1064,805,o),
(938,964,o),
(714,964,cs),
(581,964,o),
(462,897,o),
(414,833,c),
(469,1055,o),
(706,1321,o),
(955,1398,c),
(907,1526,l),
(432,1408,o),
(62,1031,o),
(62,515,cs),
(62,194,o),
(271,-28,o),
(542,-28,cs)
);
},
{
closed = 1;
nodes = (
(409,105,o),
(368,250,o),
(368,414,cs),
(368,500,o),
(376,557,o),
(393,659,c),
(424,711,o),
(491,786,o),
(596,786,cs),
(679,786,o),
(761,724,o),
(761,530,cs),
(761,344,o),
(695,105,o),
(540,105,cs)
);
}
);
width = 1102;
},
{
layerId = "F318CEA5-7792-49D8-B68D-92025E304353";
shapes = (
{
closed = 1;
nodes = (
(801,-20,o),
(989,287,o),
(989,559,cs),
(989,815,o),
(839,954,o),
(639,954,cs),
(512,954,o),
(379,895,o),
(289,760,c),
(370,1080,o),
(572,1382,o),
(912,1486,c),
(895,1534,l),
(444,1445,o),
(98,985,o),
(98,509,cs),
(98,257,o),
(204,-20,o),
(495,-20,cs)
);
},
{
closed = 1;
nodes = (
(326,34,o),
(246,238,o),
(246,511,cs),
(246,569,o),
(259,629,o),
(270,669,c),
(356,816,o),
(489,885,o),
(591,885,cs),
(721,885,o),
(835,764,o),
(835,522,cs),
(835,295,o),
(712,26,o),
(494,26,cs)
);
}
);
width = 1042;
},
{
layerId = "7A2136B0-3E1D-476B-B826-4714342A6FC2";
shapes = (
{
closed = 1;
nodes = (
(872,-29,o),
(1129,239,o),
(1129,598,cs),
(1129,836,o),
(985,963,o),
(781,963,cs),
(656,963,o),
(506,884,o),
(447,753,c),
(482,1028,o),
(682,1407,o),
(972,1481,c),
(955,1523,l),
(467,1487,o),
(71,1059,o),
(71,551,cs),
(71,239,o),
(237,-29,o),
(552,-29,cs)
);
},
{
closed = 1;
nodes = (
(473,26,o),
(424,152,o),
(424,414,cs),
(424,568,o),
(429,604,o),
(440,697,c),
(487,776,o),
(582,810,o),
(625,810,cs),
(733,810,o),
(778,687,o),
(778,522,cs),
(778,208,o),
(677,26,o),
(573,26,cs)
);
}
);
width = 1143;
}
);
unicode = 54;
}
{
glyphname = eight;
layers = (
{
layerId = "0C3FD5EE-D923-4A4A-8FDE-164881635915";
shapes = (
{
closed = 1;
nodes = (
(744,-18,o),
(988,126,o),
(988,384,cs),
(988,550,o),
(873,690,o),
(721,780,c),
(929,878,o),
(1065,1014,o),
(1065,1200,cs),
(1065,1388,o),
(895,1502,o),
(679,1502,cs),
(429,1502,o),
(247,1356,o),
(247,1134,cs),
(247,978,o),
(339,851,o),
(471,767,c),
(257,675,o),
(73,542,o),
(73,328,cs),
(73,84,o),
(292,-18,o),
(486,-18,cs)
);
},
{
closed = 1;
nodes = (
(520,912,o),
(397,1010,o),
(397,1150,cs),
(397,1314,o),
(499,1420,o),
(663,1420,cs),
(809,1420,o),
(913,1346,o),
(913,1182,cs),
(913,1022,o),
(808,894,o),
(644,826,c)
);
},
{
closed = 1;
nodes = (
(338,72,o),
(237,186,o),
(237,352,cs),
(237,528,o),
(385,649,o),
(533,713,c),
(709,609,o),
(828,506,o),
(828,360,cs),
(828,182,o),
(686,72,o),
(512,72,cs)
);
}
);
width = 1116;
},
{
layerId = "27298932-82AF-4578-9425-6304FDB19058";
shapes = (
{
closed = 1;
nodes = (
(861,-23,o),
(1088,147,o),
(1087,413,cs),
(1086,601,o),
(951,710,o),
(810,810,c),
(1011,902,o),
(1147,1044,o),
(1145,1204,cs),
(1143,1360,o),
(993,1502,o),
(701,1502,cs),
(402,1502,o),
(188,1326,o),
(190,1126,cs),
(192,954,o),
(312,839,o),
(415,753,c),
(212,695,o),
(27,540,o),
(30,350,cs),
(32,82,o),
(289,-23,o),
(522,-23,cs)
);
},
{
closed = 1;
nodes = (
(560,990,o),
(491,1070,o),
(490,1174,cs),
(489,1312,o),
(578,1392,o),
(700,1392,cs),
(798,1392,o),
(885,1340,o),
(886,1210,cs),
(887,1060,o),
(787,964,o),
(686,906,c)
);
},
{
closed = 1;
nodes = (
(382,99,o),
(314,206,o),
(313,334,cs),
(312,492,o),
(445,613,o),
(551,659,c),
(697,547,o),
(771,490,o),
(772,348,cs),
(773,190,o),
(692,99,o),
(542,99,cs)
);
}
);
width = 1166;
},
{
layerId = "9079322E-D2EB-4437-A6B9-48C6726F1892";
shapes = (
{
closed = 1;
nodes = (
(919,-30,o),
(1181,147,o),
(1181,411,cs),
(1181,591,o),
(1036,698,o),
(871,801,c),
(1099,872,o),
(1223,1044,o),
(1223,1202,cs),
(1223,1357,o),
(1061,1502,o),
(763,1502,cs),
(415,1502,o),
(211,1326,o),
(211,1128,cs),
(211,963,o),
(337,832,o),
(442,752,c),
(194,695,o),
(40,542,o),
(40,356,cs),
(40,84,o),
(314,-30,o),
(563,-30,cs)
);
},
{
closed = 1;
nodes = (
(599,986,o),
(513,1065,o),
(513,1179,cs),
(513,1313,o),
(617,1390,o),
(752,1390,cs),
(861,1390,o),
(952,1340,o),
(952,1208,cs),
(952,1063,o),
(886,958,o),
(739,901,c)
);
},
{
closed = 1;
nodes = (
(449,95,o),
(347,208,o),
(347,337,cs),
(347,479,o),
(411,607,o),
(565,655,c),
(735,542,o),
(858,495,o),
(858,338,cs),
(858,185,o),
(747,95,o),
(584,95,cs)
);
}
);
width = 1268;
},
{
layerId = "AB43ED1F-BEAA-4517-9B18-06741265F15E";
shapes = (
{
closed = 1;
nodes = (
(822,-18,o),
(1084,126,o),
(1084,384,cs),
(1084,550,o),
(924,680,o),
(766,780,c),
(997,878,o),
(1159,1014,o),
(1159,1200,cs),
(1159,1388,o),
(970,1502,o),
(751,1502,cs),
(461,1502,o),
(248,1351,o),
(248,1139,cs),
(248,983,o),
(386,860,o),
(501,776,c),
(261,694,o),
(77,548,o),
(77,334,cs),
(77,90,o),
(319,-18,o),
(535,-18,cs)
);
},
{
closed = 1;
nodes = (
(552,912,o),
(414,1015,o),
(414,1155,cs),
(414,1309,o),
(551,1420,o),
(734,1420,cs),
(873,1420,o),
(990,1346,o),
(990,1182,cs),
(990,1022,o),
(872,894,o),
(690,826,c)
);
},
{
closed = 1;
nodes = (
(370,72,o),
(257,192,o),
(257,358,cs),
(257,534,o),
(400,668,o),
(565,722,c),
(750,608,o),
(909,506,o),
(909,360,cs),
(909,182,o),
(758,72,o),
(564,72,cs)
);
}
);
width = 1215;
},
{
layerId = "0E81F995-ADCA-4265-BF48-502C19DBCB17";
shapes = (
{
closed = 1;
nodes = (
(864,-20,o),
(1079,188,o),
(1082,412,cs),
(1085,605,o),
(954,718,o),
(780,836,c),
(966,874,o),
(1140,1010,o),
(1143,1200,cs),
(1146,1396,o),
(929,1502,o),
(716,1502,cs),
(389,1502,o),
(187,1289,o),
(183,1053,cs),
(181,927,o),
(256,806,o),
(397,699,c),
(199,669,o),
(31,534,o),
(31,340,cs),
(31,100,o),
(310,-20,o),
(529,-20,cs)
);
},
{
closed = 1;
nodes = (
(605,949,o),
(489,1054,o),
(489,1219,cs),
(489,1365,o),
(591,1445,o),
(704,1445,cs),
(836,1445,o),
(898,1333,o),
(896,1188,cs),
(894,1068,o),
(838,930,o),
(749,862,c)
);
},
{
closed = 1;
nodes = (
(395,28,o),
(288,158,o),
(288,334,cs),
(288,485,o),
(333,616,o),
(426,675,c),
(595,561,o),
(748,436,o),
(748,286,cs),
(748,138,o),
(669,48,o),
(549,39,cs)
);
}
);
width = 1147;
},
{
layerId = "10D406F4-E64B-40B9-806E-EB589F33F511";
shapes = (
{
closed = 1;
nodes = (
(790,-18,o),
(972,181,o),
(974,380,cs),
(976,568,o),
(850,688,o),
(679,794,c),
(919,876,o),
(1040,1043,o),
(1041,1196,cs),
(1042,1408,o),
(863,1507,o),
(678,1507,cs),
(466,1507,o),
(235,1372,o),
(231,1122,cs),
(229,987,o),
(314,870,o),
(470,755,c),
(168,685,o),
(58,506,o),
(56,340,cs),
(54,160,o),
(226,-18,o),
(469,-18,cs)
);
},
{
closed = 1;
nodes = (
(458,926,o),
(375,1021,o),
(377,1169,cs),
(380,1364,o),
(522,1461,o),
(667,1461,cs),
(817,1461,o),
(902,1345,o),
(901,1200,cs),
(900,1054,o),
(817,893,o),
(653,813,c)
);
},
{
closed = 1;
nodes = (
(321,28,o),
(207,188,o),
(208,349,cs),
(209,501,o),
(271,668,o),
(499,733,c),
(644,630,o),
(821,531,o),
(819,321,cs),
(817,117,o),
(658,28,o),
(488,28,cs)
);
}
);
width = 1068;
},
{
layerId = "2795BD5C-FE1E-44B5-B1D3-799347E852FC";
shapes = (
{
closed = 1;
nodes = (
(932,-20,o),
(1171,178,o),
(1174,402,cs),
(1177,595,o),
(1056,728,o),
(858,836,c),
(1069,884,o),
(1224,1010,o),
(1227,1200,cs),
(1230,1396,o),
(1006,1502,o),
(777,1502,cs),
(414,1502,o),
(203,1295,o),
(199,1059,cs),
(197,933,o),
(264,796,o),
(410,699,c),
(196,656,o),
(28,529,o),
(28,335,cs),
(28,95,o),
(312,-20,o),
(538,-20,cs)
);
},
{
closed = 1;
nodes = (
(677,959,o),
(529,1066,o),
(529,1231,cs),
(529,1377,o),
(644,1445,o),
(764,1445,cs),
(891,1445,o),
(985,1333,o),
(982,1188,cs),
(980,1078,o),
(929,940,o),
(822,862,c)
);
},
{
closed = 1;
nodes = (
(415,38,o),
(288,158,o),
(288,354,cs),
(288,485,o),
(331,605,o),
(431,677,c),
(614,553,o),
(811,426,o),
(811,276,cs),
(811,128,o),
(720,38,o),
(546,38,cs)
);
}
);
width = 1238;
},
{
layerId = "95CCB04D-97EC-4126-A206-216E0B8EC505";
shapes = (
{
closed = 1;
nodes = (
(849,-18,o),
(1023,181,o),
(1025,380,cs),
(1027,568,o),
(860,684,o),
(699,794,c),
(953,876,o),
(1087,1038,o),
(1088,1191,cs),
(1089,1403,o),
(889,1507,o),
(703,1507,cs),
(477,1507,o),
(232,1382,o),
(228,1132,cs),
(226,997,o),
(321,870,o),
(480,755,c),
(159,685,o),
(42,507,o),
(40,341,cs),
(38,151,o),
(231,-18,o),
(479,-18,cs)
);
},
{
closed = 1;
nodes = (
(465,926,o),
(379,1021,o),
(381,1169,cs),
(384,1364,o),
(537,1461,o),
(691,1461,cs),
(840,1461,o),
(940,1340,o),
(939,1195,cs),
(938,1049,o),
(846,893,o),
(672,813,c)
);
},
{
closed = 1;
nodes = (
(331,28,o),
(200,179,o),
(201,350,cs),
(202,502,o),
(267,668,o),
(509,733,c),
(666,633,o),
(864,531,o),
(862,321,cs),
(860,117,o),
(719,28,o),
(499,28,cs)
);
}
);
width = 1104;
},
{
layerId = "8587C386-9485-4E77-8679-63F1A494C2C0";
shapes = (
{
closed = 1;
nodes = (
(707,-18,o),
(930,129,o),
(930,388,cs),
(930,553,o),
(815,681,o),
(685,780,c),
(907,892,o),
(1018,1037,o),
(1018,1204,cs),
(1018,1389,o),
(864,1502,o),
(675,1502,cs),
(424,1502,o),
(246,1348,o),
(246,1130,cs),
(246,975,o),
(356,858,o),
(448,776,c),
(249,684,o),
(68,541,o),
(68,323,cs),
(68,83,o),
(278,-18,o),
(460,-18,cs)
);
},
{
closed = 1;
nodes = (
(504,912,o),
(393,1010,o),
(393,1147,cs),
(393,1307,o),
(505,1420,o),
(661,1420,cs),
(775,1420,o),
(871,1347,o),
(871,1187,cs),
(871,1020,o),
(762,893,o),
(617,828,c)
);
},
{
closed = 1;
nodes = (
(326,72,o),
(225,184,o),
(229,351,cs),
(233,530,o),
(366,658,o),
(501,720,c),
(651,609,o),
(772,508,o),
(772,363,cs),
(772,194,o),
(657,72,o),
(485,72,cs)
);
}
);
width = 1053;
},
{
layerId = "F8806197-5953-4DD8-B2B5-EF301301BB43";
shapes = (
{
closed = 1;
nodes = (
(813,-27,o),
(1045,148,o),
(1044,414,cs),
(1043,602,o),
(922,710,o),
(790,810,c),
(979,902,o),
(1101,1044,o),
(1099,1204,cs),
(1097,1360,o),
(955,1502,o),
(681,1502,cs),
(400,1502,o),
(181,1335,o),
(184,1115,cs),
(186,943,o),
(268,833,o),
(365,747,c),
(154,679,o),
(28,523,o),
(30,353,cs),
(33,85,o),
(294,-27,o),
(494,-27,cs)
);
},
{
closed = 1;
nodes = (
(544,990,o),
(483,1070,o),
(482,1174,cs),
(481,1312,o),
(565,1392,o),
(680,1392,cs),
(772,1392,o),
(854,1340,o),
(855,1210,cs),
(856,1060,o),
(757,964,o),
(662,906,c)
);
},
{
closed = 1;
nodes = (
(362,95,o),
(296,206,o),
(295,334,cs),
(294,492,o),
(378,597,o),
(488,663,c),
(645,541,o),
(754,470,o),
(755,348,cs),
(756,190,o),
(654,95,o),
(512,95,cs)
);
}
);
width = 1122;
},
{
layerId = "F318CEA5-7792-49D8-B68D-92025E304353";
shapes = (
{
closed = 1;
nodes = (
(752,-18,o),
(951,181,o),
(951,380,cs),
(951,568,o),
(816,688,o),
(655,794,c),
(883,876,o),
(999,1043,o),
(999,1196,cs),
(999,1408,o),
(832,1507,o),
(657,1507,cs),
(455,1507,o),
(229,1372,o),
(229,1122,cs),
(229,987,o),
(302,870,o),
(449,755,c),
(166,685,o),
(69,506,o),
(69,340,cs),
(69,160,o),
(216,-18,o),
(467,-18,cs)
);
},
{
closed = 1;
nodes = (
(445,926,o),
(370,1021,o),
(370,1169,cs),
(370,1364,o),
(508,1461,o),
(646,1461,cs),
(788,1461,o),
(866,1345,o),
(866,1200,cs),
(866,1054,o),
(786,893,o),
(629,813,c)
);
},
{
closed = 1;
nodes = (
(307,28,o),
(213,188,o),
(213,349,cs),
(213,501,o),
(266,668,o),
(478,733,c),
(623,630,o),
(802,531,o),
(802,321,cs),
(802,117,o),
(627,28,o),
(485,28,cs)
);
}
);
width = 1058;
},
{
layerId = "7A2136B0-3E1D-476B-B826-4714342A6FC2";
shapes = (
{
closed = 1;
nodes = (
(807,-20,o),
(1029,188,o),
(1033,412,cs),
(1036,601,o),
(902,728,o),
(738,846,c),
(915,884,o),
(1061,1010,o),
(1064,1200,cs),
(1067,1396,o),
(870,1502,o),
(668,1502,cs),
(367,1502,o),
(166,1289,o),
(162,1053,cs),
(160,927,o),
(233,796,o),
(355,689,c),
(167,646,o),
(25,534,o),
(25,340,cs),
(25,100,o),
(271,-20,o),
(470,-20,cs)
);
},
{
closed = 1;
nodes = (
(572,959,o),
(448,1064,o),
(448,1229,cs),
(448,1375,o),
(552,1445,o),
(657,1445,cs),
(768,1445,o),
(851,1333,o),
(848,1188,cs),
(846,1078,o),
(793,940,o),
(709,872,c)
);
},
{
closed = 1;
nodes = (
(367,38,o),
(255,158,o),
(255,334,cs),
(255,485,o),
(294,605,o),
(373,667,c),
(533,553,o),
(711,426,o),
(711,276,cs),
(711,128,o),
(644,38,o),
(482,38,cs)
);
}
);
width = 1092;
}
);
metricRight = "=|";
unicode = 56;
}
{
glyphname = nine;
layers = (
{
layerId = "0C3FD5EE-D923-4A4A-8FDE-164881635915";
shapes = (
{
closed = 1;
nodes = (
(779,59,o),
(1100,532,o),
(1100,1021,cs),
(1100,1286,o),
(957,1495,o),
(678,1493,cs),
(331,1491,o),
(145,1183,o),
(145,912,cs),
(145,718,o),
(269,517,o),
(509,517,cs),
(696,517,o),
(814,608,o),
(887,680,c),
(792,400,o),
(569,103,o),
(264,-3,c),
(291,-74,l)
);
},
{
closed = 1;
nodes = (
(403,618,o),
(307,743,o),
(307,946,cs),
(307,1141,o),
(409,1406,o),
(646,1406,cs),
(845,1406,o),
(930,1246,o),
(930,1039,cs),
(930,954,o),
(919,858,o),
(901,789,c),
(855,735,o),
(750,618,o),
(549,618,cs)
);
}
);
width = 1157;
},
{
layerId = "27298932-82AF-4578-9425-6304FDB19058";
shapes = (
{
closed = 1;
nodes = (
(802,80,o),
(1178,537,o),
(1181,988,cs),
(1183,1270,o),
(1009,1506,o),
(678,1505,cs),
(338,1504,o),
(109,1226,o),
(109,948,cs),
(109,683,o),
(278,516,o),
(509,516,cs),
(650,516,o),
(740,563,o),
(793,628,c),
(733,388,o),
(497,166,o),
(237,89,c),
(298,-39,l)
);
},
{
closed = 1;
nodes = (
(533,684,o),
(438,761,o),
(438,973,cs),
(438,1134,o),
(485,1372,o),
(680,1372,cs),
(809,1372,o),
(852,1231,o),
(852,1026,cs),
(852,956,o),
(845,883,o),
(825,801,c),
(790,749,o),
(721,684,o),
(616,684,cs)
);
}
);
width = 1189;
},
{
layerId = "9079322E-D2EB-4437-A6B9-48C6726F1892";
shapes = (
{
closed = 1;
nodes = (
(923,80,o),
(1250,488,o),
(1250,933,cs),
(1250,1283,o),
(1029,1505,o),
(704,1505,cs),
(367,1505,o),
(104,1240,o),
(104,975,cs),
(104,687,o),
(278,505,o),
(533,505,cs),
(691,505,o),
(795,559,o),
(854,624,c),
(788,387,o),
(574,161,o),
(232,86,c),
(295,-47,l)
);
},
{
closed = 1;
nodes = (
(514,690,o),
(441,810,o),
(441,1014,cs),
(441,1168,o),
(520,1368,o),
(705,1368,cs),
(843,1368,o),
(910,1249,o),
(910,1016,cs),
(910,950,o),
(902,891,o),
(884,812,c),
(846,763,o),
(769,690,o),
(640,690,cs)
);
}
);
width = 1253;
},
{
layerId = "AB43ED1F-BEAA-4517-9B18-06741265F15E";
shapes = (
{
closed = 1;
nodes = (
(832,69,o),
(1140,532,o),
(1140,1021,cs),
(1140,1286,o),
(990,1495,o),
(707,1493,cs),
(343,1491,o),
(134,1183,o),
(134,912,cs),
(134,718,o),
(246,517,o),
(519,517,cs),
(716,517,o),
(847,605,o),
(919,677,c),
(819,397,o),
(622,113,o),
(262,-3,c),
(290,-74,l)
);
},
{
closed = 1;
nodes = (
(408,618,o),
(311,743,o),
(311,946,cs),
(311,1141,o),
(425,1406,o),
(674,1406,cs),
(872,1406,o),
(964,1246,o),
(964,1039,cs),
(964,954,o),
(953,864,o),
(934,795,c),
(886,741,o),
(775,618,o),
(561,618,cs)
);
}
);
width = 1197;
},
{
layerId = "0E81F995-ADCA-4265-BF48-502C19DBCB17";
shapes = (
{
closed = 1;
nodes = (
(799,-10,o),
(1208,410,o),
(1208,936,cs),
(1208,1240,o),
(1047,1503,o),
(692,1503,cs),
(370,1503,o),
(107,1300,o),
(107,941,cs),
(107,706,o),
(258,504,o),
(478,504,cs),
(602,504,o),
(740,567,o),
(813,709,c),
(778,434,o),
(568,56,o),
(246,0,c),
(266,-49,l)
);
},
{
closed = 1;
nodes = (
(518,655,o),
(460,789,o),
(460,977,cs),
(460,1206,o),
(544,1448,o),
(690,1448,cs),
(804,1448,o),
(854,1295,o),
(854,1084,cs),
(854,947,o),
(840,872,o),
(818,770,c),
(760,689,o),
(673,655,o),
(621,655,cs)
);
}
);
width = 1208;
},
{
layerId = "10D406F4-E64B-40B9-806E-EB589F33F511";
shapes = (
{
closed = 1;
nodes = (
(756,59,o),
(1076,525,o),
(1076,986,cs),
(1076,1241,o),
(946,1493,o),
(640,1493,cs),
(331,1493,o),
(120,1229,o),
(120,931,cs),
(120,685,o),
(255,524,o),
(496,524,cs),
(674,524,o),
(808,652,o),
(882,748,c),
(801,407,o),
(602,137,o),
(254,-24,c),
(278,-74,l)
);
},
{
closed = 1;
nodes = (
(383,590,o),
(283,751,o),
(283,956,cs),
(283,1203,o),
(394,1442,o),
(635,1447,cs),
(897,1452,o),
(921,1160,o),
(914,992,cs),
(912,944,o),
(900,864,o),
(889,824,c),
(801,666,o),
(667,590,o),
(557,590,cs)
);
}
);
width = 1099;
},
{
layerId = "2795BD5C-FE1E-44B5-B1D3-799347E852FC";
shapes = (
{
closed = 1;
nodes = (
(896,-14,o),
(1320,396,o),
(1320,922,cs),
(1320,1239,o),
(1150,1504,o),
(746,1504,cs),
(409,1504,o),
(120,1308,o),
(120,949,cs),
(120,708,o),
(290,502,o),
(531,502,cs),
(672,502,o),
(819,560,o),
(898,706,c),
(857,436,o),
(632,52,o),
(275,1,c),
(298,-48,l)
);
},
{
closed = 1;
nodes = (
(581,661,o),
(508,793,o),
(508,988,cs),
(508,1211,o),
(600,1448,o),
(744,1448,cs),
(874,1448,o),
(938,1326,o),
(938,1072,cs),
(938,940,o),
(924,872,o),
(903,765,c),
(837,691,o),
(740,661,o),
(677,661,cs)
);
}
);
width = 1332;
},
{
layerId = "95CCB04D-97EC-4126-A206-216E0B8EC505";
shapes = (
{
closed = 1;
nodes = (
(766,34,o),
(1124,521,o),
(1124,977,cs),
(1124,1249,o),
(1003,1493,o),
(660,1493,cs),
(343,1493,o),
(120,1241,o),
(120,939,cs),
(120,686,o),
(276,524,o),
(519,524,cs),
(719,524,o),
(850,651,o),
(932,748,c),
(823,410,o),
(587,112,o),
(160,-6,c),
(189,-56,l)
);
},
{
closed = 1;
nodes = (
(404,589,o),
(281,752,o),
(281,965,cs),
(281,1219,o),
(405,1444,o),
(655,1449,cs),
(957,1454,o),
(968,1170,o),
(964,995,cs),
(963,949,o),
(950,862,o),
(939,825,c),
(841,666,o),
(704,589,o),
(575,589,cs)
);
}
);
width = 1144;
},
{
layerId = "8587C386-9485-4E77-8679-63F1A494C2C0";
shapes = (
{
closed = 1;
nodes = (
(718,58,o),
(1038,537,o),
(1038,1029,cs),
(1038,1291,o),
(901,1495,o),
(650,1493,cs),
(330,1491,o),
(131,1194,o),
(131,907,cs),
(131,715,o),
(235,517,o),
(472,517,cs),
(644,517,o),
(763,606,o),
(826,675,c),
(736,397,o),
(533,104,o),
(260,-1,c),
(287,-74,l)
);
},
{
closed = 1;
nodes = (
(385,620,o),
(291,741,o),
(291,939,cs),
(291,1150,o),
(405,1406,o),
(620,1406,cs),
(789,1406,o),
(871,1251,o),
(871,1049,cs),
(871,968,o),
(860,869,o),
(841,795,c),
(798,741,o),
(695,620,o),
(515,620,cs)
);
}
);
width = 1079;
},
{
layerId = "F8806197-5953-4DD8-B2B5-EF301301BB43";
shapes = (
{
closed = 1;
nodes = (
(684,80,o),
(1079,483,o),
(1079,963,cs),
(1079,1315,o),
(907,1504,o),
(609,1504,cs),
(340,1504,o),
(96,1272,o),
(96,952,cs),
(96,681,o),
(247,506,o),
(445,506,cs),
(566,506,o),
(659,573,o),
(701,628,c),
(651,379,o),
(387,168,o),
(165,90,c),
(224,-39,l)
);
},
{
closed = 1;
nodes = (
(498,685,o),
(412,756,o),
(412,986,cs),
(412,1219,o),
(481,1371,o),
(618,1371,cs),
(716,1371,o),
(761,1241,o),
(761,1069,cs),
(761,977,o),
(755,907,o),
(734,811,c),
(702,759,o),
(655,685,o),
(579,685,cs)
);
}
);
width = 1089;
},
{
layerId = "F318CEA5-7792-49D8-B68D-92025E304353";
shapes = (
{
closed = 1;
nodes = (
(704,34,o),
(982,525,o),
(982,986,cs),
(982,1251,o),
(863,1503,o),
(580,1503,cs),
(315,1503,o),
(120,1239,o),
(120,931,cs),
(120,685,o),
(245,524,o),
(447,524,cs),
(612,524,o),
(726,652,o),
(794,748,c),
(707,410,o),
(531,110,o),
(151,-6,c),
(174,-56,l)
);
},
{
closed = 1;
nodes = (
(377,590,o),
(276,751,o),
(276,956,cs),
(276,1213,o),
(386,1450,o),
(583,1455,cs),
(818,1461,o),
(830,1170,o),
(823,992,cs),
(821,944,o),
(811,864,o),
(801,824,c),
(722,666,o),
(611,590,o),
(513,590,cs)
);
}
);
width = 1015;
},
{
layerId = "7A2136B0-3E1D-476B-B826-4714342A6FC2";
shapes = (
{
closed = 1;
nodes = (
(743,-13,o),
(1135,426,o),
(1135,946,cs),
(1135,1243,o),
(985,1503,o),
(650,1503,cs),
(358,1503,o),
(86,1302,o),
(86,933,cs),
(86,704,o),
(235,504,o),
(436,504,cs),
(539,504,o),
(674,566,o),
(734,713,c),
(709,434,o),
(508,50,o),
(223,-4,c),
(238,-49,l)
);
},
{
closed = 1;
nodes = (
(487,654,o),
(445,785,o),
(445,962,cs),
(445,1249,o),
(524,1452,o),
(646,1452,cs),
(726,1452,o),
(777,1304,o),
(777,1096,cs),
(777,950,o),
(758,856,o),
(737,767,c),
(696,676,o),
(611,654,o),
(574,654,cs)
);
}
);
width = 1139;
}
);
metricLeft = "=|six";
metricRight = "=|six";
unicode = 57;
}
{
glyphname = equal;
layers = (
{
layerId = "0C3FD5EE-D923-4A4A-8FDE-164881635915";
shapes = (
{
closed = 1;
nodes = (
(211,830,l),
(1005,830,l),
(1019,957,l),
(223,957,l)
);
},
{
closed = 1;
nodes = (
(143,331,l),
(937,331,l),
(951,458,l),
(155,458,l)
);
}
);
width = 1136;
},
{
layerId = "27298932-82AF-4578-9425-6304FDB19058";
shapes = (
{
closed = 1;
nodes = (
(203,811,l),
(1004,811,l),
(1030,1001,l),
(229,1001,l)
);
},
{
closed = 1;
nodes = (
(132,284,l),
(933,284,l),
(959,474,l),
(157,474,l)
);
}
);
width = 1138;
},
{
layerId = "9079322E-D2EB-4437-A6B9-48C6726F1892";
shapes = (
{
closed = 1;
nodes = (
(199,811,l),
(1080,811,l),
(1106,1001,l),
(225,1001,l)
);
},
{
closed = 1;
nodes = (
(129,284,l),
(1009,284,l),
(1035,474,l),
(153,474,l)
);
}
);
width = 1210;
},
{
layerId = "AB43ED1F-BEAA-4517-9B18-06741265F15E";
shapes = (
{
closed = 1;
nodes = (
(207,830,l),
(1041,830,l),
(1055,957,l),
(219,957,l)
);
},
{
closed = 1;
nodes = (
(139,330,l),
(973,330,l),
(987,457,l),
(151,457,l)
);
}
);
width = 1168;
},
{
layerId = "0E81F995-ADCA-4265-BF48-502C19DBCB17";
shapes = (
{
closed = 1;
nodes = (
(183,778,l),
(1030,778,l),
(1042,862,l),
(195,862,l)
);
},
{
closed = 1;
nodes = (
(113,267,l),
(960,267,l),
(972,351,l),
(125,351,l)
);
}
);
width = 1138;
},
{
layerId = "10D406F4-E64B-40B9-806E-EB589F33F511";
shapes = (
{
closed = 1;
nodes = (
(183,778,l),
(1030,778,l),
(1042,862,l),
(195,862,l)
);
},
{
closed = 1;
nodes = (
(113,267,l),
(960,267,l),
(972,351,l),
(125,351,l)
);
}
);
width = 1138;
},
{
layerId = "2795BD5C-FE1E-44B5-B1D3-799347E852FC";
shapes = (
{
closed = 1;
nodes = (
(178,778,l),
(1065,778,l),
(1077,862,l),
(190,862,l)
);
},
{
closed = 1;
nodes = (
(108,267,l),
(995,267,l),
(1007,351,l),
(120,351,l)
);
}
);
width = 1168;
},
{
layerId = "95CCB04D-97EC-4126-A206-216E0B8EC505";
shapes = (
{
closed = 1;
nodes = (
(178,778,l),
(1065,778,l),
(1077,862,l),
(190,862,l)
);
},
{
closed = 1;
nodes = (
(108,267,l),
(995,267,l),
(1007,351,l),
(120,351,l)
);
}
);
width = 1168;
},
{
layerId = "8587C386-9485-4E77-8679-63F1A494C2C0";
shapes = (
{
closed = 1;
nodes = (
(213,830,l),
(977,830,l),
(991,957,l),
(225,957,l)
);
},
{
closed = 1;
nodes = (
(145,330,l),
(909,330,l),
(923,457,l),
(157,457,l)
);
}
);
width = 1110;
},
{
layerId = "F8806197-5953-4DD8-B2B5-EF301301BB43";
shapes = (
{
closed = 1;
nodes = (
(209,811,l),
(920,811,l),
(942,1001,l),
(231,1001,l)
);
},
{
closed = 1;
nodes = (
(138,284,l),
(849,284,l),
(871,474,l),
(159,474,l)
);
}
);
width = 1056;
},
{
layerId = "F318CEA5-7792-49D8-B68D-92025E304353";
shapes = (
{
closed = 1;
nodes = (
(186,778,l),
(943,778,l),
(955,862,l),
(198,862,l)
);
},
{
closed = 1;
nodes = (
(116,267,l),
(873,267,l),
(885,351,l),
(128,351,l)
);
}
);
width = 1054;
},
{
layerId = "7A2136B0-3E1D-476B-B826-4714342A6FC2";
shapes = (
{
closed = 1;
nodes = (
(186,778,l),
(943,778,l),
(955,862,l),
(198,862,l)
);
},
{
closed = 1;
nodes = (
(116,267,l),
(873,267,l),
(885,351,l),
(128,351,l)
);
}
);
width = 1054;
}
);
metricLeft = hyphen;
metricRight = hyphen;
unicode = 61;
userData = {
KernOnSpecialSpacing = {
L = math;
R = math;
};
};
}
{
glyphname = at;
layers = (
{
layerId = "0C3FD5EE-D923-4A4A-8FDE-164881635915";
shapes = (
{
closed = 1;
nodes = (
(103,-179,o),
(426,-500,o),
(900,-500,cs),
(1068,-500,o),
(1216,-456,o),
(1306,-386,c),
(1281,-316,l),
(1219,-350,o),
(1083,-398,o),
(919,-398,cs),
(526,-398,o),
(234,-109,o),
(234,365,cs),
(234,895,o),
(575,1407,o),
(1109,1407,cs),
(1429,1407,o),
(1710,1253,o),
(1710,825,cs),
(1710,455,o),
(1507,87,o),
(1325,87,cs),
(1294,87,o),
(1287,127,o),
(1286,151,cs),
(1282,187,o),
(1291,286,o),
(1301,387,cs),
(1321,585,o),
(1373,875,o),
(1412,1025,c),
(1282,999,l),
(1224,1037,o),
(1117,1052,o),
(1061,1052,cs),
(698,1052,o),
(528,694,o),
(526,409,cs),
(524,119,o),
(671,-36,o),
(805,-36,cs),
(956,-36,o),
(1106,234,o),
(1192,444,c),
(1163,324,o),
(1147,209,o),
(1147,163,cs),
(1147,62,o),
(1154,-31,o),
(1244,-31,cs),
(1503,-31,o),
(1825,320,o),
(1825,875,cs),
(1825,1296,o),
(1543,1513,o),
(1173,1513,cs),
(610,1513,o),
(103,1018,o),
(103,342,cs)
);
},
{
closed = 1;
nodes = (
(670,657,o),
(763,951,o),
(1049,951,cs),
(1105,951,o),
(1204,926,o),
(1243,873,c),
(1166,545,o),
(962,97,o),
(831,97,cs),
(734,97,o),
(670,233,o),
(670,418,cs)
);
}
);
width = 1894;
},
{
layerId = "27298932-82AF-4578-9425-6304FDB19058";
shapes = (
{
closed = 1;
nodes = (
(102,-129,o),
(405,-500,o),
(926,-500,cs),
(1126,-500,o),
(1272,-454,o),
(1362,-386,c),
(1337,-316,l),
(1275,-346,o),
(1139,-398,o),
(945,-398,cs),
(562,-398,o),
(290,-129,o),
(290,365,cs),
(290,895,o),
(651,1407,o),
(1175,1407,cs),
(1485,1407,o),
(1766,1253,o),
(1766,825,cs),
(1766,515,o),
(1589,138,o),
(1469,138,cs),
(1458,138,o),
(1443,151,o),
(1443,204,cs),
(1443,244,o),
(1437,291,o),
(1447,391,cs),
(1467,587,o),
(1515,891,o),
(1553,1041,c),
(1355,991,l),
(1301,1029,o),
(1209,1053,o),
(1155,1053,cs),
(773,1053,o),
(557,723,o),
(557,410,cs),
(556,120,o),
(724,-40,o),
(885,-40,cs),
(1029,-40,o),
(1146,158,o),
(1249,436,c),
(1229,347,o),
(1233,225,o),
(1233,179,cs),
(1233,64,o),
(1264,-20,o),
(1354,-20,cs),
(1659,-20,o),
(1942,365,o),
(1942,879,cs),
(1942,1327,o),
(1560,1513,o),
(1239,1513,cs),
(626,1513,o),
(102,1081,o),
(102,312,cs)
);
},
{
closed = 1;
nodes = (
(819,666,o),
(915,907,o),
(1135,907,cs),
(1183,907,o),
(1270,865,o),
(1290,827,c),
(1221,545,o),
(1045,174,o),
(946,174,cs),
(865,174,o),
(819,306,o),
(819,426,cs)
);
}
);
width = 2010;
},
{
layerId = "9079322E-D2EB-4437-A6B9-48C6726F1892";
shapes = (
{
closed = 1;
nodes = (
(102,-129,o),
(393,-500,o),
(945,-500,cs),
(1157,-500,o),
(1312,-454,o),
(1407,-386,c),
(1381,-316,l),
(1315,-346,o),
(1171,-398,o),
(965,-398,cs),
(559,-398,o),
(301,-129,o),
(301,365,cs),
(301,895,o),
(654,1407,o),
(1209,1407,cs),
(1538,1407,o),
(1806,1253,o),
(1806,825,cs),
(1806,515,o),
(1648,138,o),
(1521,138,cs),
(1509,138,o),
(1493,151,o),
(1493,204,cs),
(1493,244,o),
(1487,291,o),
(1497,391,cs),
(1519,587,o),
(1570,891,o),
(1610,1041,c),
(1400,991,l),
(1343,1029,o),
(1245,1053,o),
(1188,1053,cs),
(783,1053,o),
(554,723,o),
(554,410,cs),
(553,120,o),
(731,-40,o),
(902,-40,cs),
(1054,-40,o),
(1178,158,o),
(1288,436,c),
(1266,347,o),
(1271,225,o),
(1271,179,cs),
(1271,64,o),
(1304,-20,o),
(1399,-20,cs),
(1722,-20,o),
(1992,365,o),
(1992,879,cs),
(1992,1327,o),
(1617,1513,o),
(1277,1513,cs),
(627,1513,o),
(102,1081,o),
(102,312,cs)
);
},
{
closed = 1;
nodes = (
(832,666,o),
(934,907,o),
(1167,907,cs),
(1218,907,o),
(1310,865,o),
(1331,827,c),
(1258,545,o),
(1071,174,o),
(966,174,cs),
(881,174,o),
(832,306,o),
(832,426,cs)
);
}
);
width = 2061;
},
{
layerId = "AB43ED1F-BEAA-4517-9B18-06741265F15E";
shapes = (
{
closed = 1;
nodes = (
(103,-179,o),
(446,-500,o),
(948,-500,cs),
(1126,-500,o),
(1283,-456,o),
(1379,-386,c),
(1352,-316,l),
(1286,-350,o),
(1142,-398,o),
(968,-398,cs),
(552,-398,o),
(242,-109,o),
(242,365,cs),
(242,895,o),
(605,1407,o),
(1170,1407,cs),
(1509,1407,o),
(1807,1253,o),
(1807,825,cs),
(1807,455,o),
(1591,87,o),
(1399,87,cs),
(1366,87,o),
(1358,127,o),
(1357,151,cs),
(1353,187,o),
(1363,286,o),
(1373,387,cs),
(1394,585,o),
(1450,875,o),
(1491,1025,c),
(1353,999,l),
(1292,1037,o),
(1178,1052,o),
(1119,1052,cs),
(734,1052,o),
(554,694,o),
(552,409,cs),
(550,119,o),
(705,-36,o),
(847,-36,cs),
(1008,-36,o),
(1167,234,o),
(1258,444,c),
(1227,324,o),
(1210,209,o),
(1210,163,cs),
(1210,62,o),
(1217,-31,o),
(1313,-31,cs),
(1587,-31,o),
(1929,320,o),
(1929,875,cs),
(1929,1296,o),
(1630,1513,o),
(1238,1513,cs),
(641,1513,o),
(103,1018,o),
(103,342,cs)
);
},
{
closed = 1;
nodes = (
(704,657,o),
(803,951,o),
(1106,951,cs),
(1165,951,o),
(1270,926,o),
(1312,873,c),
(1230,525,o),
(1014,97,o),
(875,97,cs),
(772,97,o),
(704,233,o),
(704,418,cs)
);
}
);
width = 1997;
},
{
layerId = "0E81F995-ADCA-4265-BF48-502C19DBCB17";
shapes = (
{
closed = 1;
nodes = (
(35,-203,o),
(377,-500,o),
(815,-500,cs),
(989,-500,o),
(1170,-451,o),
(1286,-358,c),
(1267,-303,l),
(1168,-387,o),
(973,-445,o),
(831,-444,cs),
(441,-442,o),
(175,-129,o),
(175,338,cs),
(175,870,o),
(531,1380,o),
(1044,1380,cs),
(1340,1380,o),
(1665,1188,o),
(1665,778,cs),
(1665,394,o),
(1453,89,o),
(1355,89,cs),
(1314,89,o),
(1293,104,o),
(1293,161,cs),
(1293,175,o),
(1295,193,o),
(1298,214,cs),
(1322,372,o),
(1401,761,o),
(1464,946,c),
(1208,918,l),
(1148,945,o),
(1056,966,o),
(964,966,cs),
(623,966,o),
(425,636,o),
(425,339,cs),
(425,88,o),
(572,-33,o),
(661,-33,cs),
(852,-33,o),
(966,141,o),
(1096,375,c),
(1037,195,o),
(1022,127,o),
(1022,85,cs),
(1022,2,o),
(1078,-31,o),
(1162,-31,cs),
(1453,-31,o),
(1790,316,o),
(1790,800,cs),
(1790,1213,o),
(1438,1434,o),
(1100,1434,cs),
(530,1434,o),
(35,951,o),
(35,312,cs)
);
},
{
closed = 1;
nodes = (
(733,742,o),
(864,913,o),
(949,913,cs),
(1053,913,o),
(1112,875,o),
(1177,807,c),
(1113,491,o),
(966,141,o),
(829,141,cs),
(770,141,o),
(733,200,o),
(732,372,cs)
);
}
);
width = 1809;
},
{
layerId = "10D406F4-E64B-40B9-806E-EB589F33F511";
shapes = (
{
closed = 1;
nodes = (
(83,-223,o),
(384,-500,o),
(793,-500,cs),
(1018,-500,o),
(1195,-439,o),
(1294,-358,c),
(1275,-303,l),
(1176,-387,o),
(1001,-446,o),
(809,-446,cs),
(449,-446,o),
(203,-133,o),
(203,348,cs),
(203,895,o),
(609,1380,o),
(1072,1380,cs),
(1381,1380,o),
(1673,1178,o),
(1673,778,cs),
(1673,312,o),
(1383,31,o),
(1294,31,cs),
(1255,31,o),
(1250,84,o),
(1250,145,cs),
(1250,231,o),
(1263,352,o),
(1282,478,cs),
(1308,654,o),
(1345,838,o),
(1372,940,c),
(1236,915,l),
(1154,946,o),
(1068,966,o),
(992,966,cs),
(688,966,o),
(492,637,o),
(492,347,cs),
(492,98,o),
(637,-34,o),
(761,-34,cs),
(962,-34,o),
(1053,200,o),
(1139,416,c),
(1105,238,o),
(1113,195,o),
(1114,133,cs),
(1116,30,o),
(1136,-31,o),
(1222,-31,cs),
(1400,-31,o),
(1778,248,o),
(1778,800,cs),
(1778,1203,o),
(1501,1434,o),
(1124,1434,cs),
(608,1434,o),
(83,971,o),
(83,322,cs)
);
},
{
closed = 1;
nodes = (
(637,663,o),
(760,916,o),
(963,916,cs),
(1040,916,o),
(1136,880,o),
(1205,804,c),
(1154,503,o),
(957,45,o),
(788,45,cs),
(708,45,o),
(637,172,o),
(637,384,cs)
);
}
);
width = 1838;
},
{
layerId = "2795BD5C-FE1E-44B5-B1D3-799347E852FC";
shapes = (
{
closed = 1;
nodes = (
(35,-203,o),
(378,-500,o),
(842,-500,cs),
(1027,-500,o),
(1218,-451,o),
(1341,-358,c),
(1321,-303,l),
(1216,-387,o),
(1010,-445,o),
(859,-444,cs),
(446,-442,o),
(184,-129,o),
(184,338,cs),
(184,870,o),
(541,1380,o),
(1085,1380,cs),
(1399,1380,o),
(1723,1188,o),
(1723,778,cs),
(1723,394,o),
(1518,89,o),
(1415,89,cs),
(1371,89,o),
(1349,104,o),
(1349,161,cs),
(1349,175,o),
(1351,193,o),
(1354,214,cs),
(1380,372,o),
(1463,761,o),
(1530,946,c),
(1259,918,l),
(1195,945,o),
(1098,966,o),
(1000,966,cs),
(639,966,o),
(429,636,o),
(429,339,cs),
(429,88,o),
(585,-33,o),
(679,-33,cs),
(881,-33,o),
(1002,141,o),
(1140,375,c),
(1077,195,o),
(1062,127,o),
(1062,85,cs),
(1062,2,o),
(1121,-31,o),
(1210,-31,cs),
(1518,-31,o),
(1856,316,o),
(1856,800,cs),
(1856,1213,o),
(1503,1434,o),
(1144,1434,cs),
(540,1434,o),
(35,951,o),
(35,312,cs)
);
},
{
closed = 1;
nodes = (
(755,742,o),
(894,913,o),
(984,913,cs),
(1094,913,o),
(1157,875,o),
(1226,807,c),
(1158,491,o),
(1002,141,o),
(857,141,cs),
(794,141,o),
(755,200,o),
(754,372,cs)
);
}
);
width = 1875;
},
{
layerId = "95CCB04D-97EC-4126-A206-216E0B8EC505";
shapes = (
{
closed = 1;
nodes = (
(83,-235,o),
(436,-500,o),
(866,-500,cs),
(1096,-500,o),
(1283,-439,o),
(1387,-358,c),
(1365,-303,l),
(1262,-387,o),
(1075,-446,o),
(879,-446,cs),
(497,-446,o),
(203,-144,o),
(203,348,cs),
(203,858,o),
(600,1380,o),
(1118,1380,cs),
(1450,1380,o),
(1772,1177,o),
(1772,768,cs),
(1772,309,o),
(1463,31,o),
(1373,31,cs),
(1329,31,o),
(1323,83,o),
(1323,153,cs),
(1323,235,o),
(1336,356,o),
(1355,478,cs),
(1382,655,o),
(1415,838,o),
(1439,940,c),
(1303,915,l),
(1214,946,o),
(1121,966,o),
(1039,966,cs),
(718,966,o),
(519,641,o),
(519,353,cs),
(519,99,o),
(681,-34,o),
(829,-34,cs),
(1030,-34,o),
(1121,200,o),
(1208,416,c),
(1189,316,o),
(1186,225,o),
(1186,153,cs),
(1186,40,o),
(1216,-31,o),
(1303,-31,cs),
(1481,-31,o),
(1877,245,o),
(1877,789,cs),
(1877,1202,o),
(1571,1434,o),
(1171,1434,cs),
(583,1434,o),
(83,933,o),
(83,322,cs)
);
},
{
closed = 1;
nodes = (
(664,669,o),
(789,916,o),
(1007,916,cs),
(1090,916,o),
(1196,880,o),
(1273,804,c),
(1222,503,o),
(1025,45,o),
(856,45,cs),
(746,45,o),
(664,174,o),
(664,393,cs)
);
}
);
width = 1938;
},
{
layerId = "8587C386-9485-4E77-8679-63F1A494C2C0";
shapes = (
{
closed = 1;
nodes = (
(104,-179,o),
(407,-500,o),
(853,-500,cs),
(1011,-500,o),
(1150,-456,o),
(1234,-386,c),
(1211,-316,l),
(1153,-350,o),
(1025,-398,o),
(871,-398,cs),
(501,-398,o),
(227,-109,o),
(227,365,cs),
(227,895,o),
(552,1407,o),
(1049,1407,cs),
(1350,1407,o),
(1614,1253,o),
(1614,825,cs),
(1614,455,o),
(1419,87,o),
(1252,87,cs),
(1223,87,o),
(1217,127,o),
(1216,151,cs),
(1212,187,o),
(1220,286,o),
(1230,387,cs),
(1249,585,o),
(1297,875,o),
(1334,1025,c),
(1212,999,l),
(1157,1037,o),
(1057,1052,o),
(1004,1052,cs),
(663,1052,o),
(503,694,o),
(501,409,cs),
(499,119,o),
(638,-36,o),
(764,-36,cs),
(905,-36,o),
(1046,234,o),
(1127,444,c),
(1100,324,o),
(1085,209,o),
(1085,163,cs),
(1085,62,o),
(1092,-31,o),
(1176,-31,cs),
(1420,-31,o),
(1722,320,o),
(1722,875,cs),
(1722,1296,o),
(1457,1513,o),
(1109,1513,cs),
(580,1513,o),
(104,1018,o),
(104,342,cs)
);
},
{
closed = 1;
nodes = (
(637,657,o),
(724,951,o),
(993,951,cs),
(1046,951,o),
(1139,926,o),
(1175,873,c),
(1103,545,o),
(911,97,o),
(788,97,cs),
(697,97,o),
(637,233,o),
(637,418,cs)
);
}
);
width = 1787;
},
{
layerId = "F8806197-5953-4DD8-B2B5-EF301301BB43";
shapes = (
{
closed = 1;
nodes = (
(103,-129,o),
(388,-500,o),
(878,-500,cs),
(1066,-500,o),
(1203,-454,o),
(1288,-386,c),
(1264,-316,l),
(1206,-346,o),
(1078,-398,o),
(896,-398,cs),
(536,-398,o),
(280,-129,o),
(280,365,cs),
(280,895,o),
(619,1407,o),
(1112,1407,cs),
(1403,1407,o),
(1667,1253,o),
(1667,825,cs),
(1667,515,o),
(1501,138,o),
(1388,138,cs),
(1378,138,o),
(1364,151,o),
(1364,204,cs),
(1364,244,o),
(1358,291,o),
(1368,391,cs),
(1386,587,o),
(1431,891,o),
(1467,1041,c),
(1281,991,l),
(1230,1029,o),
(1144,1053,o),
(1093,1053,cs),
(734,1053,o),
(531,723,o),
(531,410,cs),
(530,120,o),
(688,-40,o),
(839,-40,cs),
(975,-40,o),
(1085,158,o),
(1181,436,c),
(1163,347,o),
(1166,225,o),
(1166,179,cs),
(1166,64,o),
(1195,-20,o),
(1280,-20,cs),
(1567,-20,o),
(1833,365,o),
(1833,879,cs),
(1833,1327,o),
(1474,1513,o),
(1172,1513,cs),
(596,1513,o),
(103,1081,o),
(103,312,cs)
);
},
{
closed = 1;
nodes = (
(777,666,o),
(867,907,o),
(1074,907,cs),
(1119,907,o),
(1201,865,o),
(1220,827,c),
(1155,545,o),
(990,174,o),
(897,174,cs),
(820,174,o),
(777,306,o),
(777,426,cs)
);
}
);
width = 1902;
},
{
layerId = "F318CEA5-7792-49D8-B68D-92025E304353";
shapes = (
{
closed = 1;
nodes = (
(81,-211,o),
(361,-500,o),
(753,-500,cs),
(954,-500,o),
(1119,-437,o),
(1210,-358,c),
(1193,-303,l),
(1099,-387,o),
(939,-446,o),
(773,-446,cs),
(429,-446,o),
(201,-122,o),
(201,349,cs),
(201,910,o),
(599,1380,o),
(1042,1380,cs),
(1335,1380,o),
(1607,1181,o),
(1607,791,cs),
(1607,316,o),
(1326,31,o),
(1236,31,cs),
(1204,31,o),
(1198,78,o),
(1198,135,cs),
(1198,213,o),
(1209,334,o),
(1230,479,cs),
(1256,658,o),
(1297,838,o),
(1327,940,c),
(1191,915,l),
(1115,946,o),
(1032,966,o),
(961,966,cs),
(675,966,o),
(475,634,o),
(475,339,cs),
(475,95,o),
(606,-34,o),
(709,-34,cs),
(910,-34,o),
(1002,200,o),
(1087,416,c),
(1062,292,o),
(1061,183,o),
(1061,104,cs),
(1061,19,o),
(1086,-31,o),
(1161,-31,cs),
(1343,-31,o),
(1712,251,o),
(1712,814,cs),
(1712,1208,o),
(1454,1434,o),
(1093,1434,cs),
(594,1434,o),
(81,986,o),
(81,322,cs)
);
},
{
closed = 1;
nodes = (
(620,661,o),
(748,916,o),
(936,916,cs),
(1007,916,o),
(1092,880,o),
(1155,804,c),
(1097,503,o),
(906,45,o),
(760,45,cs),
(684,45,o),
(620,167,o),
(620,371,cs)
);
}
);
width = 1771;
},
{
layerId = "7A2136B0-3E1D-476B-B826-4714342A6FC2";
shapes = (
{
closed = 1;
nodes = (
(36,-203,o),
(354,-500,o),
(762,-500,cs),
(924,-500,o),
(1092,-451,o),
(1200,-358,c),
(1182,-303,l),
(1090,-387,o),
(909,-445,o),
(777,-444,cs),
(414,-442,o),
(167,-129,o),
(167,338,cs),
(167,870,o),
(498,1380,o),
(975,1380,cs),
(1250,1380,o),
(1552,1188,o),
(1552,778,cs),
(1552,394,o),
(1355,89,o),
(1264,89,cs),
(1226,89,o),
(1206,104,o),
(1206,161,cs),
(1206,175,o),
(1208,193,o),
(1211,214,cs),
(1233,372,o),
(1307,761,o),
(1365,946,c),
(1127,918,l),
(1072,945,o),
(986,966,o),
(900,966,cs),
(583,966,o),
(399,636,o),
(399,339,cs),
(399,88,o),
(536,-33,o),
(619,-33,cs),
(796,-33,o),
(902,141,o),
(1023,375,c),
(968,195,o),
(954,127,o),
(954,85,cs),
(954,2,o),
(1006,-31,o),
(1085,-31,cs),
(1355,-31,o),
(1669,316,o),
(1669,800,cs),
(1669,1213,o),
(1341,1434,o),
(1027,1434,cs),
(497,1434,o),
(36,951,o),
(36,312,cs)
);
},
{
closed = 1;
nodes = (
(686,742,o),
(807,913,o),
(886,913,cs),
(983,913,o),
(1038,875,o),
(1098,807,c),
(1039,491,o),
(902,141,o),
(775,141,cs),
(720,141,o),
(686,200,o),
(685,372,cs)
);
}
);
width = 1689;
}
);
unicode = 64;
userData = {
KernOnSpecialSpacing = {
L = symbols;
R = symbols;
};
};
}
{
glyphname = A;
layers = (
{
anchors = (
{
name = bottom;
pos = (578,0);
},
{
name = center;
pos = (678,727);
},
{
name = ogonek;
pos = (1070,0);
},
{
name = top;
pos = (796,1486);
}
);
layerId = "0C3FD5EE-D923-4A4A-8FDE-164881635915";
shapes = (
{
closed = 1;
nodes = (
(345,0,l),
(351,70,l),
(171,94,l),
(716,1257,l),
(797,1432,l),
(758,1438,l),
(777,1246,l),
(965,92,l),
(789,70,l),
(785,0,l),
(1288,0,l),
(1292,70,l),
(1129,96,l),
(886,1498,l),
(713,1498,l),
(24,92,l),
(-112,70,l),
(-120,0,l)
);
},
{
closed = 1;
nodes = (
(949,447,l),
(933,545,l),
(344,545,l),
(297,447,l)
);
}
);
width = 1322;
},
{
anchors = (
{
name = bottom;
pos = (551,0);
},
{
name = center;
pos = (658,727);
},
{
name = ogonek;
pos = (1070,0);
},
{
name = top;
pos = (788,1486);
}
);
layerId = "27298932-82AF-4578-9425-6304FDB19058";
shapes = (
{
closed = 1;
nodes = (
(387,0,l),
(395,103,l),
(211,131,l),
(632,1121,l),
(754,1408,l),
(694,1419,l),
(708,1095,l),
(846,131,l),
(691,103,l),
(687,0,l),
(1354,0,l),
(1360,103,l),
(1204,133,l),
(961,1490,l),
(629,1490,l),
(-13,131,l),
(-149,103,l),
(-157,0,l)
);
},
{
closed = 1;
nodes = (
(905,407,l),
(886,554,l),
(290,554,l),
(228,407,l)
);
}
);
width = 1320;
},
{
anchors = (
{
name = bottom;
pos = (629,0);
},
{
name = center;
pos = (728,727);
},
{
name = ogonek;
pos = (1150,0);
},
{
name = top;
pos = (868,1486);
}
);
color = 4;
layerId = "9079322E-D2EB-4437-A6B9-48C6726F1892";
shapes = (
{
closed = 1;
nodes = (
(426,0,l),
(437,103,l),
(231,131,l),
(730,1121,l),
(866,1408,l),
(774,1419,l),
(810,1095,l),
(972,131,l),
(793,103,l),
(786,0,l),
(1510,0,l),
(1519,103,l),
(1343,133,l),
(1077,1490,l),
(734,1490,l),
(2,131,l),
(-151,103,l),
(-163,0,l)
);
},
{
closed = 1;
nodes = (
(1037,407,l),
(1037,554,l),
(344,554,l),
(274,407,l)
);
}
);
width = 1482;
},
{
anchors = (
{
name = bottom;
pos = (622,0);
},
{
name = center;
pos = (708,727);
},
{
name = ogonek;
pos = (1170,0);
},
{
name = top;
pos = (846,1486);
}
);
color = 4;
layerId = "AB43ED1F-BEAA-4517-9B18-06741265F15E";
shapes = (
{
closed = 1;
nodes = (
(364,0,l),
(370,80,l),
(168,104,l),
(766,1267,l),
(851,1442,l),
(805,1438,l),
(832,1246,l),
(1056,102,l),
(855,80,l),
(851,0,l),
(1398,0,l),
(1402,80,l),
(1222,106,l),
(928,1498,l),
(778,1498,l),
(29,102,l),
(-123,80,l),
(-131,0,l)
);
},
{
closed = 1;
nodes = (
(1023,447,l),
(1004,545,l),
(365,545,l),
(315,447,l)
);
}
);
width = 1420;
},
{
anchors = (
{
name = bottom;
pos = (440,0);
},
{
name = center;
pos = (558,727);
},
{
name = ogonek;
pos = (940,0);
},
{
name = top;
pos = (727,1486);
}
);
color = 4;
layerId = "0E81F995-ADCA-4265-BF48-502C19DBCB17";
shapes = (
{
closed = 1;
nodes = (
(270,0,l),
(275,39,l),
(68,69,l),
(520,1165,l),
(600,1403,l),
(557,1363,l),
(588,1095,l),
(709,72,l),
(557,39,l),
(552,0,l),
(1221,0,l),
(1225,39,l),
(1108,72,l),
(901,1490,l),
(588,1488,l),
(-34,72,l),
(-173,39,l),
(-175,0,l)
);
},
{
closed = 1;
nodes = (
(861,485,l),
(861,548,l),
(185,548,l),
(160,485,l)
);
}
);
width = 1200;
},
{
anchors = (
{
name = bottom;
pos = (507,0);
},
{
name = center;
pos = (608,727);
},
{
name = ogonek;
pos = (990,0);
},
{
name = top;
pos = (725,1486);
}
);
color = 4;
layerId = "10D406F4-E64B-40B9-806E-EB589F33F511";
shapes = (
{
closed = 1;
nodes = (
(249,0,l),
(253,36,l),
(97,58,l),
(655,1292,l),
(720,1432,l),
(689,1438,l),
(707,1292,l),
(897,58,l),
(743,36,l),
(735,0,l),
(1195,0,l),
(1199,36,l),
(1060,58,l),
(809,1498,l),
(682,1498,l),
(-12,58,l),
(-117,36,l),
(-122,0,l)
);
},
{
closed = 1;
nodes = (
(889,489,l),
(889,555,l),
(260,555,l),
(260,489,l)
);
}
);
width = 1229;
},
{
anchors = (
{
name = bottom;
pos = (411,0);
},
{
name = center;
pos = (538,727);
},
{
name = ogonek;
pos = (960,0);
},
{
name = top;
pos = (728,1486);
}
);
color = 4;
layerId = "2795BD5C-FE1E-44B5-B1D3-799347E852FC";
shapes = (
{
closed = 1;
nodes = (
(217,0,l),
(222,36,l),
(16,72,l),
(462,1096,l),
(579,1384,l),
(551,1363,l),
(584,1095,l),
(719,72,l),
(568,38,l),
(563,0,l),
(1251,0,l),
(1255,38,l),
(1139,72,l),
(910,1490,l),
(558,1488,l),
(-86,75,l),
(-226,36,l),
(-228,0,l)
);
},
{
closed = 1;
nodes = (
(833,485,l),
(833,548,l),
(157,548,l),
(132,485,l)
);
}
);
width = 1216;
},
{
anchors = (
{
name = bottom;
pos = (563,0);
},
{
name = center;
pos = (658,727);
},
{
name = ogonek;
pos = (1090,0);
},
{
name = top;
pos = (783,1486);
}
);
layerId = "95CCB04D-97EC-4126-A206-216E0B8EC505";
shapes = (
{
closed = 1;
nodes = (
(282,0,l),
(286,36,l),
(114,58,l),
(667,1254,l),
(756,1442,l),
(726,1442,l),
(747,1254,l),
(990,58,l),
(842,36,l),
(834,0,l),
(1272,0,l),
(1276,36,l),
(1154,58,l),
(841,1498,l),
(715,1499,l),
(0,58,l),
(-116,36,l),
(-122,0,l)
);
},
{
closed = 1;
nodes = (
(998,489,l),
(998,555,l),
(276,555,l),
(276,489,l)
);
}
);
width = 1306;
},
{
anchors = (
{
name = bottom;
pos = (482,0);
},
{
name = center;
pos = (578,727);
},
{
name = ogonek;
pos = (930,0);
},
{
name = top;
pos = (704,1486);
}
);
color = 4;
layerId = "8587C386-9485-4E77-8679-63F1A494C2C0";
shapes = (
{
closed = 1;
nodes = (
(287,0,l),
(293,78,l),
(138,102,l),
(627,1265,l),
(692,1433,l),
(665,1439,l),
(678,1255,l),
(812,100,l),
(659,78,l),
(652,0,l),
(1103,0,l),
(1110,78,l),
(970,104,l),
(781,1498,l),
(625,1498,l),
(7,100,l),
(-111,78,l),
(-120,0,l)
);
},
{
closed = 1;
nodes = (
(810,449,l),
(798,545,l),
(288,545,l),
(244,449,l)
);
}
);
width = 1137;
},
{
anchors = (
{
name = bottom;
pos = (476,0);
},
{
name = center;
pos = (578,727);
},
{
name = ogonek;
pos = (940,0);
},
{
name = top;
pos = (717,1486);
}
);
color = 4;
layerId = "F8806197-5953-4DD8-B2B5-EF301301BB43";
shapes = (
{
closed = 1;
nodes = (
(317,0,l),
(327,101,l),
(168,129,l),
(570,1130,l),
(670,1410,l),
(602,1420,l),
(624,1105,l),
(738,129,l),
(607,101,l),
(602,0,l),
(1191,0,l),
(1199,101,l),
(1066,131,l),
(877,1491,l),
(567,1491,l),
(-31,129,l),
(-149,101,l),
(-158,0,l)
);
},
{
closed = 1;
nodes = (
(808,410,l),
(824,553,l),
(238,553,l),
(179,410,l)
);
}
);
width = 1157;
},
{
anchors = (
{
name = bottom;
pos = (474,0);
},
{
name = center;
pos = (578,727);
},
{
name = ogonek;
pos = (950,0);
},
{
name = top;
pos = (710,1486);
}
);
color = 4;
layerId = "F318CEA5-7792-49D8-B68D-92025E304353";
shapes = (
{
closed = 1;
nodes = (
(241,0,l),
(246,36,l),
(100,63,l),
(618,1276,l),
(681,1429,l),
(650,1432,l),
(668,1233,l),
(849,58,l),
(726,36,l),
(721,0,l),
(1122,0,l),
(1127,36,l),
(1010,58,l),
(775,1497,l),
(645,1497,l),
(6,61,l),
(-117,36,l),
(-122,0,l)
);
},
{
closed = 1;
nodes = (
(869,489,l),
(869,555,l),
(240,555,l),
(240,489,l)
);
}
);
width = 1156;
},
{
anchors = (
{
name = bottom;
pos = (426,0);
},
{
name = center;
pos = (537,731);
},
{
name = ogonek;
pos = (951,0);
},
{
name = top;
pos = (730,1486);
}
);
color = 4;
layerId = "7A2136B0-3E1D-476B-B826-4714342A6FC2";
shapes = (
{
closed = 1;
nodes = (
(264,-1,l),
(269,35,l),
(86,72,l),
(507,1162,l),
(588,1400,l),
(543,1363,l),
(574,1095,l),
(708,72,l),
(556,38,l),
(551,0,l),
(1200,0,l),
(1204,38,l),
(1089,72,l),
(880,1490,l),
(574,1488,l),
(-13,75,l),
(-154,36,l),
(-156,0,l)
);
},
{
closed = 1;
nodes = (
(875,485,l),
(875,548,l),
(219,548,l),
(194,485,l)
);
}
);
width = 1139;
}
);
unicode = 65;
userData = {
KernOnName = A;
};
}
{
glyphname = B;
lastChange = "2024-07-11 15:15:05 +0000";
layers = (
{
anchors = (
{
name = bottom;
pos = (600,0);
},
{
name = stroke;
pos = (291,417);
},
{
name = top;
pos = (724,1486);
}
);
layerId = "0C3FD5EE-D923-4A4A-8FDE-164881635915";
shapes = (
{
closed = 1;
nodes = (
(880,-14,o),
(1160,124,o),
(1154,478,cs),
(1151,650,o),
(1006,768,o),
(840,788,c),
(1036,842,o),
(1156,976,o),
(1152,1190,cs),
(1149,1356,o),
(1024,1500,o),
(728,1500,cs),
(618,1500,o),
(564,1486,o),
(440,1486,cs),
(200,1486,l),
(192,1406,l),
(324,1386,l),
(162,94,l),
(16,70,l),
(8,0,l),
(226,0,ls),
(294,0,o),
(412,-14,o),
(508,-14,cs)
);
},
{
closed = 1;
nodes = (
(479,84,o),
(363,86,o),
(320,104,c),
(396,714,l),
(448,716,o),
(527,718,o),
(660,718,cs),
(862,718,o),
(984,634,o),
(986,460,cs),
(989,182,o),
(798,84,o),
(542,84,cs)
);
},
{
closed = 1;
nodes = (
(482,1396,l),
(534,1402,o),
(642,1408,o),
(682,1408,cs),
(902,1408,o),
(994,1326,o),
(996,1170,cs),
(999,932,o),
(838,820,o),
(634,820,cs),
(564,820,o),
(478,818,o),
(410,820,c)
);
}
);
width = 1237;
},
{
anchors = (
{
name = bottom;
pos = (617,0);
},
{
name = stroke;
pos = (483,417);
},
{
name = top;
pos = (841,1486);
}
);
layerId = "27298932-82AF-4578-9425-6304FDB19058";
shapes = (
{
closed = 1;
nodes = (
(1065,-20,o),
(1313,122,o),
(1313,488,cs),
(1313,646,o),
(1179,789,o),
(957,784,c),
(1205,844,o),
(1329,968,o),
(1321,1182,cs),
(1315,1342,o),
(1236,1502,o),
(856,1502,cs),
(729,1502,o),
(621,1488,o),
(508,1486,cs),
(181,1486,l),
(169,1379,l),
(311,1355,l),
(147,131,l),
(11,103,l),
(3,0,l),
(290,0,ls),
(378,0,o),
(507,-20,o),
(601,-20,cs)
);
},
{
closed = 1;
nodes = (
(600,101,o),
(520,112,o),
(469,126,c),
(546,699,l),
(590,702,o),
(619,703,o),
(672,703,cs),
(874,703,o),
(955,622,o),
(961,456,cs),
(971,211,o),
(858,101,o),
(643,101,cs)
);
},
{
closed = 1;
nodes = (
(634,1360,l),
(681,1372,o),
(742,1379,o),
(779,1379,cs),
(922,1379,o),
(998,1301,o),
(1004,1156,cs),
(1012,924,o),
(860,836,o),
(689,836,cs),
(646,836,o),
(612,835,o),
(563,836,c)
);
}
);
width = 1382;
},
{
anchors = (
{
name = bottom;
pos = (688,0);
},
{
name = stroke;
pos = (474,417);
},
{
name = top;
pos = (894,1486);
}
);
color = 4;
layerId = "9079322E-D2EB-4437-A6B9-48C6726F1892";
shapes = (
{
closed = 1;
nodes = (
(1129,-20,o),
(1409,122,o),
(1409,458,cs),
(1409,651,o),
(1265,784,o),
(1013,784,c),
(1282,844,o),
(1407,968,o),
(1407,1182,cs),
(1407,1335,o),
(1298,1502,o),
(899,1502,cs),
(760,1502,o),
(643,1486,o),
(520,1486,cs),
(177,1486,l),
(165,1380,l),
(317,1354,l),
(150,132,l),
(-2,106,l),
(-14,0,l),
(299,0,ls),
(419,0,o),
(538,-20,o),
(651,-20,cs)
);
},
{
closed = 1;
nodes = (
(636,104,o),
(556,110,o),
(498,126,c),
(576,700,l),
(622,702,o),
(662,703,o),
(727,703,cs),
(940,703,o),
(1047,610,o),
(1047,456,cs),
(1047,214,o),
(919,104,o),
(684,104,cs)
);
},
{
closed = 1;
nodes = (
(668,1368,l),
(721,1378,o),
(783,1379,o),
(821,1379,cs),
(981,1379,o),
(1079,1292,o),
(1079,1156,cs),
(1079,924,o),
(920,836,o),
(736,836,cs),
(683,836,o),
(643,835,o),
(594,836,c)
);
}
);
width = 1464;
},
{
anchors = (
{
name = bottom;
pos = (670,0);
},
{
name = stroke;
pos = (316,417);
},
{
name = top;
pos = (761,1486);
}
);
color = 4;
layerId = "AB43ED1F-BEAA-4517-9B18-06741265F15E";
shapes = (
{
closed = 1;
nodes = (
(917,-14,o),
(1242,124,o),
(1242,468,cs),
(1242,650,o),
(1083,768,o),
(902,782,c),
(1127,842,o),
(1242,970,o),
(1242,1180,cs),
(1242,1364,o),
(1091,1500,o),
(758,1500,cs),
(645,1500,o),
(549,1486,o),
(450,1486,cs),
(198,1486,l),
(188,1406,l),
(336,1386,l),
(165,104,l),
(8,80,l),
(-2,0,l),
(229,0,ls),
(303,0,o),
(435,-14,o),
(538,-14,cs)
);
},
{
closed = 1;
nodes = (
(502,84,o),
(382,92,o),
(326,107,c),
(407,714,l),
(465,716,o),
(558,718,o),
(711,718,cs),
(942,718,o),
(1071,630,o),
(1071,448,cs),
(1071,179,o),
(843,84,o),
(554,84,cs)
);
},
{
closed = 1;
nodes = (
(497,1383,l),
(568,1398,o),
(672,1404,o),
(720,1404,cs),
(973,1404,o),
(1082,1319,o),
(1082,1166,cs),
(1082,918,o),
(908,820,o),
(677,820,cs),
(578,820,o),
(492,819,o),
(422,820,c)
);
}
);
width = 1329;
},
{
anchors = (
{
name = bottom;
pos = (536,0);
},
{
name = stroke;
pos = (461,417);
},
{
name = top;
pos = (807,1486);
}
);
color = 4;
layerId = "0E81F995-ADCA-4265-BF48-502C19DBCB17";
shapes = (
{
closed = 1;
nodes = (
(996,-20,o),
(1276,118,o),
(1276,465,cs),
(1276,642,o),
(1150,776,o),
(902,777,c),
(1148,817,o),
(1275,970,o),
(1275,1193,cs),
(1275,1344,o),
(1149,1502,o),
(817,1502,cs),
(668,1502,o),
(595,1486,o),
(463,1486,cs),
(161,1486,l),
(156,1450,l),
(274,1413,l),
(90,72,l),
(-40,38,l),
(-45,0,l),
(257,0,ls),
(382,0,o),
(496,-20,o),
(639,-20,cs)
);
},
{
closed = 1;
nodes = (
(550,40,o),
(507,50,o),
(456,64,c),
(547,727,l),
(571,729,o),
(605,730,o),
(654,730,cs),
(798,730,o),
(905,655,o),
(905,481,cs),
(905,204,o),
(791,40,o),
(610,40,cs)
);
},
{
closed = 1;
nodes = (
(644,1431,l),
(668,1441,o),
(688,1442,o),
(720,1442,cs),
(842,1442,o),
(932,1349,o),
(932,1183,cs),
(932,934,o),
(790,794,o),
(662,794,cs),
(619,794,o),
(582,793,o),
(555,794,c)
);
}
);
width = 1308;
},
{
anchors = (
{
name = bottom;
pos = (504,0);
},
{
name = stroke;
pos = (288,417);
},
{
name = top;
pos = (694,1486);
}
);
color = 4;
layerId = "10D406F4-E64B-40B9-806E-EB589F33F511";
shapes = (
{
closed = 1;
nodes = (
(859,-14,o),
(1131,134,o),
(1131,458,cs),
(1131,651,o),
(985,757,o),
(799,770,c),
(995,824,o),
(1131,976,o),
(1131,1186,cs),
(1131,1355,o),
(1019,1502,o),
(697,1502,cs),
(597,1502,o),
(509,1486,o),
(419,1486,cs),
(181,1486,l),
(176,1450,l),
(312,1420,l),
(126,67,l),
(-20,36,l),
(-25,0,l),
(205,0,ls),
(273,0,o),
(391,-14,o),
(467,-14,cs)
);
},
{
closed = 1;
nodes = (
(424,37,o),
(320,53,o),
(281,65,c),
(375,738,l),
(448,739,o),
(516,738,o),
(627,738,cs),
(843,738,o),
(967,652,o),
(967,458,cs),
(967,180,o),
(803,37,o),
(494,37,cs)
);
},
{
closed = 1;
nodes = (
(471,1437,l),
(527,1443,o),
(637,1451,o),
(666,1451,cs),
(924,1451,o),
(971,1327,o),
(971,1170,cs),
(971,932,o),
(811,793,o),
(652,794,cs),
(552,795,o),
(452,793,o),
(382,793,c)
);
}
);
width = 1215;
},
{
anchors = (
{
name = bottom;
pos = (549,0);
},
{
name = stroke;
pos = (464,417);
},
{
name = top;
pos = (889,1486);
}
);
color = 4;
layerId = "2795BD5C-FE1E-44B5-B1D3-799347E852FC";
shapes = (
{
closed = 1;
nodes = (
(1084,-20,o),
(1370,120,o),
(1370,469,cs),
(1370,644,o),
(1244,776,o),
(996,777,c),
(1242,817,o),
(1362,980,o),
(1362,1183,cs),
(1362,1374,o),
(1213,1502,o),
(911,1502,cs),
(700,1502,o),
(594,1486,o),
(462,1486,cs),
(153,1486,l),
(148,1450,l),
(266,1413,l),
(82,72,l),
(-48,38,l),
(-53,0,l),
(259,0,ls),
(381,0,o),
(492,-20,o),
(697,-20,cs)
);
},
{
closed = 1;
nodes = (
(558,38,o),
(500,52,o),
(470,61,c),
(561,726,l),
(577,728,o),
(610,730,o),
(686,730,cs),
(838,730,o),
(950,655,o),
(950,481,cs),
(950,224,o),
(817,38,o),
(628,38,cs)
);
},
{
closed = 1;
nodes = (
(657,1432,l),
(689,1440,o),
(717,1444,o),
(774,1444,cs),
(874,1444,o),
(980,1349,o),
(980,1183,cs),
(980,934,o),
(840,794,o),
(694,794,cs),
(640,794,o),
(597,793,o),
(570,794,c)
);
}
);
width = 1411;
},
{
anchors = (
{
name = bottom;
pos = (536,0);
},
{
name = stroke;
pos = (257,417);
},
{
name = top;
pos = (704,1486);
}
);
layerId = "95CCB04D-97EC-4126-A206-216E0B8EC505";
shapes = (
{
closed = 1;
nodes = (
(887,-14,o),
(1171,135,o),
(1171,452,cs),
(1171,650,o),
(1025,754,o),
(816,768,c),
(1027,820,o),
(1168,976,o),
(1168,1180,cs),
(1168,1357,o),
(1044,1502,o),
(697,1502,cs),
(596,1502,o),
(496,1486,o),
(402,1486,cs),
(169,1486,l),
(164,1450,l),
(290,1420,l),
(104,67,l),
(-32,36,l),
(-37,0,l),
(185,0,ls),
(255,0,o),
(387,-14,o),
(502,-14,cs)
);
},
{
closed = 1;
nodes = (
(417,37,o),
(297,56,o),
(260,67,c),
(352,734,l),
(437,736,o),
(513,734,o),
(635,734,cs),
(861,734,o),
(1010,652,o),
(1010,451,cs),
(1010,179,o),
(823,37,o),
(534,37,cs)
);
},
{
closed = 1;
nodes = (
(448,1432,l),
(505,1439,o),
(635,1451,o),
(668,1451,cs),
(929,1451,o),
(1004,1327,o),
(1004,1169,cs),
(1004,932,o),
(833,798,o),
(663,798,cs),
(553,798,o),
(439,797,o),
(360,798,c)
);
}
);
width = 1230;
},
{
anchors = (
{
name = bottom;
pos = (519,0);
},
{
name = stroke;
pos = (289,417);
},
{
name = top;
pos = (667,1486);
}
);
color = 4;
layerId = "8587C386-9485-4E77-8679-63F1A494C2C0";
shapes = (
{
closed = 1;
nodes = (
(779,-14,o),
(1044,124,o),
(1044,477,cs),
(1044,650,o),
(911,767,o),
(763,788,c),
(939,842,o),
(1047,976,o),
(1047,1190,cs),
(1047,1360,o),
(947,1500,o),
(666,1500,cs),
(577,1500,o),
(498,1486,o),
(398,1486,cs),
(202,1486,l),
(194,1408,l),
(314,1388,l),
(140,98,l),
(14,78,l),
(5,0,l),
(201,0,ls),
(261,0,o),
(364,-14,o),
(442,-14,cs)
);
},
{
closed = 1;
nodes = (
(425,83,o),
(344,93,o),
(295,105,c),
(377,716,l),
(422,718,o),
(485,720,o),
(587,720,cs),
(771,720,o),
(882,635,o),
(882,460,cs),
(882,180,o),
(713,83,o),
(474,83,cs)
);
},
{
closed = 1;
nodes = (
(470,1395,l),
(519,1403,o),
(595,1410,o),
(629,1410,cs),
(821,1410,o),
(897,1328,o),
(897,1171,cs),
(897,932,o),
(754,818,o),
(570,818,cs),
(512,818,o),
(446,816,o),
(391,818,c)
);
}
);
width = 1116;
},
{
anchors = (
{
name = bottom;
pos = (549,0);
},
{
name = stroke;
pos = (479,417);
},
{
name = top;
pos = (758,1486);
}
);
color = 4;
layerId = "F8806197-5953-4DD8-B2B5-EF301301BB43";
shapes = (
{
closed = 1;
nodes = (
(955,-20,o),
(1183,132,o),
(1183,457,cs),
(1183,646,o),
(1054,760,o),
(863,784,c),
(1087,844,o),
(1195,969,o),
(1195,1183,cs),
(1195,1343,o),
(1105,1502,o),
(765,1502,cs),
(700,1502,o),
(583,1488,o),
(482,1486,cs),
(183,1486,l),
(171,1384,l),
(295,1357,l),
(125,128,l),
(9,102,l),
(-3,0,l),
(260,0,ls),
(339,0,o),
(474,-20,o),
(556,-20,cs)
);
},
{
closed = 1;
nodes = (
(537,100,o),
(481,111,o),
(437,126,c),
(516,701,l),
(546,703,o),
(564,704,o),
(597,704,cs),
(772,704,o),
(847,623,o),
(847,456,cs),
(847,209,o),
(756,100,o),
(577,100,cs)
);
},
{
closed = 1;
nodes = (
(609,1372,l),
(639,1378,o),
(673,1381,o),
(703,1381,cs),
(830,1381,o),
(894,1304,o),
(894,1157,cs),
(894,925,o),
(764,835,o),
(622,835,cs),
(581,835,o),
(555,836,o),
(535,836,c)
);
}
);
width = 1246;
},
{
anchors = (
{
name = bottom;
pos = (459,0);
},
{
name = stroke;
pos = (284,417);
},
{
name = top;
pos = (672,1486);
}
);
color = 4;
layerId = "F318CEA5-7792-49D8-B68D-92025E304353";
shapes = (
{
closed = 1;
nodes = (
(787,-15,o),
(1038,133,o),
(1038,459,cs),
(1038,640,o),
(921,757,o),
(745,769,c),
(922,822,o),
(1049,975,o),
(1049,1190,cs),
(1049,1355,o),
(952,1502,o),
(665,1502,cs),
(567,1502,o),
(494,1486,o),
(411,1486,cs),
(199,1486,l),
(194,1450,l),
(315,1420,l),
(129,67,l),
(-2,36,l),
(-7,0,l),
(199,0,ls),
(264,0,o),
(365,-15,o),
(442,-15,cs)
);
},
{
closed = 1;
nodes = (
(398,37,o),
(318,56,o),
(279,68,c),
(371,737,l),
(432,738,o),
(490,737,o),
(585,737,cs),
(764,737,o),
(879,652,o),
(878,460,cs),
(877,182,o),
(721,37,o),
(463,37,cs)
);
},
{
closed = 1;
nodes = (
(467,1433,l),
(519,1443,o),
(604,1450,o),
(632,1450,cs),
(836,1450,o),
(894,1328,o),
(893,1171,cs),
(891,932,o),
(746,791,o),
(607,794,cs),
(519,796,o),
(437,793,o),
(378,793,c)
);
}
);
width = 1131;
},
{
anchors = (
{
name = bottom;
pos = (548,0);
},
{
name = stroke;
pos = (451,417);
},
{
name = top;
pos = (762,1486);
}
);
color = 4;
layerId = "7A2136B0-3E1D-476B-B826-4714342A6FC2";
shapes = (
{
closed = 1;
nodes = (
(934,-20,o),
(1192,135,o),
(1192,448,cs),
(1192,646,o),
(1075,766,o),
(847,777,c),
(1093,817,o),
(1206,970,o),
(1206,1184,cs),
(1206,1344,o),
(1110,1502,o),
(761,1502,cs),
(651,1502,o),
(590,1486,o),
(504,1486,cs),
(159,1486,l),
(154,1450,l),
(282,1413,l),
(98,72,l),
(-42,38,l),
(-47,0,l),
(286,0,ls),
(386,0,o),
(445,-20,o),
(561,-20,cs)
);
},
{
closed = 1;
nodes = (
(500,36,o),
(460,43,o),
(438,56,c),
(529,726,l),
(570,728,o),
(610,730,o),
(638,730,cs),
(769,730,o),
(838,655,o),
(838,461,cs),
(838,200,o),
(751,36,o),
(550,36,cs)
);
},
{
closed = 1;
nodes = (
(626,1432,l),
(655,1439,o),
(687,1444,o),
(715,1444,cs),
(837,1444,o),
(883,1355,o),
(883,1183,cs),
(883,914,o),
(744,791,o),
(646,791,cs),
(615,791,o),
(576,790,o),
(539,790,c)
);
}
);
width = 1227;
}
);
metricLeft = H;
unicode = 66;
userData = {
KernOnName = B;
};
}
{
glyphname = H;
layers = (
{
anchors = (
{
name = bottom;
pos = (643,0);
},
{
name = bottomright;
pos = (1308,0);
},
{
name = top;
pos = (850,1486);
}
);
layerId = "0C3FD5EE-D923-4A4A-8FDE-164881635915";
shapes = (
{
closed = 1;
nodes = (
(453,0,l),
(459,80,l),
(314,104,l),
(395,706,l),
(1092,706,l),
(1012,104,l),
(847,80,l),
(841,0,l),
(1307,0,l),
(1313,80,l),
(1170,104,l),
(1341,1386,l),
(1477,1406,l),
(1487,1486,l),
(1057,1486,l),
(1047,1406,l),
(1183,1386,l),
(1106,810,l),
(409,810,l),
(487,1386,l),
(629,1406,l),
(637,1486,l),
(215,1486,l),
(207,1406,l),
(329,1386,l),
(156,104,l),
(7,80,l),
(-1,0,l)
);
}
);
width = 1455;
},
{
anchors = (
{
name = bottom;
pos = (729,0);
},
{
name = bottomright;
pos = (1487,0);
},
{
name = top;
pos = (933,1486);
}
);
layerId = "27298932-82AF-4578-9425-6304FDB19058";
shapes = (
{
closed = 1;
nodes = (
(642,0,l),
(650,102,l),
(480,130,l),
(556,688,l),
(1082,688,l),
(1006,130,l),
(858,102,l),
(844,0,l),
(1481,0,l),
(1493,102,l),
(1344,130,l),
(1510,1356,l),
(1661,1378,l),
(1673,1486,l),
(1032,1486,l),
(1020,1378,l),
(1172,1356,l),
(1100,824,l),
(575,824,l),
(647,1355,l),
(822,1379,l),
(834,1486,l),
(181,1486,l),
(167,1379,l),
(309,1355,l),
(142,130,l),
(6,102,l),
(-4,0,l)
);
}
);
width = 1610;
},
{
anchors = (
{
name = bottom;
pos = (804,0);
},
{
name = bottomright;
pos = (1628,0);
},
{
name = top;
pos = (1003,1486);
}
);
color = 4;
layerId = "9079322E-D2EB-4437-A6B9-48C6726F1892";
shapes = (
{
closed = 1;
nodes = (
(677,0,l),
(689,106,l),
(498,132,l),
(574,688,l),
(1197,688,l),
(1121,132,l),
(944,106,l),
(932,0,l),
(1616,0,l),
(1628,106,l),
(1469,132,l),
(1636,1354,l),
(1787,1380,l),
(1799,1486,l),
(1115,1486,l),
(1103,1380,l),
(1288,1354,l),
(1216,824,l),
(593,824,l),
(665,1354,l),
(856,1380,l),
(868,1486,l),
(177,1486,l),
(165,1380,l),
(317,1354,l),
(150,132,l),
(-2,106,l),
(-14,0,l)
);
}
);
width = 1741;
},
{
anchors = (
{
name = bottom;
pos = (724,0);
},
{
name = bottomright;
pos = (1430,0);
},
{
name = top;
pos = (927,1486);
}
);
color = 4;
layerId = "AB43ED1F-BEAA-4517-9B18-06741265F15E";
shapes = (
{
closed = 1;
nodes = (
(491,0,l),
(501,80,l),
(326,104,l),
(406,706,l),
(1206,706,l),
(1126,104,l),
(950,80,l),
(941,0,l),
(1428,0,l),
(1437,80,l),
(1287,104,l),
(1458,1386,l),
(1611,1406,l),
(1620,1486,l),
(1139,1486,l),
(1130,1406,l),
(1297,1386,l),
(1220,810,l),
(420,810,l),
(497,1386,l),
(669,1406,l),
(679,1486,l),
(198,1486,l),
(188,1406,l),
(336,1386,l),
(165,104,l),
(8,80,l),
(-2,0,l)
);
}
);
width = 1574;
},
{
anchors = (
{
name = bottom;
pos = (656,0);
},
{
name = bottomright;
pos = (1400,0);
},
{
name = top;
pos = (893,1486);
}
);
color = 4;
layerId = "0E81F995-ADCA-4265-BF48-502C19DBCB17";
shapes = (
{
closed = 1;
nodes = (
(589,0,l),
(596,38,l),
(464,72,l),
(555,732,l),
(1007,732,l),
(916,72,l),
(774,39,l),
(769,0,l),
(1402,0,l),
(1408,39,l),
(1290,72,l),
(1474,1413,l),
(1605,1450,l),
(1607,1486,l),
(977,1486,l),
(972,1450,l),
(1100,1413,l),
(1015,797,l),
(563,797,l),
(648,1413,l),
(799,1450,l),
(803,1486,l),
(161,1486,l),
(156,1450,l),
(274,1413,l),
(90,72,l),
(-40,38,l),
(-45,0,l)
);
}
);
width = 1499;
},
{
anchors = (
{
name = bottom;
pos = (634,0);
},
{
name = bottomright;
pos = (1273,0);
},
{
name = top;
pos = (848,1486);
}
);
color = 4;
layerId = "10D406F4-E64B-40B9-806E-EB589F33F511";
shapes = (
{
closed = 1;
nodes = (
(425,0,l),
(430,36,l),
(282,67,l),
(373,732,l),
(1069,732,l),
(978,67,l),
(834,36,l),
(829,0,l),
(1270,0,l),
(1275,36,l),
(1134,67,l),
(1320,1420,l),
(1458,1450,l),
(1463,1486,l),
(1035,1486,l),
(1030,1450,l),
(1164,1420,l),
(1078,798,l),
(382,798,l),
(468,1420,l),
(604,1450,l),
(609,1486,l),
(181,1486,l),
(176,1450,l),
(312,1420,l),
(126,67,l),
(-20,36,l),
(-25,0,l)
);
}
);
width = 1383;
},
{
anchors = (
{
name = bottom;
pos = (704,0);
},
{
name = bottomright;
pos = (1469,0);
},
{
name = top;
pos = (916,1486);
}
);
color = 4;
layerId = "2795BD5C-FE1E-44B5-B1D3-799347E852FC";
shapes = (
{
closed = 1;
nodes = (
(597,0,l),
(604,38,l),
(472,72,l),
(562,731,l),
(1056,731,l),
(966,72,l),
(829,39,l),
(824,0,l),
(1467,0,l),
(1473,39,l),
(1355,72,l),
(1539,1413,l),
(1670,1450,l),
(1672,1486,l),
(1027,1486,l),
(1022,1450,l),
(1150,1413,l),
(1065,797,l),
(571,797,l),
(656,1413,l),
(807,1450,l),
(811,1486,l),
(153,1486,l),
(148,1450,l),
(266,1413,l),
(82,72,l),
(-48,38,l),
(-53,0,l)
);
}
);
width = 1557;
},
{
anchors = (
{
name = bottom;
pos = (659,0);
},
{
name = bottomright;
pos = (1335,0);
},
{
name = top;
pos = (861,1486);
}
);
layerId = "95CCB04D-97EC-4126-A206-216E0B8EC505";
shapes = (
{
closed = 1;
nodes = (
(404,0,l),
(409,36,l),
(260,67,l),
(351,732,l),
(1150,732,l),
(1059,67,l),
(909,36,l),
(904,0,l),
(1330,0,l),
(1335,36,l),
(1215,67,l),
(1401,1420,l),
(1520,1450,l),
(1525,1486,l),
(1101,1486,l),
(1096,1450,l),
(1245,1420,l),
(1159,798,l),
(360,798,l),
(446,1420,l),
(599,1450,l),
(604,1486,l),
(169,1486,l),
(164,1450,l),
(290,1420,l),
(104,67,l),
(-32,36,l),
(-37,0,l)
);
}
);
width = 1431;
},
{
anchors = (
{
name = bottom;
pos = (583,0);
},
{
name = bottomright;
pos = (1147,0);
},
{
name = top;
pos = (786,1486);
}
);
color = 4;
layerId = "8587C386-9485-4E77-8679-63F1A494C2C0";
shapes = (
{
closed = 1;
nodes = (
(416,0,l),
(424,78,l),
(294,98,l),
(376,707,l),
(961,707,l),
(879,98,l),
(746,78,l),
(737,0,l),
(1148,0,l),
(1156,78,l),
(1033,98,l),
(1207,1388,l),
(1327,1408,l),
(1335,1486,l),
(934,1486,l),
(926,1408,l),
(1053,1388,l),
(975,809,l),
(390,809,l),
(468,1388,l),
(595,1408,l),
(603,1486,l),
(202,1486,l),
(194,1408,l),
(314,1388,l),
(140,98,l),
(14,78,l),
(5,0,l)
);
}
);
width = 1298;
},
{
anchors = (
{
name = bottom;
pos = (652,0);
},
{
name = bottomright;
pos = (1305,0);
},
{
name = top;
pos = (855,1486);
}
);
color = 4;
layerId = "F8806197-5953-4DD8-B2B5-EF301301BB43";
shapes = (
{
closed = 1;
nodes = (
(582,0,l),
(594,102,l),
(447,128,l),
(525,689,l),
(949,689,l),
(871,128,l),
(727,102,l),
(715,0,l),
(1300,0,l),
(1312,102,l),
(1193,128,l),
(1363,1357,l),
(1484,1384,l),
(1496,1486,l),
(911,1486,l),
(899,1384,l),
(1041,1357,l),
(967,823,l),
(543,823,l),
(617,1357,l),
(767,1384,l),
(779,1486,l),
(183,1486,l),
(171,1384,l),
(295,1357,l),
(125,128,l),
(9,102,l),
(-3,0,l)
);
}
);
userData = {
com.schriftgestaltung.Glyphs.lastChange = "2019-08-20 10:35:55 +0000";
};
width = 1431;
},
{
anchors = (
{
name = bottom;
pos = (580,0);
},
{
name = bottomright;
pos = (1147,0);
},
{
name = top;
pos = (789,1486);
}
);
color = 4;
layerId = "F318CEA5-7792-49D8-B68D-92025E304353";
shapes = (
{
closed = 1;
nodes = (
(408,0,l),
(413,36,l),
(279,67,l),
(371,733,l),
(970,733,l),
(878,67,l),
(743,36,l),
(738,0,l),
(1148,0,l),
(1153,36,l),
(1028,67,l),
(1214,1420,l),
(1336,1450,l),
(1341,1486,l),
(943,1486,l),
(938,1450,l),
(1064,1420,l),
(978,797,l),
(379,797,l),
(465,1420,l),
(605,1450,l),
(610,1486,l),
(199,1486,l),
(194,1450,l),
(315,1420,l),
(129,67,l),
(-2,36,l),
(-7,0,l)
);
}
);
width = 1279;
},
{
anchors = (
{
name = bottom;
pos = (625,0);
},
{
name = bottomright;
pos = (1270,0);
},
{
name = top;
pos = (825,1486);
}
);
color = 4;
layerId = "7A2136B0-3E1D-476B-B826-4714342A6FC2";
shapes = (
{
closed = 1;
nodes = (
(583,0,l),
(590,38,l),
(443,72,l),
(533,731,l),
(905,731,l),
(815,72,l),
(675,38,l),
(670,0,l),
(1270,0,l),
(1277,38,l),
(1160,72,l),
(1344,1413,l),
(1471,1450,l),
(1475,1486,l),
(876,1486,l),
(871,1450,l),
(999,1413,l),
(914,797,l),
(542,797,l),
(627,1413,l),
(769,1450,l),
(773,1486,l),
(159,1486,l),
(154,1450,l),
(282,1413,l),
(98,72,l),
(-42,38,l),
(-47,0,l)
);
}
);
width = 1363;
}
);
unicode = 72;
userData = {
KernOnName = H;
};
}
{
glyphname = P;
lastChange = "2024-07-11 15:15:05 +0000";
layers = (
{
anchors = (
{
name = bottom;
pos = (222,0);
},
{
name = center;
pos = (365,1035);
},
{
name = tick;
pos = (803,618);
},
{
name = top;
pos = (722,1486);
}
);
layerId = "0C3FD5EE-D923-4A4A-8FDE-164881635915";
shapes = (
{
closed = 1;
nodes = (
(520,0,l),
(526,70,l),
(314,94,l),
(498,1461,l),
(447,1381,l),
(510,1394,o),
(624,1406,o),
(698,1408,cs),
(930,1414,o),
(1010,1306,o),
(1008,1110,cs),
(1004,796,o),
(866,628,o),
(576,626,cs),
(532,626,o),
(410,634,o),
(339,647,c),
(332,536,l),
(372,533,o),
(506,530,o),
(570,530,cs),
(904,530,o),
(1182,738,o),
(1176,1122,cs),
(1172,1380,o),
(1014,1502,o),
(724,1502,cs),
(620,1502,o),
(534,1486,o),
(426,1486,cs),
(200,1486,l),
(192,1406,l),
(328,1386,l),
(154,94,l),
(16,70,l),
(8,0,l)
);
}
);
width = 1172;
},
{
anchors = (
{
name = bottom;
pos = (272,0);
},
{
name = center;
pos = (455,1006);
},
{
name = tick;
pos = (883,597);
},
{
name = top;
pos = (802,1486);
}
);
layerId = "27298932-82AF-4578-9425-6304FDB19058";
shapes = (
{
closed = 1;
nodes = (
(712,0,l),
(723,102,l),
(482,130,l),
(657,1451,l),
(530,1337,l),
(615,1370,o),
(684,1378,o),
(736,1378,cs),
(894,1378,o),
(1003,1298,o),
(1003,1098,cs),
(1001,819,o),
(874,630,o),
(664,630,cs),
(576,630,o),
(506,646,o),
(468,654,c),
(475,513,l),
(501,510,o),
(601,503,o),
(654,503,cs),
(1086,503,o),
(1361,721,o),
(1349,1105,cs),
(1341,1363,o),
(1198,1502,o),
(806,1502,cs),
(706,1502,o),
(604,1486,o),
(487,1486,cs),
(181,1486,l),
(167,1379,l),
(311,1355,l),
(142,130,l),
(-8,102,l),
(-18,0,l)
);
}
);
width = 1314;
},
{
anchors = (
{
name = bottom;
pos = (302,0);
},
{
name = center;
pos = (455,1006);
},
{
name = tick;
pos = (914,592);
},
{
name = top;
pos = (807,1486);
}
);
color = 4;
layerId = "9079322E-D2EB-4437-A6B9-48C6726F1892";
shapes = (
{
closed = 1;
nodes = (
(755,0,l),
(765,110,l),
(498,136,l),
(678,1451,l),
(550,1337,l),
(641,1370,o),
(727,1378,o),
(790,1378,cs),
(961,1378,o),
(1083,1294,o),
(1083,1098,cs),
(1083,819,o),
(943,630,o),
(712,630,cs),
(620,630,o),
(532,646,o),
(483,654,c),
(491,513,l),
(522,510,o),
(641,503,o),
(703,503,cs),
(1138,503,o),
(1441,708,o),
(1441,1072,cs),
(1441,1377,o),
(1213,1502,o),
(858,1502,cs),
(745,1502,o),
(633,1486,o),
(503,1486,cs),
(177,1486,l),
(165,1380,l),
(317,1354,l),
(150,132,l),
(-2,106,l),
(-14,0,l)
);
}
);
width = 1398;
},
{
anchors = (
{
name = bottom;
pos = (222,0);
},
{
name = center;
pos = (369,1035);
},
{
name = tick;
pos = (815,589);
},
{
name = top;
pos = (806,1486);
}
);
color = 4;
layerId = "AB43ED1F-BEAA-4517-9B18-06741265F15E";
shapes = (
{
closed = 1;
nodes = (
(531,0,l),
(541,80,l),
(326,104,l),
(507,1461,l),
(468,1381,l),
(536,1394,o),
(668,1408,o),
(753,1408,cs),
(1020,1408,o),
(1108,1306,o),
(1108,1110,cs),
(1108,796,o),
(953,626,o),
(621,626,cs),
(506,626,o),
(434,634,o),
(352,647,c),
(344,536,l),
(390,533,o),
(543,530,o),
(606,530,cs),
(1001,530,o),
(1279,738,o),
(1279,1122,cs),
(1279,1380,o),
(1092,1502,o),
(777,1502,cs),
(660,1502,o),
(565,1486,o),
(445,1486,cs),
(198,1486,l),
(188,1406,l),
(336,1386,l),
(165,104,l),
(8,80,l),
(-2,0,l)
);
}
);
width = 1273;
},
{
anchors = (
{
name = bottom;
pos = (252,0);
},
{
name = center;
pos = (403,1022);
},
{
name = tick;
pos = (851,641);
},
{
name = top;
pos = (745,1486);
}
);
color = 4;
layerId = "0E81F995-ADCA-4265-BF48-502C19DBCB17";
shapes = (
{
closed = 1;
nodes = (
(692,0,l),
(697,36,l),
(467,83,l),
(653,1450,l),
(635,1430,l),
(666,1435,o),
(693,1442,o),
(741,1442,cs),
(877,1442,o),
(924,1314,o),
(924,1128,cs),
(924,962,o),
(843,636,o),
(610,636,cs),
(585,636,o),
(553,639,o),
(502,653,c),
(494,584,l),
(540,574,o),
(606,569,o),
(663,569,cs),
(1206,569,o),
(1303,915,o),
(1303,1120,cs),
(1303,1380,o),
(1148,1499,o),
(818,1497,cs),
(669,1496,o),
(553,1486,o),
(457,1486,cs),
(161,1486,l),
(156,1450,l),
(274,1413,l),
(90,72,l),
(-40,38,l),
(-45,0,l)
);
}
);
width = 1262;
},
{
anchors = (
{
name = bottom;
pos = (202,0);
},
{
name = center;
pos = (342,1076);
},
{
name = tick;
pos = (772,641);
},
{
name = top;
pos = (729,1486);
}
);
color = 4;
layerId = "10D406F4-E64B-40B9-806E-EB589F33F511";
shapes = (
{
closed = 1;
nodes = (
(507,0,l),
(512,36,l),
(281,67,l),
(471,1446,l),
(430,1422,l),
(494,1432,o),
(595,1450,o),
(675,1450,cs),
(887,1450,o),
(985,1346,o),
(985,1110,cs),
(985,796,o),
(843,625,o),
(553,625,cs),
(497,625,o),
(401,641,o),
(343,655,c),
(331,591,l),
(389,582,o),
(461,573,o),
(547,573,cs),
(881,573,o),
(1151,737,o),
(1151,1126,cs),
(1151,1380,o),
(991,1502,o),
(701,1502,cs),
(577,1502,o),
(511,1486,o),
(403,1486,cs),
(181,1486,l),
(176,1450,l),
(312,1420,l),
(126,67,l),
(-20,36,l),
(-25,0,l)
);
}
);
width = 1145;
},
{
anchors = (
{
name = bottom;
pos = (262,0);
},
{
name = center;
pos = (388,1032);
},
{
name = tick;
pos = (880,641);
},
{
name = top;
pos = (807,1486);
}
);
color = 4;
layerId = "2795BD5C-FE1E-44B5-B1D3-799347E852FC";
shapes = (
{
closed = 1;
nodes = (
(707,0,l),
(711,39,l),
(477,93,l),
(663,1450,l),
(649,1430,l),
(680,1435,o),
(715,1443,o),
(768,1442,cs),
(936,1440,o),
(963,1314,o),
(963,1128,cs),
(963,983,o),
(896,630,o),
(631,632,cs),
(606,632,o),
(565,635,o),
(514,649,c),
(506,580,l),
(552,570,o),
(627,565,o),
(684,565,cs),
(1259,565,o),
(1352,928,o),
(1352,1097,cs),
(1352,1357,o),
(1211,1499,o),
(861,1497,cs),
(677,1496,o),
(556,1486,o),
(465,1486,cs),
(153,1486,l),
(148,1450,l),
(266,1413,l),
(82,72,l),
(-48,38,l),
(-53,0,l)
);
}
);
width = 1310;
},
{
anchors = (
{
name = bottom;
pos = (197,0);
},
{
name = center;
pos = (311,1099);
},
{
name = tick;
pos = (750,641);
},
{
name = top;
pos = (725,1486);
}
);
layerId = "95CCB04D-97EC-4126-A206-216E0B8EC505";
shapes = (
{
closed = 1;
nodes = (
(508,0,l),
(513,36,l),
(261,69,l),
(450,1449,l),
(406,1422,l),
(472,1432,o),
(580,1450,o),
(646,1450,cs),
(847,1450,o),
(954,1347,o),
(954,1109,cs),
(954,793,o),
(809,630,o),
(524,630,cs),
(461,630,o),
(388,647,o),
(323,661,c),
(311,594,l),
(375,585,o),
(419,576,o),
(515,576,cs),
(835,576,o),
(1121,721,o),
(1121,1124,cs),
(1121,1372,o),
(951,1502,o),
(671,1502,cs),
(560,1502,o),
(497,1486,o),
(383,1486,cs),
(169,1486,l),
(164,1450,l),
(290,1420,l),
(104,67,l),
(-32,36,l),
(-37,0,l)
);
}
);
width = 1115;
},
{
anchors = (
{
name = bottom;
pos = (212,0);
},
{
name = center;
pos = (363,1035);
},
{
name = tick;
pos = (711,612);
},
{
name = top;
pos = (672,1486);
}
);
color = 4;
layerId = "8587C386-9485-4E77-8679-63F1A494C2C0";
shapes = (
{
closed = 1;
nodes = (
(466,0,l),
(474,78,l),
(294,98,l),
(478,1462,l),
(430,1384,l),
(487,1395,o),
(582,1410,o),
(644,1410,cs),
(837,1410,o),
(901,1313,o),
(901,1111,cs),
(901,795,o),
(769,626,o),
(526,626,cs),
(484,626,o),
(384,633,o),
(326,647,c),
(319,547,l),
(352,541,o),
(464,532,o),
(519,532,cs),
(820,532,o),
(1064,739,o),
(1064,1123,cs),
(1064,1381,o),
(933,1502,o),
(672,1502,cs),
(583,1502,o),
(507,1486,o),
(412,1486,cs),
(202,1486,l),
(194,1408,l),
(314,1388,l),
(140,98,l),
(14,78,l),
(5,0,l)
);
}
);
width = 1059;
},
{
anchors = (
{
name = bottom;
pos = (262,0);
},
{
name = center;
pos = (451,1006);
},
{
name = tick;
pos = (814,607);
},
{
name = top;
pos = (801,1486);
}
);
color = 4;
layerId = "F8806197-5953-4DD8-B2B5-EF301301BB43";
shapes = (
{
closed = 1;
nodes = (
(652,0,l),
(662,102,l),
(447,128,l),
(626,1452,l),
(501,1340,l),
(579,1372,o),
(631,1380,o),
(673,1380,cs),
(799,1380,o),
(887,1297,o),
(887,1099,cs),
(887,818,o),
(771,630,o),
(602,630,cs),
(519,630,o),
(467,645,o),
(440,654,c),
(445,514,l),
(465,511,o),
(546,505,o),
(590,505,cs),
(980,505,o),
(1219,722,o),
(1219,1096,cs),
(1219,1364,o),
(1079,1502,o),
(743,1502,cs),
(657,1502,o),
(566,1486,o),
(463,1486,cs),
(183,1486,l),
(171,1384,l),
(295,1357,l),
(125,128,l),
(9,102,l),
(-3,0,l)
);
}
);
width = 1183;
},
{
anchors = (
{
name = bottom;
pos = (202,0);
},
{
name = center;
pos = (338,1076);
},
{
name = tick;
pos = (735,641);
},
{
name = top;
pos = (672,1486);
}
);
color = 4;
layerId = "F318CEA5-7792-49D8-B68D-92025E304353";
shapes = (
{
closed = 1;
nodes = (
(484,0,l),
(488,36,l),
(280,69,l),
(469,1446,l),
(434,1423,l),
(489,1437,o),
(586,1451,o),
(639,1451,cs),
(825,1451,o),
(914,1343,o),
(910,1112,cs),
(905,807,o),
(768,621,o),
(522,621,cs),
(474,621,o),
(393,636,o),
(342,650,c),
(334,585,l),
(381,576,o),
(445,567,o),
(520,567,cs),
(835,567,o),
(1066,751,o),
(1072,1119,cs),
(1076,1377,o),
(928,1502,o),
(667,1502,cs),
(570,1502,o),
(495,1486,o),
(399,1486,cs),
(199,1486,l),
(194,1450,l),
(315,1420,l),
(129,67,l),
(-2,36,l),
(-7,0,l)
);
}
);
width = 1066;
},
{
anchors = (
{
name = bottom;
pos = (254,0);
},
{
name = center;
pos = (393,1022);
},
{
name = tick;
pos = (834,672);
},
{
name = top;
pos = (763,1486);
}
);
color = 4;
layerId = "7A2136B0-3E1D-476B-B826-4714342A6FC2";
shapes = (
{
closed = 1;
nodes = (
(677,0,l),
(682,36,l),
(441,83,l),
(629,1450,l),
(616,1431,l),
(641,1438,o),
(656,1444,o),
(704,1444,cs),
(839,1444,o),
(875,1317,o),
(875,1135,cs),
(875,1004,o),
(796,632,o),
(574,632,cs),
(554,632,o),
(526,634,o),
(481,648,c),
(474,583,l),
(513,573,o),
(576,568,o),
(625,568,cs),
(1123,568,o),
(1224,963,o),
(1224,1092,cs),
(1224,1347,o),
(1116,1502,o),
(767,1497,cs),
(636,1495,o),
(531,1486,o),
(451,1486,cs),
(159,1486,l),
(154,1450,l),
(282,1413,l),
(98,72,l),
(-42,38,l),
(-47,0,l)
);
}
);
width = 1183;
}
);
metricLeft = H;
unicode = 80;
userData = {
KernOnName = P;
};
}
{
glyphname = V;
lastChange = "2024-07-11 15:15:05 +0000";
layers = (
{
anchors = (
{
name = bottom;
pos = (501,0);
},
{
name = top;
pos = (725,1486);
}
);
layerId = "0C3FD5EE-D923-4A4A-8FDE-164881635915";
shapes = (
{
closed = 1;
nodes = (
(578,-10,l),
(1219,1388,l),
(1326,1406,l),
(1334,1486,l),
(942,1486,l),
(934,1406,l),
(1088,1386,l),
(665,442,l),
(520,70,l),
(556,66,l),
(511,442,l),
(352,1386,l),
(547,1406,l),
(555,1486,l),
(76,1486,l),
(68,1406,l),
(186,1386,l),
(438,-19,l)
);
}
);
width = 1193;
},
{
anchors = (
{
name = bottom;
pos = (505,0);
},
{
name = top;
pos = (765,1486);
}
);
layerId = "27298932-82AF-4578-9425-6304FDB19058";
shapes = (
{
closed = 1;
nodes = (
(663,-10,l),
(1303,1355,l),
(1421,1379,l),
(1433,1486,l),
(948,1486,l),
(938,1379,l),
(1111,1355,l),
(716,496,l),
(579,146,l),
(640,137,l),
(611,496,l),
(544,1355,l),
(684,1379,l),
(693,1486,l),
(80,1486,l),
(66,1381,l),
(192,1355,l),
(374,-10,l)
);
}
);
width = 1273;
},
{
anchors = (
{
name = bottom;
pos = (633,0);
},
{
name = top;
pos = (837,1486);
}
);
color = 1;
layerId = "9079322E-D2EB-4437-A6B9-48C6726F1892";
shapes = (
{
closed = 1;
nodes = (
(736,-10,l),
(1435,1355,l),
(1566,1380,l),
(1578,1486,l),
(1059,1486,l),
(1048,1380,l),
(1240,1355,l),
(804,496,l),
(654,146,l),
(718,137,l),
(685,496,l),
(571,1355,l),
(738,1380,l),
(746,1486,l),
(80,1486,l),
(68,1380,l),
(208,1355,l),
(448,-10,l)
);
}
);
width = 1418;
},
{
anchors = (
{
name = bottom;
pos = (592,0);
},
{
name = top;
pos = (796,1486);
}
);
color = 4;
layerId = "AB43ED1F-BEAA-4517-9B18-06741265F15E";
shapes = (
{
closed = 1;
nodes = (
(649,-10,l),
(1350,1388,l),
(1469,1406,l),
(1476,1486,l),
(1046,1486,l),
(1038,1406,l),
(1209,1386,l),
(748,442,l),
(581,70,l),
(634,65,l),
(567,442,l),
(369,1386,l),
(592,1406,l),
(600,1486,l),
(76,1486,l),
(69,1406,l),
(201,1386,l),
(506,-19,l)
);
}
);
width = 1336;
},
{
anchors = (
{
name = bottom;
pos = (573,0);
},
{
name = top;
pos = (777,1486);
}
);
color = 4;
layerId = "0E81F995-ADCA-4265-BF48-502C19DBCB17";
shapes = (
{
closed = 1;
nodes = (
(726,0,l),
(1306,1417,l),
(1442,1452,l),
(1447,1486,l),
(1042,1486,l),
(1037,1452,l),
(1192,1417,l),
(782,324,l),
(697,66,l),
(736,116,l),
(697,473,l),
(572,1414,l),
(724,1448,l),
(729,1486,l),
(80,1486,l),
(76,1448,l),
(191,1414,l),
(420,0,l)
);
}
);
width = 1284;
},
{
anchors = (
{
name = bottom;
pos = (533,0);
},
{
name = top;
pos = (737,1486);
}
);
color = 4;
layerId = "10D406F4-E64B-40B9-806E-EB589F33F511";
shapes = (
{
closed = 1;
nodes = (
(563,-11,l),
(1227,1428,l),
(1343,1450,l),
(1348,1486,l),
(952,1486,l),
(948,1450,l),
(1126,1426,l),
(622,285,l),
(520,54,l),
(557,48,l),
(533,240,l),
(342,1420,l),
(521,1450,l),
(529,1486,l),
(76,1486,l),
(72,1450,l),
(184,1424,l),
(438,-19,l)
);
}
);
width = 1204;
},
{
anchors = (
{
name = bottom;
pos = (618,0);
},
{
name = top;
pos = (822,1486);
}
);
color = 4;
layerId = "2795BD5C-FE1E-44B5-B1D3-799347E852FC";
shapes = (
{
closed = 1;
nodes = (
(776,0,l),
(1396,1417,l),
(1532,1452,l),
(1537,1486,l),
(1132,1486,l),
(1127,1452,l),
(1282,1417,l),
(835,324,l),
(751,80,l),
(785,130,l),
(738,473,l),
(572,1414,l),
(724,1448,l),
(729,1486,l),
(80,1486,l),
(76,1448,l),
(191,1414,l),
(461,0,l)
);
}
);
width = 1374;
},
{
anchors = (
{
name = bottom;
pos = (582,0);
},
{
name = top;
pos = (786,1486);
}
);
layerId = "95CCB04D-97EC-4126-A206-216E0B8EC505";
shapes = (
{
closed = 1;
nodes = (
(608,-12,l),
(1316,1429,l),
(1440,1450,l),
(1445,1486,l),
(1019,1486,l),
(1014,1450,l),
(1208,1426,l),
(669,283,l),
(560,53,l),
(600,44,l),
(577,227,l),
(349,1420,l),
(557,1450,l),
(562,1486,l),
(76,1486,l),
(72,1450,l),
(190,1425,l),
(484,-20,l)
);
}
);
width = 1301;
},
{
anchors = (
{
name = bottom;
pos = (451,0);
},
{
name = top;
pos = (655,1486);
}
);
color = 4;
layerId = "8587C386-9485-4E77-8679-63F1A494C2C0";
shapes = (
{
closed = 1;
nodes = (
(497,-10,l),
(1082,1390,l),
(1176,1408,l),
(1185,1486,l),
(837,1486,l),
(828,1408,l),
(963,1388,l),
(579,439,l),
(436,65,l),
(484,62,l),
(450,439,l),
(342,1388,l),
(506,1408,l),
(514,1486,l),
(86,1486,l),
(78,1407,l),
(181,1388,l),
(362,-20,l)
);
}
);
width = 1053;
},
{
anchors = (
{
name = bottom;
pos = (491,0);
},
{
name = top;
pos = (695,1486);
}
);
color = 4;
layerId = "F8806197-5953-4DD8-B2B5-EF301301BB43";
shapes = (
{
closed = 1;
nodes = (
(592,-10,l),
(1176,1357,l),
(1282,1384,l),
(1294,1486,l),
(857,1486,l),
(848,1384,l),
(1000,1357,l),
(658,520,l),
(519,141,l),
(575,133,l),
(561,493,l),
(507,1357,l),
(620,1382,l),
(628,1486,l),
(80,1486,l),
(68,1384,l),
(174,1357,l),
(310,-11,l)
);
}
);
width = 1133;
},
{
anchors = (
{
name = bottom;
pos = (466,0);
},
{
name = top;
pos = (670,1486);
}
);
color = 4;
layerId = "F318CEA5-7792-49D8-B68D-92025E304353";
shapes = (
{
closed = 1;
nodes = (
(504,-11,l),
(1122,1425,l),
(1217,1450,l),
(1222,1486,l),
(872,1486,l),
(867,1450,l),
(1028,1423,l),
(533,218,l),
(468,57,l),
(499,54,l),
(485,253,l),
(366,1419,l),
(539,1450,l),
(544,1486,l),
(115,1486,l),
(110,1450,l),
(211,1423,l),
(379,-11,l)
);
}
);
width = 1069;
},
{
anchors = (
{
name = bottom;
pos = (543,0);
},
{
name = top;
pos = (747,1486);
}
);
color = 4;
layerId = "7A2136B0-3E1D-476B-B826-4714342A6FC2";
shapes = (
{
closed = 1;
nodes = (
(696,0,l),
(1256,1417,l),
(1392,1452,l),
(1397,1486,l),
(992,1486,l),
(987,1452,l),
(1142,1417,l),
(750,324,l),
(666,80,l),
(705,130,l),
(667,473,l),
(542,1414,l),
(694,1448,l),
(699,1486,l),
(80,1486,l),
(76,1448,l),
(191,1414,l),
(400,0,l)
);
}
);
width = 1224;
}
);
unicode = 86;
userData = {
KernOnName = V;
};
}
{
glyphname = Y;
layers = (
{
anchors = (
{
name = bottom;
pos = (498,0);
},
{
name = center;
pos = (641,1134);
},
{
name = top;
pos = (684,1486);
},
{
name = topleft;
pos = (135,1486);
}
);
layerId = "0C3FD5EE-D923-4A4A-8FDE-164881635915";
shapes = (
{
closed = 1;
nodes = (
(795,0,l),
(803,70,l),
(586,94,l),
(656,646,l),
(607,511,l),
(1164,1388,l),
(1274,1406,l),
(1282,1486,l),
(884,1486,l),
(874,1406,l),
(1029,1386,l),
(675,805,l),
(563,612,l),
(621,605,l),
(561,807,l),
(350,1386,l),
(513,1406,l),
(523,1486,l),
(78,1486,l),
(66,1406,l),
(181,1386,l),
(522,504,l),
(504,646,l),
(434,94,l),
(206,70,l),
(199,0,l)
);
}
);
width = 1125;
},
{
anchors = (
{
name = bottom;
pos = (585,0);
},
{
name = center;
pos = (722,1134);
},
{
name = top;
pos = (843,1486);
},
{
name = topleft;
pos = (177,1486);
}
);
layerId = "27298932-82AF-4578-9425-6304FDB19058";
shapes = (
{
closed = 1;
nodes = (
(992,0,l),
(1002,103,l),
(762,131,l),
(840,726,l),
(746,474,l),
(1325,1355,l),
(1452,1379,l),
(1466,1486,l),
(950,1486,l),
(940,1379,l),
(1100,1355,l),
(818,884,l),
(678,618,l),
(781,608,l),
(699,884,l),
(540,1355,l),
(708,1379,l),
(723,1486,l),
(60,1486,l),
(42,1378,l),
(162,1356,l),
(540,463,l),
(503,727,l),
(430,130,l),
(200,103,l),
(188,0,l)
);
}
);
width = 1287;
},
{
anchors = (
{
name = bottom;
pos = (648,0);
},
{
name = center;
pos = (784,1134);
},
{
name = top;
pos = (846,1486);
},
{
name = topleft;
pos = (180,1486);
}
);
color = 1;
layerId = "9079322E-D2EB-4437-A6B9-48C6726F1892";
shapes = (
{
closed = 1;
nodes = (
(1082,0,l),
(1094,111,l),
(829,143,l),
(909,726,l),
(807,474,l),
(1441,1355,l),
(1581,1380,l),
(1593,1486,l),
(1034,1486,l),
(1022,1380,l),
(1204,1355,l),
(881,864,l),
(733,618,l),
(841,608,l),
(748,884,l),
(552,1355,l),
(740,1380,l),
(752,1486,l),
(47,1486,l),
(35,1380,l),
(164,1358,l),
(598,463,l),
(561,727,l),
(481,143,l),
(226,111,l),
(214,0,l)
);
}
);
width = 1406;
},
{
anchors = (
{
name = bottom;
pos = (554,0);
},
{
name = center;
pos = (687,1134);
},
{
name = top;
pos = (710,1486);
},
{
name = topleft;
pos = (161,1486);
}
);
color = 4;
layerId = "AB43ED1F-BEAA-4517-9B18-06741265F15E";
shapes = (
{
closed = 1;
nodes = (
(879,0,l),
(887,78,l),
(650,102,l),
(723,651,l),
(667,511,l),
(1278,1388,l),
(1400,1406,l),
(1407,1486,l),
(972,1486,l),
(962,1406,l),
(1135,1386,l),
(739,805,l),
(619,612,l),
(680,605,l),
(612,807,l),
(364,1386,l),
(546,1406,l),
(555,1486,l),
(77,1486,l),
(66,1406,l),
(194,1386,l),
(583,504,l),
(563,656,l),
(490,102,l),
(238,78,l),
(230,0,l)
);
}
);
width = 1251;
},
{
anchors = (
{
name = bottom;
pos = (525,0);
},
{
name = center;
pos = (681,1134);
},
{
name = top;
pos = (729,1486);
},
{
name = topleft;
pos = (155,1486);
}
);
color = 4;
layerId = "0E81F995-ADCA-4265-BF48-502C19DBCB17";
shapes = (
{
closed = 1;
nodes = (
(968,0,l),
(972,39,l),
(729,84,l),
(819,745,l),
(731,561,l),
(1227,1417,l),
(1363,1450,l),
(1368,1486,l),
(981,1486,l),
(976,1450,l),
(1111,1417,l),
(810,839,l),
(687,600,l),
(785,699,l),
(727,892,l),
(544,1413,l),
(688,1450,l),
(693,1486,l),
(57,1486,l),
(52,1450,l),
(160,1417,l),
(489,537,l),
(456,802,l),
(358,84,l),
(127,39,l),
(122,0,l)
);
}
);
width = 1188;
},
{
anchors = (
{
name = bottom;
pos = (494,0);
},
{
name = center;
pos = (626,1134);
},
{
name = top;
pos = (672,1486);
},
{
name = topleft;
pos = (123,1486);
}
);
color = 4;
layerId = "10D406F4-E64B-40B9-806E-EB589F33F511";
shapes = (
{
closed = 1;
nodes = (
(779,0,l),
(784,36,l),
(573,69,l),
(653,652,l),
(587,510,l),
(1142,1432,l),
(1256,1450,l),
(1260,1486,l),
(892,1486,l),
(887,1450,l),
(1037,1430,l),
(676,805,l),
(568,612,l),
(619,605,l),
(559,807,l),
(338,1430,l),
(506,1450,l),
(511,1486,l),
(77,1486,l),
(72,1450,l),
(169,1430,l),
(518,504,l),
(496,646,l),
(417,67,l),
(212,36,l),
(207,0,l)
);
}
);
width = 1101;
},
{
anchors = (
{
name = bottom;
pos = (603,0);
},
{
name = center;
pos = (744,1134);
},
{
name = top;
pos = (831,1486);
},
{
name = topleft;
pos = (214,1486);
}
);
color = 4;
layerId = "2795BD5C-FE1E-44B5-B1D3-799347E852FC";
shapes = (
{
closed = 1;
nodes = (
(1056,0,l),
(1060,39,l),
(784,84,l),
(873,734,l),
(784,561,l),
(1315,1415,l),
(1458,1450,l),
(1463,1486,l),
(1054,1486,l),
(1049,1450,l),
(1192,1415,l),
(866,825,l),
(737,590,l),
(840,698,l),
(778,891,l),
(576,1411,l),
(749,1450,l),
(754,1486,l),
(57,1486,l),
(52,1450,l),
(167,1415,l),
(530,537,l),
(487,801,l),
(389,84,l),
(153,39,l),
(148,0,l)
);
}
);
width = 1283;
},
{
anchors = (
{
name = bottom;
pos = (542,0);
},
{
name = center;
pos = (703,1134);
},
{
name = top;
pos = (727,1486);
},
{
name = topleft;
pos = (141,1486);
}
);
layerId = "95CCB04D-97EC-4126-A206-216E0B8EC505";
shapes = (
{
closed = 1;
nodes = (
(842,0,l),
(847,36,l),
(621,66,l),
(702,651,l),
(643,507,l),
(1236,1433,l),
(1357,1450,l),
(1362,1486,l),
(965,1486,l),
(960,1450,l),
(1124,1431,l),
(736,798,l),
(622,602,l),
(675,600,l),
(608,802,l),
(360,1431,l),
(543,1450,l),
(548,1486,l),
(77,1486,l),
(72,1450,l),
(193,1431,l),
(578,502,l),
(544,637,l),
(465,66,l),
(245,36,l),
(240,0,l)
);
}
);
width = 1202;
},
{
anchors = (
{
name = bottom;
pos = (433,0);
},
{
name = center;
pos = (591,1110);
},
{
name = top;
pos = (689,1486);
},
{
name = topleft;
pos = (140,1486);
}
);
color = 4;
layerId = "8587C386-9485-4E77-8679-63F1A494C2C0";
shapes = (
{
closed = 1;
nodes = (
(714,0,l),
(723,78,l),
(538,102,l),
(610,639,l),
(557,513,l),
(1045,1390,l),
(1142,1408,l),
(1150,1486,l),
(794,1486,l),
(785,1408,l),
(919,1388,l),
(618,800,l),
(515,602,l),
(573,605,l),
(523,802,l),
(340,1388,l),
(482,1408,l),
(490,1486,l),
(87,1486,l),
(78,1408,l),
(177,1388,l),
(472,506,l),
(457,646,l),
(384,102,l),
(187,78,l),
(179,0,l)
);
}
);
width = 1003;
},
{
anchors = (
{
name = bottom;
pos = (498,0);
},
{
name = center;
pos = (652,1134);
},
{
name = top;
pos = (816,1486);
},
{
name = topleft;
pos = (150,1486);
}
);
color = 4;
layerId = "F8806197-5953-4DD8-B2B5-EF301301BB43";
shapes = (
{
closed = 1;
nodes = (
(855,0,l),
(867,102,l),
(670,129,l),
(752,721,l),
(654,476,l),
(1178,1360,l),
(1292,1384,l),
(1304,1486,l),
(842,1486,l),
(830,1384,l),
(969,1360,l),
(726,879,l),
(595,618,l),
(681,608,l),
(622,879,l),
(502,1362,l),
(641,1384,l),
(653,1486,l),
(57,1486,l),
(45,1384,l),
(143,1362,l),
(456,466,l),
(429,722,l),
(348,129,l),
(146,102,l),
(134,0,l)
);
}
);
width = 1126;
},
{
anchors = (
{
name = bottom;
pos = (439,0);
},
{
name = center;
pos = (576,1134);
},
{
name = top;
pos = (626,1486);
},
{
name = topleft;
pos = (126,1486);
}
);
color = 4;
layerId = "F318CEA5-7792-49D8-B68D-92025E304353";
shapes = (
{
closed = 1;
nodes = (
(698,0,l),
(703,36,l),
(507,67,l),
(588,660,l),
(533,514,l),
(1045,1426,l),
(1149,1450,l),
(1154,1486,l),
(823,1486,l),
(818,1450,l),
(951,1424,l),
(621,808,l),
(522,612,l),
(568,613,l),
(513,814,l),
(327,1429,l),
(475,1450,l),
(480,1486,l),
(77,1486,l),
(72,1450,l),
(168,1429,l),
(466,507,l),
(438,658,l),
(357,67,l),
(172,36,l),
(167,0,l)
);
}
);
width = 994;
},
{
anchors = (
{
name = bottom;
pos = (490,0);
},
{
name = center;
pos = (631,1134);
},
{
name = top;
pos = (768,1486);
},
{
name = topleft;
pos = (171,1486);
}
);
color = 4;
layerId = "7A2136B0-3E1D-476B-B826-4714342A6FC2";
shapes = (
{
closed = 1;
nodes = (
(832,0,l),
(837,38,l),
(666,81,l),
(758,753,l),
(674,565,l),
(1123,1416,l),
(1247,1450,l),
(1252,1486,l),
(895,1486,l),
(890,1450,l),
(1015,1417,l),
(748,849,l),
(634,610,l),
(726,707,l),
(678,899,l),
(550,1412,l),
(676,1452,l),
(681,1486,l),
(71,1486,l),
(66,1452,l),
(162,1416,l),
(426,540,l),
(420,816,l),
(319,81,l),
(151,38,l),
(146,0,l)
);
}
);
width = 1062;
}
);
unicode = 89;
userData = {
KernOnName = Y;
};
}
{
glyphname = Z;
layers = (
{
anchors = (
{
name = bottom;
pos = (534,0);
},
{
name = center;
pos = (589,745);
},
{
name = top;
pos = (702,1486);
}
);
layerId = "0C3FD5EE-D923-4A4A-8FDE-164881635915";
shapes = (
{
closed = 1;
nodes = (
(1003,0,l),
(1094,349,l),
(999,376,l),
(880,107,l),
(179,87,l),
(321,266,l),
(1186,1415,l),
(1168,1486,l),
(246,1486,l),
(189,1147,l),
(284,1129,l),
(370,1387,l),
(1005,1394,l),
(834,1193,l),
(-10,73,l),
(11,0,l)
);
}
);
width = 1183;
},
{
anchors = (
{
name = bottom;
pos = (541,0);
},
{
name = center;
pos = (629,745);
},
{
name = top;
pos = (734,1486);
}
);
layerId = "27298932-82AF-4578-9425-6304FDB19058";
shapes = (
{
closed = 1;
nodes = (
(1086,0,l),
(1184,422,l),
(1017,469,l),
(827,154,l),
(346,133,l),
(457,231,l),
(1288,1402,l),
(1258,1486,l),
(215,1486,l),
(153,1103,l),
(321,1082,l),
(459,1345,l),
(928,1363,l),
(806,1264,l),
(-36,86,l),
(-2,0,l)
);
}
);
width = 1239;
},
{
anchors = (
{
name = bottom;
pos = (597.974,0);
},
{
name = center;
pos = (689,745);
},
{
name = top;
pos = (801.531,1486);
}
);
color = 1;
layerId = "9079322E-D2EB-4437-A6B9-48C6726F1892";
shapes = (
{
closed = 1;
nodes = (
(1197,0,l),
(1299,422,l),
(1123,469,l),
(927,154,l),
(366,133,l),
(485,241,l),
(1398,1402,l),
(1365,1486,l),
(251,1486,l),
(188,1103,l),
(364,1082,l),
(506,1345,l),
(1016,1363,l),
(881,1254,l),
(-39,86,l),
(-1,0,l)
);
}
);
width = 1347;
},
{
anchors = (
{
name = bottom;
pos = (556,0);
},
{
name = center;
pos = (659,745);
},
{
name = top;
pos = (774,1486);
}
);
color = 4;
layerId = "AB43ED1F-BEAA-4517-9B18-06741265F15E";
shapes = (
{
closed = 1;
nodes = (
(1110,0,l),
(1207,349,l),
(1107,376,l),
(983,107,l),
(179,87,l),
(365,295,l),
(1296,1415,l),
(1276,1486,l),
(257,1486,l),
(197,1147,l),
(297,1129,l),
(386,1387,l),
(1111,1394,l),
(921,1193,l),
(-10,73,l),
(13,0,l)
);
}
);
width = 1296;
},
{
anchors = (
{
name = bottom;
pos = (599,0);
},
{
name = center;
pos = (669,745);
},
{
name = top;
pos = (806,1486);
}
);
color = 4;
layerId = "0E81F995-ADCA-4265-BF48-502C19DBCB17";
shapes = (
{
closed = 1;
nodes = (
(1180,0,l),
(1288,472,l),
(1120,492,l),
(914,91,l),
(360,54,l),
(500,211,l),
(1408,1456,l),
(1395,1486,l),
(253,1486,l),
(173,1062,l),
(353,1062,l),
(509,1407,l),
(1003,1431,l),
(863,1274,l),
(-47,29,l),
(-35,0,l)
);
}
);
width = 1329;
},
{
anchors = (
{
name = bottom;
pos = (544,0);
},
{
name = center;
pos = (599,745);
},
{
name = top;
pos = (717,1486);
}
);
color = 4;
layerId = "10D406F4-E64B-40B9-806E-EB589F33F511";
shapes = (
{
closed = 1;
nodes = (
(1003,0,l),
(1094,357,l),
(1027,376,l),
(904,107,l),
(162,61,l),
(334,266,l),
(1211,1455,l),
(1198,1486,l),
(271,1486,l),
(214,1147,l),
(272,1138,l),
(383,1406,l),
(1032,1430,l),
(841,1193,l),
(-15,33,l),
(1,0,l)
);
}
);
width = 1182;
},
{
anchors = (
{
name = bottom;
pos = (619,0);
},
{
name = center;
pos = (699,745);
},
{
name = top;
pos = (842,1486);
}
);
color = 4;
layerId = "2795BD5C-FE1E-44B5-B1D3-799347E852FC";
shapes = (
{
closed = 1;
nodes = (
(1188,0,l),
(1289,451,l),
(1102,471,l),
(886,81,l),
(409,54,l),
(564,231,l),
(1399,1456,l),
(1385,1486,l),
(263,1486,l),
(181,1063,l),
(370,1063,l),
(533,1407,l),
(975,1431,l),
(826,1263,l),
(-17,29,l),
(-4,0,l)
);
}
);
width = 1344;
},
{
anchors = (
{
name = bottom;
pos = (582,0);
},
{
name = center;
pos = (659,745);
},
{
name = top;
pos = (752,1486);
}
);
layerId = "95CCB04D-97EC-4126-A206-216E0B8EC505";
shapes = (
{
closed = 1;
nodes = (
(1071,0,l),
(1166,352,l),
(1102,371,l),
(978,101,l),
(160,66,l),
(346,269,l),
(1280,1455,l),
(1267,1486,l),
(276,1486,l),
(219,1152,l),
(273,1142,l),
(387,1400,l),
(1105,1420,l),
(893,1189,l),
(-15,35,l),
(-3,0,l)
);
}
);
width = 1255;
},
{
anchors = (
{
name = bottom;
pos = (548,0);
},
{
name = center;
pos = (529,764);
},
{
name = top;
pos = (706,1486);
}
);
color = 4;
layerId = "8587C386-9485-4E77-8679-63F1A494C2C0";
shapes = (
{
closed = 1;
nodes = (
(875,0,l),
(961,345,l),
(873,370,l),
(757,104,l),
(162,84,l),
(312,299,l),
(1065,1416,l),
(1050,1486,l),
(244,1486,l),
(187,1150,l),
(275,1132,l),
(360,1389,l),
(891,1396,l),
(743,1189,l),
(-10,72,l),
(7,0,l)
);
}
);
width = 1051;
},
{
anchors = (
{
name = bottom;
pos = (534,0);
},
{
name = center;
pos = (549,745);
},
{
name = top;
pos = (727,1486);
}
);
color = 4;
layerId = "F8806197-5953-4DD8-B2B5-EF301301BB43";
shapes = (
{
closed = 1;
nodes = (
(953,0,l),
(1048,417,l),
(893,463,l),
(710,151,l),
(316,130,l),
(409,243,l),
(1152,1403,l),
(1126,1486,l),
(225,1486,l),
(162,1106,l),
(319,1085,l),
(452,1348,l),
(814,1365,l),
(715,1250,l),
(-44,85,l),
(-14,0,l)
);
}
);
width = 1091;
},
{
anchors = (
{
name = bottom;
pos = (491,0);
},
{
name = center;
pos = (539,745);
},
{
name = top;
pos = (669,1486);
}
);
color = 4;
layerId = "F318CEA5-7792-49D8-B68D-92025E304353";
shapes = (
{
closed = 1;
nodes = (
(893,0,l),
(980,360,l),
(921,379,l),
(804,95,l),
(151,62,l),
(306,261,l),
(1108,1455,l),
(1097,1486,l),
(262,1486,l),
(204,1140,l),
(263,1131,l),
(369,1406,l),
(942,1424,l),
(770,1200,l),
(-15,33,l),
(-2,0,l)
);
}
);
width = 1068;
},
{
anchors = (
{
name = bottom;
pos = (493,0);
},
{
name = center;
pos = (589,745);
},
{
name = top;
pos = (711,1486);
}
);
color = 4;
layerId = "7A2136B0-3E1D-476B-B826-4714342A6FC2";
shapes = (
{
closed = 1;
nodes = (
(1032,0,l),
(1126,460,l),
(960,480,l),
(779,74,l),
(335,48,l),
(467,206,l),
(1229,1456,l),
(1218,1486,l),
(222,1486,l),
(143,1055,l),
(313,1055,l),
(460,1412,l),
(850,1437,l),
(728,1281,l),
(-34,29,l),
(-24,0,l)
);
}
);
width = 1167;
}
);
unicode = 90;
userData = {
KernOnName = Z;
};
}
{
glyphname = bracketleft;
layers = (
{
layerId = "0C3FD5EE-D923-4A4A-8FDE-164881635915";
shapes = (
{
closed = 1;
nodes = (
(419,-319,o),
(528,-303,o),
(611,-282,c),
(619,-211,l),
(330,-209,l),
(558,1579,l),
(841,1579,l),
(851,1650,l),
(832,1652,o),
(674,1689,o),
(580,1689,cs),
(460,1689,o),
(421,1642,o),
(401,1490,cs),
(193,-118,ls),
(174,-267,o),
(192,-319,o),
(324,-319,cs)
);
}
);
width = 845;
},
{
layerId = "27298932-82AF-4578-9425-6304FDB19058";
shapes = (
{
closed = 1;
nodes = (
(442,-339,o),
(515,-319,o),
(603,-293,c),
(617,-170,l),
(348,-168,l),
(583,1564,l),
(852,1564,l),
(871,1683,l),
(871,1683,o),
(703,1729,o),
(617,1729,cs),
(464,1729,o),
(343,1668,o),
(317,1484,cs),
(98,-94,ls),
(69,-277,o),
(140,-339,o),
(336,-339,cs)
);
}
);
width = 853;
},
{
layerId = "9079322E-D2EB-4437-A6B9-48C6726F1892";
shapes = (
{
closed = 1;
nodes = (
(441,-339,o),
(514,-319,o),
(602,-293,c),
(616,-170,l),
(347,-168,l),
(583,1564,l),
(852,1564,l),
(871,1683,l),
(871,1683,o),
(703,1729,o),
(617,1729,cs),
(464,1729,o),
(343,1669,o),
(317,1484,cs),
(97,-94,ls),
(71,-278,o),
(139,-339,o),
(335,-339,cs)
);
}
);
width = 833;
},
{
layerId = "AB43ED1F-BEAA-4517-9B18-06741265F15E";
shapes = (
{
closed = 1;
nodes = (
(419,-319,o),
(528,-303,o),
(611,-282,c),
(619,-211,l),
(330,-209,l),
(558,1579,l),
(841,1579,l),
(851,1650,l),
(832,1652,o),
(674,1689,o),
(580,1689,cs),
(460,1689,o),
(421,1642,o),
(401,1490,cs),
(193,-118,ls),
(174,-267,o),
(192,-319,o),
(324,-319,cs)
);
}
);
width = 839;
},
{
layerId = "0E81F995-ADCA-4265-BF48-502C19DBCB17";
shapes = (
{
closed = 1;
nodes = (
(421,-255,o),
(521,-236,o),
(604,-215,c),
(609,-178,l),
(396,-178,l),
(634,1577,l),
(847,1577,l),
(852,1612,l),
(774,1631,o),
(682,1652,o),
(575,1652,cs),
(420,1652,o),
(332,1615,o),
(310,1450,cs),
(108,-53,ls),
(86,-218,o),
(160,-255,o),
(315,-255,cs)
);
}
);
width = 842;
},
{
layerId = "10D406F4-E64B-40B9-806E-EB589F33F511";
shapes = (
{
closed = 1;
nodes = (
(282,-240,o),
(365,-224,o),
(444,-204,c),
(449,-161,l),
(183,-161,l),
(420,1569,l),
(686,1569,l),
(692,1612,l),
(624,1628,o),
(547,1646,o),
(471,1646,cs),
(367,1646,o),
(323,1624,o),
(310,1526,cs),
(85,-120,ls),
(72,-218,o),
(108,-240,o),
(212,-240,cs)
);
}
);
width = 641;
},
{
layerId = "2795BD5C-FE1E-44B5-B1D3-799347E852FC";
shapes = (
{
closed = 1;
nodes = (
(394,-255,o),
(495,-236,o),
(578,-215,c),
(583,-178,l),
(368,-178,l),
(606,1577,l),
(821,1577,l),
(826,1612,l),
(748,1631,o),
(655,1652,o),
(548,1652,cs),
(393,1652,o),
(296,1615,o),
(274,1450,cs),
(72,-53,ls),
(50,-218,o),
(133,-255,o),
(288,-255,cs)
);
}
);
width = 836;
},
{
layerId = "95CCB04D-97EC-4126-A206-216E0B8EC505";
shapes = (
{
closed = 1;
nodes = (
(291,-240,o),
(376,-224,o),
(457,-204,c),
(463,-161,l),
(189,-161,l),
(424,1570,l),
(698,1570,l),
(704,1613,l),
(633,1629,o),
(554,1647,o),
(476,1647,cs),
(369,1647,o),
(323,1625,o),
(310,1527,cs),
(88,-120,ls),
(75,-218,o),
(112,-240,o),
(219,-240,cs)
);
}
);
width = 654;
},
{
layerId = "8587C386-9485-4E77-8679-63F1A494C2C0";
shapes = (
{
closed = 1;
nodes = (
(419,-319,o),
(528,-303,o),
(611,-282,c),
(619,-211,l),
(330,-209,l),
(558,1579,l),
(841,1579,l),
(851,1650,l),
(832,1652,o),
(674,1689,o),
(580,1689,cs),
(460,1689,o),
(421,1642,o),
(401,1490,cs),
(193,-118,ls),
(174,-267,o),
(192,-319,o),
(324,-319,cs)
);
}
);
width = 845;
},
{
layerId = "F8806197-5953-4DD8-B2B5-EF301301BB43";
shapes = (
{
closed = 1;
nodes = (
(440,-339,o),
(513,-319,o),
(601,-293,c),
(615,-170,l),
(346,-168,l),
(583,1564,l),
(852,1564,l),
(871,1683,l),
(871,1683,o),
(703,1729,o),
(617,1729,cs),
(464,1729,o),
(343,1669,o),
(317,1484,cs),
(96,-94,ls),
(70,-277,o),
(138,-339,o),
(334,-339,cs)
);
}
);
width = 853;
},
{
layerId = "F318CEA5-7792-49D8-B68D-92025E304353";
shapes = (
{
closed = 1;
nodes = (
(267,-240,o),
(348,-224,o),
(426,-204,c),
(431,-161,l),
(174,-161,l),
(416,1570,l),
(674,1570,l),
(679,1613,l),
(613,1629,o),
(537,1647,o),
(463,1647,cs),
(361,1647,o),
(319,1625,o),
(305,1527,cs),
(75,-120,ls),
(61,-218,o),
(97,-240,o),
(199,-240,cs)
);
}
);
width = 628;
},
{
layerId = "7A2136B0-3E1D-476B-B826-4714342A6FC2";
shapes = (
{
closed = 1;
nodes = (
(368,-255,o),
(458,-236,o),
(530,-215,c),
(536,-178,l),
(357,-178,l),
(598,1577,l),
(777,1577,l),
(782,1612,l),
(713,1631,o),
(631,1652,o),
(537,1652,cs),
(401,1652,o),
(314,1618,o),
(292,1453,cs),
(87,-56,ls),
(65,-221,o),
(139,-255,o),
(275,-255,cs)
);
}
);
width = 790;
}
);
unicode = 91;
userData = {
KernOnSpecialSpacing = {
L = NoKerning;
R = parenthesis;
};
};
}
{
glyphname = backslash;
layers = (
{
layerId = "0C3FD5EE-D923-4A4A-8FDE-164881635915";
shapes = (
{
closed = 1;
nodes = (
(873,-354,l),
(309,1562,l),
(174,1562,l),
(738,-354,l)
);
}
);
width = 938;
},
{
layerId = "27298932-82AF-4578-9425-6304FDB19058";
shapes = (
{
closed = 1;
nodes = (
(917,-354,l),
(353,1568,l),
(134,1568,l),
(696,-354,l)
);
}
);
width = 939;
},
{
layerId = "9079322E-D2EB-4437-A6B9-48C6726F1892";
shapes = (
{
closed = 1;
nodes = (
(917,-354,l),
(353,1568,l),
(134,1568,l),
(696,-354,l)
);
}
);
width = 939;
},
{
layerId = "AB43ED1F-BEAA-4517-9B18-06741265F15E";
shapes = (
{
closed = 1;
nodes = (
(873,-354,l),
(309,1562,l),
(174,1562,l),
(738,-354,l)
);
}
);
width = 938;
},
{
layerId = "0E81F995-ADCA-4265-BF48-502C19DBCB17";
shapes = (
{
closed = 1;
nodes = (
(800,-354,l),
(236,1568,l),
(165,1568,l),
(727,-354,l)
);
}
);
width = 877;
},
{
layerId = "10D406F4-E64B-40B9-806E-EB589F33F511";
shapes = (
{
closed = 1;
nodes = (
(845,-354,l),
(281,1562,l),
(185,1562,l),
(749,-354,l)
);
}
);
width = 895;
},
{
layerId = "2795BD5C-FE1E-44B5-B1D3-799347E852FC";
shapes = (
{
closed = 1;
nodes = (
(830,-354,l),
(266,1568,l),
(195,1568,l),
(757,-354,l)
);
}
);
width = 884;
},
{
layerId = "95CCB04D-97EC-4126-A206-216E0B8EC505";
shapes = (
{
closed = 1;
nodes = (
(875,-354,l),
(311,1562,l),
(215,1562,l),
(779,-354,l)
);
}
);
width = 925;
},
{
layerId = "8587C386-9485-4E77-8679-63F1A494C2C0";
shapes = (
{
closed = 1;
nodes = (
(873,-354,l),
(309,1562,l),
(174,1562,l),
(738,-354,l)
);
}
);
width = 938;
},
{
layerId = "F8806197-5953-4DD8-B2B5-EF301301BB43";
shapes = (
{
closed = 1;
nodes = (
(917,-354,l),
(353,1568,l),
(134,1568,l),
(696,-354,l)
);
}
);
width = 939;
},
{
layerId = "F318CEA5-7792-49D8-B68D-92025E304353";
shapes = (
{
closed = 1;
nodes = (
(845,-354,l),
(281,1562,l),
(185,1562,l),
(749,-354,l)
);
}
);
width = 895;
},
{
layerId = "7A2136B0-3E1D-476B-B826-4714342A6FC2";
shapes = (
{
closed = 1;
nodes = (
(831,-354,l),
(267,1568,l),
(196,1568,l),
(758,-354,l)
);
}
);
width = 908;
}
);
unicode = 92;
userData = {
KernOnSpecialSpacing = {
L = "spaced-off";
R = "spaced-off";
};
};
}
{
glyphname = grave;
layers = (
{
anchors = (
{
name = _top;
pos = (557,1108);
},
{
name = top;
pos = (634,1657);
}
);
layerId = "0C3FD5EE-D923-4A4A-8FDE-164881635915";
shapes = (
{
closed = 1;
nodes = (
(683,1308,l),
(426,1702,l),
(311,1596,l),
(360,1506,o),
(548,1314,o),
(632,1258,c)
);
}
);
width = 748;
},
{
anchors = (
{
name = _top;
pos = (707,1110);
},
{
name = top;
pos = (787,1701);
}
);
layerId = "27298932-82AF-4578-9425-6304FDB19058";
shapes = (
{
closed = 1;
nodes = (
(821,1342,l),
(509,1782,l),
(313,1612,l),
(375,1504,o),
(649,1298,o),
(729,1264,c)
);
}
);
width = 881;
},
{
anchors = (
{
name = _top;
pos = (703,1110);
},
{
name = top;
pos = (783,1701);
}
);
layerId = "9079322E-D2EB-4437-A6B9-48C6726F1892";
shapes = (
{
closed = 1;
nodes = (
(817,1342,l),
(505,1782,l),
(309,1612,l),
(371,1504,o),
(645,1298,o),
(725,1264,c)
);
}
);
width = 873;
},
{
anchors = (
{
name = _top;
pos = (553,1108);
},
{
name = top;
pos = (630,1657);
}
);
layerId = "AB43ED1F-BEAA-4517-9B18-06741265F15E";
shapes = (
{
closed = 1;
nodes = (
(679,1308,l),
(422,1702,l),
(307,1596,l),
(356,1506,o),
(544,1314,o),
(628,1258,c)
);
}
);
width = 740;
},
{
anchors = (
{
name = _top;
pos = (636,1110);
},
{
name = top;
pos = (722,1701);
}
);
layerId = "0E81F995-ADCA-4265-BF48-502C19DBCB17";
shapes = (
{
closed = 1;
nodes = (
(765,1156,l),
(473,1642,l),
(275,1452,l),
(399,1326,o),
(597,1181,o),
(727,1121,c)
);
}
);
width = 820;
},
{
anchors = (
{
name = _top;
pos = (554,1108);
},
{
name = top;
pos = (636,1657);
}
);
layerId = "10D406F4-E64B-40B9-806E-EB589F33F511";
shapes = (
{
closed = 1;
nodes = (
(680,1147,l),
(396,1566,l),
(278,1472,l),
(360,1368,o),
(508,1236,o),
(660,1129,c)
);
}
);
width = 737;
},
{
anchors = (
{
name = _top;
pos = (661,1110);
},
{
name = top;
pos = (752,1701);
}
);
layerId = "2795BD5C-FE1E-44B5-B1D3-799347E852FC";
shapes = (
{
closed = 1;
nodes = (
(810,1156,l),
(480,1642,l),
(270,1452,l),
(401,1326,o),
(632,1181,o),
(770,1121,c)
);
}
);
width = 860;
},
{
anchors = (
{
name = _top;
pos = (565,1108);
},
{
name = top;
pos = (641,1657);
}
);
layerId = "95CCB04D-97EC-4126-A206-216E0B8EC505";
shapes = (
{
closed = 1;
nodes = (
(699,1147,l),
(398,1566,l),
(273,1472,l),
(360,1368,o),
(517,1236,o),
(678,1129,c)
);
}
);
width = 751;
},
{
anchors = (
{
name = _top;
pos = (559,1108);
},
{
name = top;
pos = (636,1657);
}
);
layerId = "8587C386-9485-4E77-8679-63F1A494C2C0";
shapes = (
{
closed = 1;
nodes = (
(685,1308,l),
(428,1702,l),
(313,1596,l),
(362,1506,o),
(550,1314,o),
(634,1258,c)
);
}
);
width = 752;
},
{
anchors = (
{
name = _top;
pos = (709,1110);
},
{
name = top;
pos = (789,1701);
}
);
layerId = "F8806197-5953-4DD8-B2B5-EF301301BB43";
shapes = (
{
closed = 1;
nodes = (
(823,1342,l),
(511,1782,l),
(315,1612,l),
(377,1504,o),
(651,1298,o),
(731,1264,c)
);
}
);
width = 885;
},
{
anchors = (
{
name = _top;
pos = (531,1108);
},
{
name = top;
pos = (613,1657);
}
);
layerId = "F318CEA5-7792-49D8-B68D-92025E304353";
shapes = (
{
closed = 1;
nodes = (
(647,1147,l),
(403,1566,l),
(282,1478,l),
(362,1374,o),
(496,1236,o),
(625,1131,c)
);
}
);
width = 707;
},
{
anchors = (
{
name = _top;
pos = (649,1110);
},
{
name = top;
pos = (735,1701);
}
);
layerId = "7A2136B0-3E1D-476B-B826-4714342A6FC2";
shapes = (
{
closed = 1;
nodes = (
(755,1154,l),
(492,1643,l),
(280,1468,l),
(394,1333,o),
(590,1192,o),
(715,1122,c)
);
}
);
width = 814;
}
);
metricLeft = hyphen;
metricRight = hyphen;
unicode = 96;
}
{
glyphname = a;
layers = (
{
anchors = (
{
name = bottom;
pos = (472,0);
},
{
name = center;
pos = (552,565);
},
{
name = ogonek;
pos = (904,20);
},
{
name = ringhalfr;
pos = (228,1164);
},
{
name = top;
pos = (684,1108);
}
);
hints = (
{
place = (29,0);
type = Stem;
}
);
layerId = "0C3FD5EE-D923-4A4A-8FDE-164881635915";
shapes = (
{
closed = 1;
nodes = (
(1012,1134,l),
(908,1096,l),
(852,1118,o),
(775,1136,o),
(721,1136,cs),
(301,1136,o),
(80,708,o),
(80,400,cs),
(80,158,o),
(186,-20,o),
(398,-20,cs),
(562,-20,o),
(658,94,o),
(732,194,c),
(722,112,l),
(716,16,o),
(764,-20,o),
(836,-20,cs),
(940,-20,o),
(1020,76,o),
(1034,100,c),
(1006,144,l),
(968,108,o),
(944,88,o),
(918,88,cs),
(898,88,o),
(871,106,o),
(880,172,cs)
);
},
{
closed = 1;
nodes = (
(748,324,l),
(686,234,o),
(578,96,o),
(424,96,cs),
(318,96,o),
(242,202,o),
(242,410,cs),
(242,704,o),
(402,1038,o),
(689,1038,cs),
(745,1038,o),
(796,1024,o),
(838,994,c)
);
}
);
width = 1136;
},
{
anchors = (
{
name = bottom;
pos = (538,0);
},
{
name = center;
pos = (582,565);
},
{
name = ogonek;
pos = (924,20);
},
{
name = ringhalfr;
pos = (228,1164);
},
{
name = top;
pos = (720,1108);
}
);
hints = (
{
place = (481,0);
type = Stem;
}
);
layerId = "27298932-82AF-4578-9425-6304FDB19058";
shapes = (
{
closed = 1;
nodes = (
(1108,1136,l),
(959,1094,l),
(901,1114,o),
(805,1136,o),
(728,1136,cs),
(307,1136,o),
(59,770,o),
(59,387,cs),
(59,168,o),
(161,-20,o),
(404,-20,cs),
(540,-20,o),
(639,42,o),
(702,109,c),
(701,97,l),
(709,20,o),
(772,-20,o),
(856,-20,cs),
(1008,-20,o),
(1114,86,o),
(1137,121,c),
(1109,190,l),
(1064,155,o),
(1038,146,o),
(1019,146,cs),
(990,146,o),
(974,166,o),
(981,220,cs)
);
},
{
closed = 1;
nodes = (
(667,208,l),
(630,174,o),
(586,148,o),
(539,148,cs),
(448,148,o),
(392,243,o),
(392,399,cs),
(392,665,o),
(476,1001,o),
(706,1001,cs),
(729,1001,o),
(752,999,o),
(775,994,c)
);
}
);
width = 1169;
},
{
anchors = (
{
name = bottom;
pos = (569,0);
},
{
name = center;
pos = (632,565);
},
{
name = ogonek;
pos = (986,0);
},
{
name = ringhalfr;
pos = (208,1164);
},
{
name = top;
pos = (764,1108);
}
);
hints = (
{
place = (476,-24);
type = Stem;
}
);
layerId = "9079322E-D2EB-4437-A6B9-48C6726F1892";
shapes = (
{
closed = 1;
nodes = (
(1191,1136,l),
(1036,1094,l),
(976,1114,o),
(898,1136,o),
(771,1136,cs),
(329,1136,o),
(46,797,o),
(46,399,cs),
(46,175,o),
(168,-20,o),
(442,-20,cs),
(576,-20,o),
(699,50,o),
(765,117,c),
(767,97,l),
(775,20,o),
(842,-20,o),
(939,-20,cs),
(1087,-20,o),
(1197,86,o),
(1221,121,c),
(1192,190,l),
(1145,155,o),
(1118,146,o),
(1098,146,cs),
(1068,146,o),
(1052,166,o),
(1059,220,cs)
);
},
{
closed = 1;
nodes = (
(731,203,l),
(693,169,o),
(636,148,o),
(567,148,cs),
(468,148,o),
(393,230,o),
(393,401,cs),
(393,692,o),
(527,1001,o),
(771,1001,cs),
(798,1001,o),
(820,999,o),
(844,994,c)
);
}
);
width = 1254;
},
{
anchors = (
{
name = bottom;
pos = (496,0);
},
{
name = center;
pos = (562,565);
},
{
name = ogonek;
pos = (919,0);
},
{
name = ringhalfr;
pos = (202,1164);
},
{
name = top;
pos = (709,1108);
}
);
hints = (
{
place = (18,-11);
type = Stem;
}
);
layerId = "AB43ED1F-BEAA-4517-9B18-06741265F15E";
shapes = (
{
closed = 1;
nodes = (
(1074,1134,l),
(958,1102,l),
(900,1120,o),
(801,1136,o),
(726,1136,cs),
(314,1136,o),
(50,746,o),
(50,387,cs),
(50,151,o),
(181,-20,o),
(408,-20,cs),
(536,-20,o),
(667,59,o),
(771,194,c),
(760,112,l),
(754,16,o),
(804,-20,o),
(879,-20,cs),
(987,-20,o),
(1069,74,o),
(1083,98,c),
(1054,142,l),
(1018,106,o),
(993,88,o),
(966,88,cs),
(941,88,o),
(915,97,o),
(924,157,cs)
);
},
{
closed = 1;
nodes = (
(787,324,l),
(723,234,o),
(594,96,o),
(436,96,cs),
(311,96,o),
(222,198,o),
(222,405,cs),
(222,744,o),
(424,1039,o),
(716,1039,cs),
(774,1039,o),
(848,1024,o),
(891,994,c)
);
}
);
width = 1162;
},
{
anchors = (
{
name = bottom;
pos = (522,0);
},
{
name = center;
pos = (552,515);
},
{
name = ogonek;
pos = (870,0);
},
{
name = ringhalfr;
pos = (192,1164);
},
{
name = top;
pos = (656,1005);
}
);
background = {
shapes = (
{
closed = 1;
nodes = (
(1079,1022,l),
(882,980,l),
(823,1002,o),
(748,1034,o),
(650,1034,cs),
(222,1034,o),
(-29,703,o),
(-29,357,cs),
(-29,88,o),
(130,-23,o),
(292,-23,cs),
(489,-23,o),
(606,107,o),
(649,243,c),
(636,138,ls),
(625,48,o),
(675,-23,o),
(793,-23,cs),
(933,-23,o),
(1034,44,o),
(1097,121,c),
(1072,171,l),
(1041,138,o),
(1015,125,o),
(984,125,cs),
(961,125,o),
(946,136,o),
(952,184,c)
);
},
{
closed = 1;
nodes = (
(652,397,l),
(616,239,o),
(519,108,o),
(434,108,cs),
(377,108,o),
(324,157,o),
(324,298,cs),
(325,572,o),
(379,981,o),
(654,981,cs),
(707,981,o),
(733,954,o),
(737,929,c)
);
}
);
};
hints = (
{
place = (481,0);
type = Stem;
}
);
layerId = "0E81F995-ADCA-4265-BF48-502C19DBCB17";
shapes = (
{
closed = 1;
nodes = (
(1069,1022,l),
(872,986,l),
(813,1008,o),
(752,1027,o),
(668,1027,cs),
(233,1027,o),
(18,713,o),
(18,340,cs),
(18,88,o),
(185,-23,o),
(346,-23,cs),
(502,-23,o),
(609,124,o),
(643,236,c),
(629,140,ls),
(618,62,o),
(652,-23,o),
(773,-23,cs),
(919,-23,o),
(1025,44,o),
(1088,121,c),
(1063,171,l),
(1032,138,o),
(1007,126,o),
(976,126,cs),
(953,126,o),
(939,137,o),
(945,185,c)
);
},
{
closed = 1;
nodes = (
(652,397,l),
(616,239,o),
(524,108,o),
(453,108,cs),
(411,108,o),
(367,132,o),
(367,298,cs),
(367,562,o),
(413,980,o),
(659,980,cs),
(705,980,o),
(730,955,o),
(734,935,c)
);
}
);
width = 1107;
},
{
anchors = (
{
name = bottom;
pos = (446,0);
},
{
name = center;
pos = (477,515);
},
{
name = ogonek;
pos = (782,0);
},
{
name = ringhalfr;
pos = (192,1164);
},
{
name = top;
pos = (601,1005);
}
);
guides = (
{
angle = 60.1522;
pos = (834,634);
},
{
angle = 82.5686;
pos = (693,650);
},
{
angle = 82.5686;
pos = (211,634);
},
{
angle = 82.5686;
pos = (66,650);
}
);
hints = (
{
place = (29,0);
type = Stem;
}
);
layerId = "10D406F4-E64B-40B9-806E-EB589F33F511";
shapes = (
{
closed = 1;
nodes = (
(914,1019,l),
(825,980,l),
(773,1015,o),
(708,1032,o),
(632,1032,cs),
(268,1032,o),
(40,676,o),
(40,343,cs),
(40,110,o),
(154,-21,o),
(323,-21,cs),
(448,-21,o),
(594,96,o),
(648,248,c),
(627,130,l),
(613,33,o),
(654,-21,o),
(733,-21,cs),
(832,-21,o),
(902,55,o),
(925,94,c),
(907,124,l),
(873,80,o),
(830,58,o),
(808,58,cs),
(773,58,o),
(757,80,o),
(767,141,cs)
);
},
{
closed = 1;
nodes = (
(665,374,l),
(620,171,o),
(480,43,o),
(355,43,cs),
(258,43,o),
(197,135,o),
(197,340,cs),
(197,642,o),
(354,990,o),
(630,990,cs),
(697,990,o),
(740,961,o),
(756,920,c)
);
}
);
width = 959;
},
{
anchors = (
{
name = bottom;
pos = (518,0);
},
{
name = center;
pos = (572,515);
},
{
name = ogonek;
pos = (938,0);
},
{
name = ringhalfr;
pos = (192,1164);
},
{
name = top;
pos = (699,1005);
}
);
hints = (
{
place = (481,0);
type = Stem;
}
);
layerId = "2795BD5C-FE1E-44B5-B1D3-799347E852FC";
shapes = (
{
closed = 1;
nodes = (
(1132,1022,l),
(935,980,l),
(876,1002,o),
(801,1034,o),
(703,1034,cs),
(275,1034,o),
(24,703,o),
(24,357,cs),
(24,88,o),
(183,-23,o),
(345,-23,cs),
(542,-23,o),
(659,107,o),
(702,243,c),
(689,138,ls),
(678,48,o),
(728,-23,o),
(846,-23,cs),
(986,-23,o),
(1087,44,o),
(1150,121,c),
(1125,171,l),
(1094,138,o),
(1068,125,o),
(1037,125,cs),
(1014,125,o),
(999,136,o),
(1005,184,c)
);
},
{
closed = 1;
nodes = (
(705,397,l),
(669,239,o),
(572,108,o),
(487,108,cs),
(430,108,o),
(377,157,o),
(377,298,cs),
(378,572,o),
(432,981,o),
(707,981,cs),
(760,981,o),
(786,954,o),
(790,929,c)
);
}
);
width = 1175;
},
{
anchors = (
{
name = bottom;
pos = (433,0);
},
{
name = center;
pos = (492,515);
},
{
name = ogonek;
pos = (840,0);
},
{
name = ringhalfr;
pos = (182,1164);
},
{
name = top;
pos = (629,1005);
}
);
hints = (
{
place = (29,0);
type = Stem;
}
);
layerId = "95CCB04D-97EC-4126-A206-216E0B8EC505";
shapes = (
{
closed = 1;
nodes = (
(954,1018,l),
(866,976,l),
(820,1003,o),
(747,1031,o),
(632,1031,cs),
(294,1031,o),
(22,701,o),
(22,318,cs),
(22,133,o),
(137,-21,o),
(335,-21,cs),
(477,-21,o),
(633,102,o),
(688,248,c),
(667,130,ls),
(650,33,o),
(691,-21,o),
(774,-21,cs),
(864,-21,o),
(941,34,o),
(979,95,c),
(961,124,l),
(926,80,o),
(881,58,o),
(849,58,cs),
(819,58,o),
(801,80,o),
(811,141,cs)
);
},
{
closed = 1;
nodes = (
(706,374,l),
(661,171,o),
(497,43,o),
(367,43,cs),
(248,43,o),
(177,161,o),
(177,318,cs),
(177,651,o),
(380,989,o),
(623,989,cs),
(704,989,o),
(770,965,o),
(791,912,c)
);
}
);
width = 1021;
},
{
anchors = (
{
name = bottom;
pos = (424,0);
},
{
name = center;
pos = (502,565);
},
{
name = ogonek;
pos = (769,0);
},
{
name = ringhalfr;
pos = (202,1164);
},
{
name = top;
pos = (658,1108);
}
);
guides = (
{
pos = (623,1038);
}
);
hints = (
{
place = (29,0);
type = Stem;
}
);
layerId = "8587C386-9485-4E77-8679-63F1A494C2C0";
shapes = (
{
closed = 1;
nodes = (
(933,1134,l),
(830,1091,l),
(786,1115,o),
(728,1136,o),
(659,1136,cs),
(309,1136,o),
(67,741,o),
(67,391,cs),
(67,125,o),
(185,-20,o),
(354,-20,cs),
(484,-20,o),
(572,68,o),
(646,194,c),
(636,112,l),
(630,9,o),
(677,-20,o),
(735,-20,cs),
(847,-20,o),
(925,76,o),
(939,100,c),
(911,144,l),
(875,108,o),
(846,88,o),
(823,88,cs),
(803,88,o),
(779,96,o),
(790,172,cs)
);
},
{
closed = 1;
nodes = (
(663,323,l),
(610,221,o),
(505,95,o),
(395,95,cs),
(293,95,o),
(224,224,o),
(224,401,cs),
(224,742,o),
(407,1038,o),
(648,1038,cs),
(698,1038,o),
(737,1024,o),
(766,994,c)
);
}
);
width = 1030;
},
{
anchors = (
{
name = bottom;
pos = (490,0);
},
{
name = center;
pos = (522,565);
},
{
name = ogonek;
pos = (936,20);
},
{
name = ringhalfr;
pos = (192,1164);
},
{
name = top;
pos = (658,1108);
}
);
hints = (
{
place = (481,0);
type = Stem;
}
);
layerId = "F8806197-5953-4DD8-B2B5-EF301301BB43";
shapes = (
{
closed = 1;
nodes = (
(1029,1136,l),
(907,1094,l),
(849,1114,o),
(753,1136,o),
(676,1136,cs),
(317,1136,o),
(42,811,o),
(42,392,cs),
(42,168,o),
(144,-20,o),
(370,-20,cs),
(506,-20,o),
(585,42,o),
(648,109,c),
(647,97,l),
(655,20,o),
(690,-20,o),
(784,-20,cs),
(937,-20,o),
(1033,86,o),
(1056,121,c),
(1028,190,l),
(983,155,o),
(957,146,o),
(938,146,cs),
(909,146,o),
(892,166,o),
(900,220,cs)
);
},
{
closed = 1;
nodes = (
(610,208,l),
(573,174,o),
(552,144,o),
(484,144,cs),
(414,144,o),
(358,207,o),
(358,392,cs),
(358,665,o),
(412,1001,o),
(652,1001,cs),
(675,1001,o),
(698,999,o),
(721,994,c)
);
}
);
width = 1111;
},
{
anchors = (
{
name = bottom;
pos = (398,0);
},
{
name = center;
pos = (452,515);
},
{
name = ogonek;
pos = (739,0);
},
{
name = ringhalfr;
pos = (192,1164);
},
{
name = top;
pos = (599,1005);
}
);
hints = (
{
place = (29,0);
type = Stem;
}
);
layerId = "F318CEA5-7792-49D8-B68D-92025E304353";
shapes = (
{
closed = 1;
nodes = (
(863,1025,l),
(761,985,l),
(734,1005,o),
(688,1030,o),
(604,1030,cs),
(299,1030,o),
(51,702,o),
(51,333,cs),
(51,81,o),
(191,-21,o),
(307,-21,cs),
(434,-21,o),
(550,97,o),
(604,249,c),
(589,132,l),
(577,42,o),
(595,-21,o),
(685,-21,cs),
(769,-21,o),
(843,38,o),
(876,94,c),
(858,124,l),
(822,79,o),
(779,58,o),
(755,58,cs),
(720,58,o),
(716,94,o),
(723,141,cs)
);
},
{
closed = 1;
nodes = (
(621,374,l),
(576,171,o),
(442,43,o),
(351,43,cs),
(240,43,o),
(206,177,o),
(206,328,cs),
(206,671,o),
(388,989,o),
(589,989,cs),
(658,989,o),
(698,956,o),
(708,919,c)
);
}
);
width = 926;
},
{
anchors = (
{
name = bottom;
pos = (454,0);
},
{
name = center;
pos = (502,515);
},
{
name = ogonek;
pos = (793,0);
},
{
name = ringhalfr;
pos = (182,1164);
},
{
name = top;
pos = (599,1005);
}
);
background = {
shapes = (
{
closed = 1;
nodes = (
(1012,1022,l),
(815,980,l),
(756,1002,o),
(681,1034,o),
(583,1034,cs),
(155,1034,o),
(-96,703,o),
(-96,357,cs),
(-96,88,o),
(63,-23,o),
(225,-23,cs),
(422,-23,o),
(539,107,o),
(582,243,c),
(569,138,ls),
(558,48,o),
(608,-23,o),
(726,-23,cs),
(866,-23,o),
(967,44,o),
(1030,121,c),
(1005,171,l),
(974,138,o),
(948,125,o),
(917,125,cs),
(894,125,o),
(879,136,o),
(885,184,c)
);
},
{
closed = 1;
nodes = (
(585,397,l),
(549,239,o),
(452,108,o),
(367,108,cs),
(310,108,o),
(257,157,o),
(257,298,cs),
(258,572,o),
(312,981,o),
(587,981,cs),
(640,981,o),
(666,954,o),
(670,929,c)
);
}
);
};
guides = (
{
pos = (569,980);
},
{
pos = (429,133);
},
{
pos = (429,174);
}
);
hints = (
{
place = (481,0);
type = Stem;
}
);
layerId = "7A2136B0-3E1D-476B-B826-4714342A6FC2";
shapes = (
{
closed = 1;
nodes = (
(991,1022,l),
(802,986,l),
(735,1011,o),
(662,1027,o),
(601,1027,cs),
(224,1027,o),
(17,673,o),
(17,346,cs),
(17,87,o),
(160,-23,o),
(302,-23,cs),
(453,-23,o),
(548,115,o),
(580,240,c),
(567,140,ls),
(557,62,o),
(596,-23,o),
(704,-23,cs),
(852,-23,o),
(943,44,o),
(1001,121,c),
(979,171,l),
(950,138,o),
(922,126,o),
(900,126,cs),
(870,126,o),
(861,144,o),
(867,185,c)
);
},
{
closed = 1;
nodes = (
(585,397,l),
(564,297,o),
(478,108,o),
(422,108,cs),
(380,108,o),
(360,144,o),
(360,297,cs),
(360,547,o),
(425,980,o),
(596,980,cs),
(628,980,o),
(662,958,o),
(668,935,c)
);
}
);
width = 1028;
}
);
unicode = 97;
userData = {
KernOnName = a;
};
}
{
color = 4;
glyphname = b;
layers = (
{
anchors = (
{
name = bottom;
pos = (425,0);
},
{
name = center;
pos = (321,1309);
},
{
name = top;
pos = (783,1110);
}
);
layerId = "0C3FD5EE-D923-4A4A-8FDE-164881635915";
shapes = (
{
closed = 1;
nodes = (
(460,1610,l),
(419,1634,l),
(210,1602,l),
(194,1535,l),
(288,1500,l),
(90,-5,l),
(171,31,l),
(225,6,o),
(327,-20,o),
(411,-20,cs),
(806,-20,o),
(1032,405,o),
(1032,712,cs),
(1032,959,o),
(925,1136,o),
(699,1136,cs),
(555,1136,o),
(437,1043,o),
(375,955,c)
);
},
{
closed = 1;
nodes = (
(355,818,l),
(404,900,o),
(527,1020,o),
(669,1020,cs),
(797,1020,o),
(869,901,o),
(869,703,cs),
(869,448,o),
(728,78,o),
(433,78,cs),
(371,78,o),
(307,90,o),
(262,126,c)
);
}
);
width = 1114;
},
{
anchors = (
{
name = bottom;
pos = (445,0);
},
{
name = center;
pos = (289,1279);
},
{
name = top;
pos = (830,1110);
}
);
layerId = "27298932-82AF-4578-9425-6304FDB19058";
shapes = (
{
closed = 1;
nodes = (
(555,1606,l),
(503,1634,l),
(146,1596,l),
(126,1515,l),
(228,1473,l),
(24,-20,l),
(186,22,l),
(247,2,o),
(342,-20,o),
(422,-20,cs),
(833,-20,o),
(1086,305,o),
(1086,712,cs),
(1086,981,o),
(976,1136,o),
(750,1136,cs),
(632,1136,o),
(539,1087,o),
(475,1032,c)
);
},
{
closed = 1;
nodes = (
(455,876,l),
(495,925,o),
(549,966,o),
(616,966,cs),
(715,966,o),
(760,848,o),
(760,712,cs),
(760,417,o),
(674,115,o),
(448,115,cs),
(413,115,o),
(384,117,o),
(357,126,c)
);
}
);
width = 1149;
},
{
anchors = (
{
name = bottom;
pos = (482,0);
},
{
name = center;
pos = (289,1279);
},
{
name = top;
pos = (867,1110);
}
);
guides = (
{
pos = (1235,1028);
}
);
layerId = "9079322E-D2EB-4437-A6B9-48C6726F1892";
shapes = (
{
closed = 1;
nodes = (
(604,1606,l),
(544,1634,l),
(143,1592,l),
(124,1513,l),
(259,1471,l),
(38,-20,l),
(216,22,l),
(277,2,o),
(389,-21,o),
(494,-21,cs),
(923,-21,o),
(1191,332,o),
(1191,719,cs),
(1191,959,o),
(1083,1135,o),
(819,1135,cs),
(717,1135,o),
(605,1091,o),
(515,1010,c)
);
},
{
closed = 1;
nodes = (
(494,884,l),
(545,933,o),
(619,967,o),
(675,967,cs),
(799,967,o),
(844,878,o),
(844,728,cs),
(844,405,o),
(708,114,o),
(489,114,cs),
(442,114,o),
(411,118,o),
(384,128,c)
);
}
);
width = 1239;
},
{
anchors = (
{
name = bottom;
pos = (426,0);
},
{
name = center;
pos = (321,1309);
},
{
name = top;
pos = (784,1110);
}
);
layerId = "AB43ED1F-BEAA-4517-9B18-06741265F15E";
shapes = (
{
closed = 1;
nodes = (
(473,1610,l),
(429,1634,l),
(191,1600,l),
(173,1533,l),
(298,1500,l),
(72,-5,l),
(160,31,l),
(214,6,o),
(289,-20,o),
(429,-20,cs),
(889,-20,o),
(1116,413,o),
(1116,725,cs),
(1116,967,o),
(993,1136,o),
(747,1136,cs),
(589,1136,o),
(458,1047,o),
(376,955,c)
);
},
{
closed = 1;
nodes = (
(353,818,l),
(455,949,o),
(585,1020,o),
(718,1020,cs),
(876,1020,o),
(946,901,o),
(946,712,cs),
(946,425,o),
(780,77,o),
(433,77,cs),
(363,77,o),
(301,89,o),
(248,125,c)
);
}
);
width = 1175;
},
{
anchors = (
{
name = bottom;
pos = (445,0);
},
{
name = center;
pos = (276,1279);
},
{
name = top;
pos = (809,1108);
}
);
guides = (
{
pos = (350,71);
},
{
angle = 81.5518;
pos = (236,1508);
}
);
layerId = "0E81F995-ADCA-4265-BF48-502C19DBCB17";
shapes = (
{
closed = 1;
nodes = (
(577,1603,l),
(534,1634,l),
(108,1580,l),
(103,1546,l),
(237,1505,l),
(11,-29,l),
(208,12,l),
(269,-6,o),
(348,-24,o),
(419,-24,cs),
(858,-24,o),
(1079,316,o),
(1079,656,cs),
(1079,924,o),
(940,1034,o),
(777,1034,cs),
(641,1034,o),
(505,933,o),
(461,822,c)
);
},
{
closed = 1;
nodes = (
(444,687,l),
(465,775,o),
(558,913,o),
(643,913,cs),
(712,913,o),
(730,844,o),
(730,714,cs),
(730,422,o),
(652,31,o),
(429,31,cs),
(380,31,o),
(355,57,o),
(350,76,c)
);
}
);
width = 1111;
},
{
anchors = (
{
name = bottom;
pos = (403,0);
},
{
name = center;
pos = (354,1309);
},
{
name = top;
pos = (681,1110);
}
);
layerId = "10D406F4-E64B-40B9-806E-EB589F33F511";
shapes = (
{
closed = 1;
nodes = (
(438,1618,l),
(423,1634,l),
(170,1597,l),
(165,1571,l),
(288,1547,l),
(62,-5,l),
(137,31,l),
(195,0,o),
(272,-19,o),
(355,-19,cs),
(722,-19,o),
(950,338,o),
(950,671,cs),
(950,897,o),
(856,1037,o),
(653,1037,cs),
(522,1037,o),
(385,938,o),
(313,773,c)
);
},
{
closed = 1;
nodes = (
(293,642,l),
(343,843,o),
(506,973,o),
(625,973,cs),
(737,973,o),
(793,871,o),
(793,687,cs),
(793,394,o),
(635,23,o),
(357,23,cs),
(283,23,o),
(233,58,o),
(214,108,c)
);
}
);
width = 986;
},
{
anchors = (
{
name = bottom;
pos = (438,0);
},
{
name = center;
pos = (276,1279);
},
{
name = top;
pos = (882,1147);
}
);
guides = (
{
pos = (465,-24);
},
{
pos = (454,31);
},
{
angle = 81.3411;
pos = (480,838);
}
);
layerId = "2795BD5C-FE1E-44B5-B1D3-799347E852FC";
shapes = (
{
closed = 1;
nodes = (
(598,1603,l),
(547,1634,l),
(118,1580,l),
(113,1546,l),
(257,1506,l),
(23,-29,l),
(222,16,l),
(287,-2,o),
(383,-24,o),
(467,-24,cs),
(932,-24,o),
(1146,318,o),
(1146,662,cs),
(1146,877,o),
(1031,1033,o),
(808,1033,cs),
(667,1033,o),
(544,936,o),
(481,816,c)
);
},
{
closed = 1;
nodes = (
(463,701,l),
(505,809,o),
(598,903,o),
(676,903,cs),
(754,903,o),
(788,828,o),
(788,714,cs),
(788,446,o),
(717,31,o),
(456,31,cs),
(415,31,o),
(378,44,o),
(365,73,c)
);
}
);
width = 1169;
},
{
anchors = (
{
name = bottom;
pos = (413,0);
},
{
name = center;
pos = (354,1309);
},
{
name = top;
pos = (771,1110);
}
);
guides = (
{
angle = 81.5958;
pos = (432,1618);
}
);
layerId = "95CCB04D-97EC-4126-A206-216E0B8EC505";
shapes = (
{
closed = 1;
nodes = (
(435,1618,l),
(416,1634,l),
(133,1597,l),
(128,1571,l),
(286,1545,l),
(50,-5,l),
(133,34,l),
(191,1,o),
(266,-19,o),
(389,-19,cs),
(775,-19,o),
(1003,346,o),
(1003,689,cs),
(1003,865,o),
(904,1036,o),
(685,1036,cs),
(534,1036,o),
(383,930,o),
(306,755,c)
);
},
{
closed = 1;
nodes = (
(287,627,l),
(339,828,o),
(499,972,o),
(650,972,cs),
(774,972,o),
(849,865,o),
(849,692,cs),
(849,350,o),
(657,23,o),
(391,23,cs),
(297,23,o),
(231,63,o),
(207,108,c)
);
}
);
width = 1025;
},
{
anchors = (
{
name = bottom;
pos = (417,0);
},
{
name = center;
pos = (321,1309);
},
{
name = top;
pos = (775,1110);
}
);
guides = (
{
angle = 81.9445;
pos = (461,1595);
}
);
layerId = "8587C386-9485-4E77-8679-63F1A494C2C0";
shapes = (
{
closed = 1;
nodes = (
(465,1610,l),
(427,1634,l),
(200,1600,l),
(183,1533,l),
(301,1500,l),
(88,-5,l),
(169,34,l),
(240,-5,o),
(299,-21,o),
(377,-21,cs),
(729,-21,o),
(976,351,o),
(976,724,cs),
(976,1001,o),
(861,1136,o),
(677,1136,cs),
(548,1136,o),
(443,1049,o),
(369,931,c)
);
},
{
closed = 1;
nodes = (
(350,798,l),
(416,917,o),
(513,1020,o),
(627,1020,cs),
(758,1020,o),
(819,899,o),
(819,714,cs),
(819,369,o),
(632,77,o),
(394,77,cs),
(339,77,o),
(299,86,o),
(254,123,c)
);
}
);
width = 1039;
},
{
anchors = (
{
name = bottom;
pos = (453,0);
},
{
name = center;
pos = (289,1279);
},
{
name = top;
pos = (838,1110);
}
);
layerId = "F8806197-5953-4DD8-B2B5-EF301301BB43";
shapes = (
{
closed = 1;
nodes = (
(568,1606,l),
(514,1634,l),
(136,1592,l),
(118,1513,l),
(260,1471,l),
(48,-16,l),
(194,22,l),
(254,0,o),
(342,-21,o),
(423,-21,cs),
(760,-21,o),
(1037,285,o),
(1037,748,cs),
(1037,989,o),
(924,1136,o),
(730,1136,cs),
(629,1136,o),
(538,1085,o),
(485,1027,c)
);
},
{
closed = 1;
nodes = (
(466,892,l),
(500,942,o),
(549,973,o),
(600,973,cs),
(666,973,o),
(721,927,o),
(721,772,cs),
(721,361,o),
(607,111,o),
(434,111,cs),
(405,111,o),
(386,112,o),
(355,122,c)
);
}
);
width = 1080;
},
{
anchors = (
{
name = bottom;
pos = (359,0);
},
{
name = center;
pos = (354,1309);
},
{
name = top;
pos = (644,1110);
}
);
guides = (
{
angle = 261.5853;
pos = (374,1196);
}
);
layerId = "F318CEA5-7792-49D8-B68D-92025E304353";
shapes = (
{
closed = 1;
nodes = (
(436,1618,l),
(417,1634,l),
(183,1598,l),
(179,1573,l),
(289,1551,l),
(59,-5,l),
(135,31,l),
(184,0,o),
(248,-20,o),
(315,-20,cs),
(640,-20,o),
(874,324,o),
(874,682,cs),
(874,897,o),
(770,1037,o),
(613,1037,cs),
(489,1037,o),
(373,938,o),
(311,773,c)
);
},
{
closed = 1;
nodes = (
(291,639,l),
(335,840,o),
(475,972,o),
(573,972,cs),
(669,972,o),
(720,871,o),
(720,692,cs),
(720,373,o),
(561,22,o),
(315,22,cs),
(257,22,o),
(227,50,o),
(210,96,c)
);
}
);
width = 935;
},
{
anchors = (
{
name = bottom;
pos = (421,0);
},
{
name = center;
pos = (276,1279);
},
{
name = top;
pos = (763,1109);
}
);
guides = (
{
pos = (98,1516);
},
{
pos = (440,90);
},
{
pos = (549,821);
},
{
pos = (536,687);
},
{
angle = 81.539;
pos = (241,1503);
}
);
layerId = "7A2136B0-3E1D-476B-B826-4714342A6FC2";
shapes = (
{
closed = 1;
nodes = (
(575,1604,l),
(538,1634,l),
(132,1579,l),
(127,1545,l),
(247,1505,l),
(17,-29,l),
(205,14,l),
(266,-4,o),
(345,-22,o),
(416,-22,cs),
(805,-22,o),
(1003,302,o),
(1003,687,cs),
(1003,905,o),
(890,1036,o),
(725,1036,cs),
(605,1036,o),
(505,947,o),
(461,841,c)
);
},
{
closed = 1;
nodes = (
(437,675,l),
(480,846,o),
(551,905,o),
(592,905,cs),
(637,905,o),
(660,845,o),
(660,739,cs),
(660,408,o),
(583,33,o),
(420,33,cs),
(389,33,o),
(361,46,o),
(348,77,c)
);
}
);
width = 1020;
}
);
unicode = 98;
userData = {
KernOnName = b;
};
}
{
color = 4;
glyphname = d;
layers = (
{
anchors = (
{
name = bottom;
pos = (508,0);
},
{
name = caron;
pos = (1205,1622);
},
{
name = center;
pos = (840,1332);
},
{
name = top;
pos = (613,1540);
}
);
layerId = "0C3FD5EE-D923-4A4A-8FDE-164881635915";
shapes = (
{
closed = 1;
nodes = (
(1105,1610,l),
(1062,1634,l),
(823,1600,l),
(806,1533,l),
(934,1500,l),
(877,1109,l),
(826,1124,o),
(763,1136,o),
(711,1136,cs),
(308,1136,o),
(83,708,o),
(83,401,cs),
(83,159,o),
(186,-20,o),
(407,-20,cs),
(553,-20,o),
(670,70,o),
(735,155,c),
(735,102,ls),
(732,15,o),
(771,-20,o),
(838,-20,cs),
(941,-20,o),
(1022,71,o),
(1038,96,c),
(1012,139,l),
(973,105,o),
(946,88,o),
(918,88,cs),
(899,88,o),
(888,110,o),
(894,158,cs)
);
},
{
closed = 1;
nodes = (
(752,290,l),
(699,207,o),
(578,95,o),
(438,95,cs),
(314,95,o),
(246,214,o),
(246,413,cs),
(246,666,o),
(387,1038,o),
(687,1038,cs),
(747,1038,o),
(813,1024,o),
(858,986,c)
);
}
);
width = 1147;
},
{
anchors = (
{
name = bottom;
pos = (571,0);
},
{
name = caron;
pos = (1288,1622);
},
{
name = center;
pos = (818,1322);
},
{
name = top;
pos = (633,1540);
}
);
layerId = "27298932-82AF-4578-9425-6304FDB19058";
shapes = (
{
closed = 1;
nodes = (
(1207,1606,l),
(1153,1634,l),
(737,1592,l),
(719,1513,l),
(870,1471,l),
(824,1125,l),
(789,1132,o),
(752,1136,o),
(722,1136,cs),
(271,1136,o),
(61,770,o),
(61,392,cs),
(61,178,o),
(153,-20,o),
(396,-20,cs),
(560,-20,o),
(666,68,o),
(720,144,c),
(722,125,ls),
(734,31,o),
(782,-20,o),
(890,-20,cs),
(1048,-20,o),
(1138,93,o),
(1162,121,c),
(1134,190,l),
(1086,154,o),
(1062,146,o),
(1044,146,cs),
(1012,146,o),
(1003,174,o),
(1010,222,cs)
);
},
{
closed = 1;
nodes = (
(694,251,l),
(657,198,o),
(599,148,o),
(531,148,cs),
(442,148,o),
(389,253,o),
(389,404,cs),
(389,664,o),
(458,1001,o),
(698,1001,cs),
(736,1001,o),
(771,995,o),
(802,984,c)
);
}
);
width = 1225;
},
{
anchors = (
{
name = bottom;
pos = (490,0);
},
{
name = caron;
pos = (1345,1622);
},
{
name = center;
pos = (818,1322);
},
{
name = top;
pos = (643,1540);
}
);
guides = (
{
pos = (1942,1634);
}
);
layerId = "9079322E-D2EB-4437-A6B9-48C6726F1892";
shapes = (
{
closed = 1;
nodes = (
(1272,1606,l),
(1212,1634,l),
(788,1592,l),
(769,1513,l),
(927,1471,l),
(876,1124,l),
(840,1131,o),
(808,1136,o),
(772,1136,cs),
(330,1136,o),
(47,799,o),
(47,401,cs),
(47,176,o),
(169,-20,o),
(426,-20,cs),
(561,-20,o),
(683,32,o),
(769,126,c),
(772,93,l),
(785,20,o),
(837,-20,o),
(949,-20,cs),
(1079,-20,o),
(1181,59,o),
(1228,121,c),
(1199,190,l),
(1149,154,o),
(1126,146,o),
(1105,146,cs),
(1071,146,o),
(1058,163,o),
(1065,211,cs)
);
},
{
closed = 1;
nodes = (
(741,216,l),
(703,184,o),
(649,148,o),
(570,148,cs),
(469,148,o),
(394,230,o),
(394,401,cs),
(394,692,o),
(528,1001,o),
(772,1001,cs),
(799,1001,o),
(823,997,o),
(855,986,c)
);
}
);
width = 1263;
},
{
anchors = (
{
name = bottom;
pos = (497,0);
},
{
name = caron;
pos = (1251,1622);
},
{
name = center;
pos = (838,1332);
},
{
name = top;
pos = (663,1540);
}
);
guides = (
{
angle = 81.8865;
pos = (992,500);
},
{
angle = 81.8865;
pos = (833,500);
},
{
pos = (1714,1684);
}
);
layerId = "AB43ED1F-BEAA-4517-9B18-06741265F15E";
shapes = (
{
closed = 1;
nodes = (
(1164,1610,l),
(1118,1634,l),
(873,1600,l),
(856,1533,l),
(989,1500,l),
(934,1108,l),
(869,1130,o),
(818,1136,o),
(735,1136,cs),
(309,1136,o),
(50,751,o),
(50,389,cs),
(50,150,o),
(192,-20,o),
(413,-20,cs),
(588,-20,o),
(724,83,o),
(797,168,c),
(790,119,ls),
(777,26,o),
(826,-20,o),
(908,-20,cs),
(988,-20,o),
(1068,36,o),
(1115,100,c),
(1086,144,l),
(1046,107,o),
(1021,88,o),
(994,88,cs),
(964,88,o),
(944,110,o),
(951,158,cs)
);
},
{
closed = 1;
nodes = (
(811,291,l),
(750,208,o),
(612,95,o),
(443,95,cs),
(325,95,o),
(222,196,o),
(222,413,cs),
(222,747,o),
(420,1039,o),
(722,1039,cs),
(810,1039,o),
(863,1025,o),
(915,986,c)
);
}
);
width = 1186;
},
{
anchors = (
{
name = bottom;
pos = (450,0);
},
{
name = caron;
pos = (1267,1622);
},
{
name = center;
pos = (792,1272);
},
{
name = top;
pos = (513,1540);
}
);
layerId = "0E81F995-ADCA-4265-BF48-502C19DBCB17";
shapes = (
{
closed = 1;
nodes = (
(1176,1603,l),
(1133,1634,l),
(690,1580,l),
(685,1546,l),
(836,1503,l),
(765,1020,l),
(744,1028,o),
(708,1035,o),
(669,1035,cs),
(233,1035,o),
(24,713,o),
(24,355,cs),
(24,87,o),
(190,-23,o),
(350,-23,cs),
(527,-23,o),
(629,116,o),
(664,238,c),
(652,140,ls),
(642,62,o),
(679,-23,o),
(798,-23,cs),
(940,-23,o),
(1053,44,o),
(1116,121,c),
(1091,171,l),
(1060,139,o),
(1028,126,o),
(997,126,cs),
(974,126,o),
(960,137,o),
(966,184,cs)
);
},
{
closed = 1;
nodes = (
(658,324,l),
(636,236,o),
(553,108,o),
(477,108,cs),
(432,108,o),
(372,132,o),
(372,297,cs),
(372,561,o),
(429,980,o),
(674,980,cs),
(722,980,o),
(747,954,o),
(751,931,c)
);
}
);
width = 1127;
},
{
anchors = (
{
name = bottom;
pos = (400,0);
},
{
name = caron;
pos = (1126,1622);
},
{
name = center;
pos = (812,1302);
},
{
name = top;
pos = (553,1540);
}
);
guides = (
{
angle = 81.5993;
pos = (70,898);
},
{
angle = 81.486;
pos = (778,936);
}
);
layerId = "10D406F4-E64B-40B9-806E-EB589F33F511";
shapes = (
{
closed = 1;
nodes = (
(1035,1618,l),
(1020,1634,l),
(742,1597,l),
(737,1571,l),
(885,1547,l),
(805,1010,l),
(764,1025,o),
(707,1035,o),
(647,1035,cs),
(261,1035,o),
(50,676,o),
(50,343,cs),
(50,110,o),
(167,-21,o),
(340,-21,cs),
(467,-21,o),
(641,97,o),
(695,249,c),
(677,132,ls),
(663,42,o),
(685,-21,o),
(771,-21,cs),
(858,-21,o),
(925,38,o),
(958,94,c),
(941,124,l),
(904,78,o),
(867,58,o),
(841,58,cs),
(806,58,o),
(808,94,o),
(813,141,c)
);
},
{
closed = 1;
nodes = (
(712,379,l),
(667,175,o),
(495,43,o),
(370,43,cs),
(270,43,o),
(207,135,o),
(207,340,cs),
(207,642,o),
(349,993,o),
(643,993,cs),
(727,993,o),
(784,949,o),
(790,908,c)
);
}
);
width = 996;
},
{
anchors = (
{
name = bottom;
pos = (466,0);
},
{
name = caron;
pos = (1334,1622);
},
{
name = center;
pos = (788,1272);
},
{
name = top;
pos = (663,1540);
}
);
guides = (
{
pos = (1045,1633);
}
);
layerId = "2795BD5C-FE1E-44B5-B1D3-799347E852FC";
shapes = (
{
closed = 1;
nodes = (
(1229,1603,l),
(1178,1634,l),
(738,1580,l),
(733,1546,l),
(886,1503,l),
(817,1020,l),
(774,1029,o),
(730,1034,o),
(687,1034,cs),
(313,1034,o),
(24,756,o),
(24,355,cs),
(24,87,o),
(193,-23,o),
(362,-23,cs),
(556,-23,o),
(668,95,o),
(720,242,c),
(707,137,ls),
(696,47,o),
(746,-23,o),
(865,-23,cs),
(1000,-23,o),
(1102,44,o),
(1165,122,c),
(1140,172,l),
(1111,139,o),
(1080,126,o),
(1057,126,cs),
(1025,126,o),
(1013,142,o),
(1019,184,cs)
);
},
{
closed = 1;
nodes = (
(713,324,l),
(690,236,o),
(608,108,o),
(507,108,cs),
(449,108,o),
(382,154,o),
(382,297,cs),
(382,561,o),
(445,980,o),
(720,980,cs),
(774,980,o),
(799,954,o),
(803,931,c)
);
}
);
width = 1199;
},
{
anchors = (
{
name = bottom;
pos = (406,0);
},
{
name = caron;
pos = (1158,1622);
},
{
name = center;
pos = (798,1302);
},
{
name = top;
pos = (633,1540);
}
);
guides = (
{
angle = 81.3005;
pos = (959,880);
},
{
pos = (1045,1633);
}
);
layerId = "95CCB04D-97EC-4126-A206-216E0B8EC505";
shapes = (
{
closed = 1;
nodes = (
(1070,1618,l),
(1051,1634,l),
(756,1597,l),
(751,1571,l),
(920,1544,l),
(839,996,l),
(819,1011,o),
(758,1035,o),
(640,1035,cs),
(299,1035,o),
(24,725,o),
(24,325,cs),
(24,133,o),
(146,-21,o),
(344,-21,cs),
(498,-21,o),
(667,100,o),
(726,261,c),
(703,132,ls),
(687,42,o),
(713,-21,o),
(803,-21,cs),
(902,-21,o),
(981,41,o),
(1014,95,c),
(996,124,l),
(959,78,o),
(913,58,o),
(887,58,cs),
(841,58,o),
(838,98,o),
(844,141,cs)
);
},
{
closed = 1;
nodes = (
(742,393,l),
(692,172,o),
(504,43,o),
(377,43,cs),
(258,43,o),
(179,162,o),
(179,324,cs),
(179,674,o),
(383,993,o),
(632,993,cs),
(716,993,o),
(801,954,o),
(822,904,c)
);
}
);
width = 1050;
},
{
anchors = (
{
name = bottom;
pos = (420,0);
},
{
name = caron;
pos = (1115,1622);
},
{
name = center;
pos = (786,1332);
},
{
name = top;
pos = (513,1540);
}
);
guides = (
{
angle = 81.8865;
pos = (835,1070);
},
{
angle = 81.8865;
pos = (958,884);
}
);
layerId = "8587C386-9485-4E77-8679-63F1A494C2C0";
shapes = (
{
closed = 1;
nodes = (
(1035,1610,l),
(997,1634,l),
(758,1600,l),
(741,1533,l),
(871,1500,l),
(815,1108,l),
(784,1123,o),
(734,1136,o),
(675,1136,cs),
(320,1136,o),
(75,758,o),
(75,391,cs),
(75,125,o),
(192,-20,o),
(382,-20,cs),
(522,-20,o),
(635,101,o),
(686,196,c),
(676,102,ls),
(667,15,o),
(709,-20,o),
(772,-20,cs),
(876,-20,o),
(957,71,o),
(973,96,c),
(947,139,l),
(908,105,o),
(881,88,o),
(853,88,cs),
(834,88,o),
(823,110,o),
(829,158,cs)
);
},
{
closed = 1;
nodes = (
(704,325,l),
(660,232,o),
(546,95,o),
(420,95,cs),
(304,95,o),
(232,217,o),
(232,401,cs),
(232,736,o),
(417,1038,o),
(657,1038,cs),
(717,1038,o),
(773,1024,o),
(798,986,c)
);
}
);
width = 1068;
},
{
anchors = (
{
name = bottom;
pos = (452,0);
},
{
name = caron;
pos = (1169,1622);
},
{
name = center;
pos = (700,1332);
},
{
name = top;
pos = (513,1540);
}
);
guides = (
{
angle = 81.8865;
pos = (649,251);
},
{
angle = 81.8865;
pos = (970,297);
}
);
layerId = "F8806197-5953-4DD8-B2B5-EF301301BB43";
shapes = (
{
closed = 1;
nodes = (
(1098,1606,l),
(1044,1634,l),
(655,1592,l),
(637,1513,l),
(790,1471,l),
(740,1127,l),
(726,1132,o),
(687,1137,o),
(668,1137,cs),
(340,1137,o),
(41,831,o),
(41,376,cs),
(41,127,o),
(162,-20,o),
(357,-20,cs),
(482,-20,o),
(568,49,o),
(622,125,c),
(624,106,ls),
(633,23,o),
(676,-20,o),
(780,-20,cs),
(912,-20,o),
(1003,58,o),
(1050,123,c),
(1023,192,l),
(982,156,o),
(954,146,o),
(936,146,cs),
(898,146,o),
(893,179,o),
(899,224,cs)
);
},
{
closed = 1;
nodes = (
(610,224,l),
(576,174,o),
(527,143,o),
(480,143,cs),
(413,143,o),
(357,187,o),
(357,384,cs),
(357,751,o),
(468,1003,o),
(648,1003,cs),
(671,1003,o),
(690,1003,o),
(721,992,c)
);
}
);
width = 1107;
},
{
anchors = (
{
name = bottom;
pos = (344,0);
},
{
name = caron;
pos = (1054,1622);
},
{
name = center;
pos = (728,1332);
},
{
name = top;
pos = (583,1540);
}
);
guides = (
{
angle = 81.4522;
pos = (719,1008);
}
);
layerId = "F318CEA5-7792-49D8-B68D-92025E304353";
shapes = (
{
closed = 1;
nodes = (
(963,1618,l),
(944,1634,l),
(692,1598,l),
(688,1572,l),
(815,1551,l),
(735,1014,l),
(708,1027,o),
(655,1035,o),
(621,1035,cs),
(303,1035,o),
(55,707,o),
(55,334,cs),
(55,81,o),
(193,-21,o),
(310,-21,cs),
(437,-21,o),
(567,97,o),
(621,249,c),
(602,132,ls),
(587,42,o),
(611,-21,o),
(701,-21,cs),
(784,-21,o),
(853,38,o),
(885,94,c),
(867,124,l),
(833,78,o),
(796,58,o),
(766,58,cs),
(737,58,o),
(733,94,o),
(740,141,cs)
);
},
{
closed = 1;
nodes = (
(637,374,l),
(592,171,o),
(445,43,o),
(354,43,cs),
(243,43,o),
(209,177,o),
(209,328,cs),
(209,673,o),
(390,993,o),
(613,993,cs),
(682,993,o),
(709,949,o),
(719,912,c)
);
}
);
width = 939;
},
{
anchors = (
{
name = bottom;
pos = (434,0);
},
{
name = caron;
pos = (1170,1622);
},
{
name = center;
pos = (688,1332);
},
{
name = top;
pos = (583,1540);
}
);
layerId = "7A2136B0-3E1D-476B-B826-4714342A6FC2";
shapes = (
{
closed = 1;
nodes = (
(1082,1604,l),
(1045,1634,l),
(629,1580,l),
(624,1546,l),
(754,1503,l),
(681,1020,l),
(661,1028,o),
(624,1035,o),
(589,1035,cs),
(187,1035,o),
(19,673,o),
(19,355,cs),
(19,87,o),
(164,-23,o),
(317,-23,cs),
(474,-23,o),
(560,119,o),
(592,241,c),
(578,140,ls),
(567,62,o),
(607,-23,o),
(716,-23,cs),
(846,-23,o),
(946,44,o),
(1002,121,c),
(980,171,l),
(953,139,o),
(921,126,o),
(899,126,cs),
(874,126,o),
(862,137,o),
(867,176,cs)
);
},
{
closed = 1;
nodes = (
(580,341,l),
(549,196,o),
(488,108,o),
(441,108,cs),
(402,108,o),
(362,152,o),
(362,297,cs),
(362,561,o),
(425,980,o),
(593,980,cs),
(643,980,o),
(664,954,o),
(668,931,c)
);
}
);
width = 1031;
}
);
unicode = 100;
userData = {
KernOnName = d;
};
}
{
color = 4;
glyphname = g;
layers = (
{
anchors = (
{
name = bottom;
pos = (464,0);
},
{
name = tbar;
pos = (776,610);
},
{
name = top;
pos = (696,1108);
}
);
layerId = "0C3FD5EE-D923-4A4A-8FDE-164881635915";
shapes = (
{
closed = 1;
nodes = (
(1038,1136,l),
(923,1094,l),
(869,1116,o),
(788,1136,o),
(711,1136,cs),
(309,1136,o),
(83,708,o),
(83,401,cs),
(83,159,o),
(186,-20,o),
(408,-20,cs),
(550,-20,o),
(664,67,o),
(732,151,c),
(689,-129,ls),
(661,-314,o),
(579,-371,o),
(402,-371,cs),
(301,-371,o),
(204,-338,o),
(152,-314,c),
(113,-462,l),
(153,-478,o),
(244,-497,o),
(330,-497,cs),
(526,-497,o),
(807,-386,o),
(851,-76,c)
);
},
{
closed = 1;
nodes = (
(752,288,l),
(699,196,o),
(587,95,o),
(439,95,cs),
(315,95,o),
(246,214,o),
(246,413,cs),
(246,666,o),
(387,1038,o),
(687,1038,cs),
(748,1038,o),
(811,1024,o),
(856,988,c)
);
}
);
width = 1098;
},
{
anchors = (
{
name = bottom;
pos = (460,0);
},
{
name = tbar;
pos = (802,580);
},
{
name = top;
pos = (714,1112);
}
);
layerId = "27298932-82AF-4578-9425-6304FDB19058";
shapes = (
{
closed = 1;
nodes = (
(1128,1136,l),
(970,1090,l),
(912,1112,o),
(812,1136,o),
(730,1136,cs),
(288,1136,o),
(60,770,o),
(60,392,cs),
(60,168,o),
(162,-20,o),
(406,-20,cs),
(520,-20,o),
(606,24,o),
(668,74,c),
(644,-142,ls),
(624,-314,o),
(558,-350,o),
(426,-350,cs),
(310,-350,o),
(172,-272,o),
(152,-254,c),
(102,-462,l),
(140,-480,o),
(268,-506,o),
(362,-506,cs),
(622,-506,o),
(920,-416,o),
(964,-76,c)
);
},
{
closed = 1;
nodes = (
(686,224,l),
(648,182,o),
(596,148,o),
(540,148,cs),
(450,148,o),
(394,244,o),
(394,404,cs),
(394,664,o),
(468,1002,o),
(708,1002,cs),
(740,1002,o),
(772,996,o),
(798,988,c)
);
}
);
width = 1154;
},
{
anchors = (
{
name = bottom;
pos = (490,0);
},
{
name = tbar;
pos = (868,580);
},
{
name = top;
pos = (724,1112);
}
);
layerId = "9079322E-D2EB-4437-A6B9-48C6726F1892";
shapes = (
{
closed = 1;
nodes = (
(1200,1136,l),
(1039,1088,l),
(974,1112,o),
(851,1136,o),
(750,1136,cs),
(298,1136,o),
(46,770,o),
(46,392,cs),
(46,168,o),
(169,-20,o),
(430,-20,cs),
(557,-20,o),
(653,18,o),
(724,89,c),
(698,-104,ls),
(670,-313,o),
(586,-350,o),
(483,-350,cs),
(360,-350,o),
(247,-309,o),
(114,-224,c),
(62,-444,l),
(166,-486,o),
(298,-506,o),
(452,-506,cs),
(687,-506,o),
(974,-410,o),
(1026,-52,cs)
);
},
{
closed = 1;
nodes = (
(745,232,l),
(695,171,o),
(634,148,o),
(568,148,cs),
(438,148,o),
(392,236,o),
(392,404,cs),
(392,662,o),
(505,1001,o),
(756,1001,cs),
(797,1001,o),
(833,994,o),
(854,986,c)
);
}
);
width = 1252;
},
{
anchors = (
{
name = bottom;
pos = (522,0);
},
{
name = tbar;
pos = (834,610);
},
{
name = top;
pos = (714,1108);
}
);
layerId = "AB43ED1F-BEAA-4517-9B18-06741265F15E";
shapes = (
{
closed = 1;
nodes = (
(1095,1136,l),
(981,1094,l),
(927,1116,o),
(846,1136,o),
(740,1136,cs),
(278,1136,o),
(50,709,o),
(50,398,cs),
(50,168,o),
(169,-20,o),
(421,-20,cs),
(567,-20,o),
(703,64,o),
(788,159,c),
(749,-99,ls),
(717,-314,o),
(637,-371,o),
(461,-371,cs),
(344,-371,o),
(219,-337,o),
(162,-307,c),
(119,-448,l),
(176,-471,o),
(271,-497,o),
(391,-497,cs),
(625,-497,o),
(863,-394,o),
(915,-52,cs)
);
},
{
closed = 1;
nodes = (
(810,291,l),
(732,189,o),
(590,95,o),
(458,95,cs),
(296,95,o),
(220,221,o),
(220,427,cs),
(220,678,o),
(375,1039,o),
(728,1039,cs),
(807,1039,o),
(869,1023,o),
(914,986,c)
);
}
);
width = 1168;
},
{
anchors = (
{
name = bottom;
pos = (421,0);
},
{
name = tbar;
pos = (762,570);
},
{
name = top;
pos = (666,1005);
}
);
guides = (
{
angle = 262.0698;
pos = (747,930);
}
);
layerId = "0E81F995-ADCA-4265-BF48-502C19DBCB17";
shapes = (
{
closed = 1;
nodes = (
(1085,1022,l),
(886,986,l),
(829,1008,o),
(761,1027,o),
(677,1027,cs),
(247,1027,o),
(24,724,o),
(24,359,cs),
(24,88,o),
(191,-23,o),
(352,-23,cs),
(512,-23,o),
(600,83,o),
(644,191,c),
(595,-128,ls),
(565,-323,o),
(494,-456,o),
(367,-456,cs),
(246,-456,o),
(120,-349,o),
(62,-172,c),
(-42,-387,l),
(49,-461,o),
(161,-503,o),
(366,-503,cs),
(632,-503,o),
(883,-352,o),
(935,-6,cs)
);
},
{
closed = 1;
nodes = (
(659,324,l),
(636,235,o),
(553,108,o),
(478,108,cs),
(432,108,o),
(372,132,o),
(372,297,cs),
(372,541,o),
(428,980,o),
(670,980,cs),
(723,980,o),
(744,956,o),
(749,935,c)
);
}
);
width = 1104;
},
{
anchors = (
{
name = bottom;
pos = (438,0);
},
{
name = tbar;
pos = (736,580);
},
{
name = top;
pos = (596,1005);
}
);
layerId = "10D406F4-E64B-40B9-806E-EB589F33F511";
shapes = (
{
closed = 1;
nodes = (
(949,1019,l),
(861,980,l),
(809,1015,o),
(757,1031,o),
(659,1031,cs),
(263,1031,o),
(50,683,o),
(50,344,cs),
(50,89,o),
(167,-21,o),
(344,-21,cs),
(500,-21,o),
(643,113,o),
(694,262,c),
(643,-57,ls),
(597,-343,o),
(479,-452,o),
(331,-452,cs),
(249,-452,o),
(152,-370,o),
(110,-298,c),
(55,-436,l),
(116,-479,o),
(254,-495,o),
(323,-495,cs),
(576,-495,o),
(736,-340,o),
(775,-90,cs)
);
},
{
closed = 1;
nodes = (
(708,378,l),
(662,180,o),
(500,43,o),
(372,43,cs),
(270,43,o),
(207,129,o),
(207,334,cs),
(207,638,o),
(352,990,o),
(659,990,cs),
(732,990,o),
(777,964,o),
(792,920,c)
);
}
);
width = 973;
},
{
anchors = (
{
name = bottom;
pos = (500,0);
},
{
name = tbar;
pos = (808,570);
},
{
name = top;
pos = (662,1005);
}
);
guides = (
{
angle = 81.8546;
pos = (804,934);
}
);
layerId = "2795BD5C-FE1E-44B5-B1D3-799347E852FC";
shapes = (
{
closed = 1;
nodes = (
(1131,1022,l),
(926,986,l),
(859,1008,o),
(773,1027,o),
(679,1027,cs),
(276,1027,o),
(24,725,o),
(24,355,cs),
(24,89,o),
(190,-23,o),
(359,-23,cs),
(523,-23,o),
(616,79,o),
(684,204,c),
(629,-128,ls),
(593,-343,o),
(499,-456,o),
(410,-456,cs),
(296,-456,o),
(164,-349,o),
(103,-172,c),
(-5,-387,l),
(49,-452,o),
(169,-503,o),
(368,-503,cs),
(665,-503,o),
(929,-352,o),
(980,-6,cs)
);
},
{
closed = 1;
nodes = (
(703,328,l),
(679,239,o),
(584,108,o),
(486,108,cs),
(437,108,o),
(380,132,o),
(380,297,cs),
(380,589,o),
(460,980,o),
(678,980,cs),
(725,980,o),
(785,955,o),
(792,934,c)
);
}
);
width = 1144;
},
{
anchors = (
{
name = bottom;
pos = (435,0);
},
{
name = tbar;
pos = (766,580);
},
{
name = top;
pos = (622,1005);
}
);
layerId = "95CCB04D-97EC-4126-A206-216E0B8EC505";
shapes = (
{
closed = 1;
nodes = (
(976,1016,l),
(893,976,l),
(837,1012,o),
(755,1031,o),
(658,1031,cs),
(254,1031,o),
(24,691,o),
(24,324,cs),
(24,123,o),
(145,-21,o),
(347,-21,cs),
(491,-21,o),
(662,96,o),
(723,263,c),
(668,-70,ls),
(624,-336,o),
(519,-452,o),
(342,-452,cs),
(204,-452,o),
(115,-375,o),
(48,-298,c),
(-7,-432,l),
(53,-462,o),
(155,-495,o),
(336,-495,cs),
(622,-495,o),
(765,-342,o),
(805,-86,cs)
);
},
{
closed = 1;
nodes = (
(740,393,l),
(694,184,o),
(512,43,o),
(374,43,cs),
(261,43,o),
(178,152,o),
(178,333,cs),
(178,647,o),
(358,989,o),
(648,989,cs),
(751,989,o),
(803,956,o),
(821,912,c)
);
}
);
width = 1012;
},
{
anchors = (
{
name = bottom;
pos = (410,0);
},
{
name = tbar;
pos = (732,610);
},
{
name = top;
pos = (662,1108);
}
);
layerId = "8587C386-9485-4E77-8679-63F1A494C2C0";
shapes = (
{
closed = 1;
nodes = (
(967,1135,l),
(863,1092,l),
(818,1114,o),
(769,1136,o),
(671,1136,cs),
(293,1136,o),
(75,725,o),
(75,391,cs),
(75,145,o),
(175,-20,o),
(382,-20,cs),
(492,-20,o),
(610,58,o),
(690,196,c),
(643,-129,ls),
(617,-311,o),
(533,-371,o),
(369,-371,cs),
(264,-371,o),
(170,-342,o),
(120,-318,c),
(81,-461,l),
(121,-477,o),
(207,-497,o),
(285,-497,cs),
(478,-497,o),
(753,-388,o),
(797,-76,cs)
);
},
{
closed = 1;
nodes = (
(707,321,l),
(648,202,o),
(523,95,o),
(421,95,cs),
(301,95,o),
(232,214,o),
(232,413,cs),
(232,666,o),
(371,1039,o),
(664,1039,cs),
(726,1039,o),
(775,1016,o),
(800,993,c)
);
}
);
width = 1046;
},
{
anchors = (
{
name = bottom;
pos = (359,0);
},
{
name = tbar;
pos = (701,580);
},
{
name = top;
pos = (643,1112);
}
);
guides = (
{
angle = 261.9229;
pos = (722,996);
}
);
layerId = "F8806197-5953-4DD8-B2B5-EF301301BB43";
shapes = (
{
closed = 1;
nodes = (
(1029,1136,l),
(888,1099,l),
(841,1118,o),
(740,1137,o),
(680,1137,cs),
(335,1137,o),
(41,831,o),
(41,375,cs),
(41,95,o),
(195,-20,o),
(352,-20,cs),
(451,-20,o),
(532,15,o),
(599,83,c),
(569,-142,ls),
(546,-316,o),
(482,-355,o),
(364,-355,cs),
(255,-355,o),
(125,-273,o),
(107,-254,c),
(59,-462,l),
(95,-480,o),
(216,-506,o),
(340,-506,cs),
(544,-506,o),
(821,-414,o),
(866,-76,cs)
);
},
{
closed = 1;
nodes = (
(617,224,l),
(584,178,o),
(537,143,o),
(480,143,cs),
(418,143,o),
(357,181,o),
(357,384,cs),
(357,751,o),
(468,1003,o),
(648,1003,cs),
(683,1003,o),
(699,1001,o),
(722,996,c)
);
}
);
width = 1077;
},
{
anchors = (
{
name = bottom;
pos = (380,0);
},
{
name = tbar;
pos = (631,580);
},
{
name = top;
pos = (562,1005);
}
);
guides = (
{
angle = 81.4396;
pos = (716,906);
},
{
angle = 81.4396;
pos = (791,457);
},
{
angle = 81.3268;
pos = (213,338);
}
);
layerId = "F318CEA5-7792-49D8-B68D-92025E304353";
shapes = (
{
closed = 1;
nodes = (
(875,1025,l),
(773,985,l),
(739,1009,o),
(698,1030,o),
(612,1030,cs),
(274,1030,o),
(55,679,o),
(55,334,cs),
(55,111,o),
(163,-21,o),
(316,-21,cs),
(419,-21,o),
(553,76,o),
(618,243,c),
(569,-72,ls),
(527,-344,o),
(444,-454,o),
(309,-454,cs),
(217,-454,o),
(141,-364,o),
(95,-298,c),
(43,-439,l),
(119,-481,o),
(216,-495,o),
(305,-495,cs),
(510,-495,o),
(664,-340,o),
(705,-73,cs)
);
},
{
closed = 1;
nodes = (
(637,376,l),
(593,182,o),
(453,43,o),
(351,43,cs),
(316,43,o),
(209,54,o),
(209,323,cs),
(209,664,o),
(385,989,o),
(603,989,cs),
(656,989,o),
(704,966,o),
(720,921,c)
);
}
);
width = 913;
},
{
anchors = (
{
name = bottom;
pos = (333,0);
},
{
name = tbar;
pos = (668,580);
},
{
name = top;
pos = (572,1005);
}
);
guides = (
{
angle = 262.5041;
pos = (621,649);
}
);
layerId = "7A2136B0-3E1D-476B-B826-4714342A6FC2";
shapes = (
{
closed = 1;
nodes = (
(981,1022,l),
(790,985,l),
(733,1007,o),
(665,1027,o),
(588,1027,cs),
(196,1027,o),
(20,718,o),
(20,348,cs),
(20,115,o),
(137,-23,o),
(315,-23,cs),
(434,-23,o),
(523,78,o),
(561,167,c),
(519,-128,ls),
(488,-346,o),
(440,-456,o),
(340,-456,cs),
(233,-456,o),
(114,-349,o),
(61,-172,c),
(-38,-387,l),
(47,-461,o),
(153,-503,o),
(337,-503,cs),
(613,-503,o),
(781,-376,o),
(826,-62,cs)
);
},
{
closed = 1;
nodes = (
(578,337,l),
(546,210,o),
(492,108,o),
(433,108,cs),
(397,108,o),
(363,143,o),
(363,316,cs),
(363,530,o),
(407,980,o),
(588,980,cs),
(632,980,o),
(648,955,o),
(653,934,c)
);
}
);
width = 1000;
}
);
metricLeft = d;
unicode = 103;
userData = {
KernOnName = g;
};
}
